<svg id="Layer_1" data-name="Layer 1" xmlns="http://www.w3.org/2000/svg" viewBox="0 0 400 300" width="406" height="306" class="illustration"><title>#20 checklist</title><ellipse cx="210.84" cy="255.24" rx="161.76" ry="24.09" fill="#e6e6e6" opacity="0.45"></ellipse><rect x="58.53" y="91.32" width="26" height="164.69" transform="translate(-1.39 0.58) rotate(-0.46)" fill="#ffd200"></rect><polygon points="57.88 91.42 70.57 53.29 83.88 91.21 57.88 91.42" fill="#f4a28c"></polygon><polygon points="64.8 70.62 76.62 70.53 70.57 53.29 64.8 70.62" fill="#24285b"></polygon><rect x="58.6" y="91.37" width="13.45" height="164.69" transform="translate(-1.39 0.53) rotate(-0.46)" opacity="0.08"></rect><rect x="294.88" y="238.47" width="48.5" height="12.77" fill="#e6e6e6"></rect><rect x="284.28" y="225.98" width="48.5" height="12.77" fill="#e6e6e6" opacity="0.43"></rect><path d="M58.61,175.35v16.48s14.13,1.58,26-6.12V170.9l-10.21-2Z" opacity="0.08"></path><rect x="153.17" y="63.33" width="160.67" height="188" fill="#c9c9c9"></rect><rect x="178.96" y="88.67" width="125.08" height="150.51" opacity="0.08"></rect><rect x="170.96" y="80" width="125.08" height="150.51" fill="#fff"></rect><path d="M158,104.67s24.21,2.33,30.21,33.83l19.44-26s11.31-1.37,6.31,9c-3.28,6.82-4.08,26.46-12.7,39.75a227,227,0,0,0-33.63,86.86l-.42,2.6-11.75.53,3.25-96.07Z" opacity="0.08"></path><rect x="192.6" y="44.67" width="10.56" height="44" fill="#f2f2f2"></rect><rect x="264.03" y="44.67" width="10.56" height="44" fill="#f2f2f2"></rect><rect x="254.5" y="103" width="26.67" height="26.67" fill="#ffd200"></rect><rect x="254.5" y="141.92" width="26.67" height="26.67" fill="#ffd200"></rect><rect x="254.5" y="180.85" width="26.67" height="26.67" fill="#ffd200"></rect><path d="M110.11,116.62C103,132,81.75,162,61.22,165.46v10.78S98,174.33,130.37,142c13.47-13.48,13.24-22.79,8.39-29.07C131.07,103,115.37,105.23,110.11,116.62Z" fill="#68e1fd"></path><path d="M110.11,116.62C103,132,81.75,162,61.22,165.46v10.78S98,174.33,130.37,142c13.47-13.48,13.24-22.79,8.39-29.07C131.07,103,115.37,105.23,110.11,116.62Z" opacity="0.08"></path><rect x="193.5" y="110.67" width="48" height="11.33" fill="#a5a5a5"></rect><rect x="193.5" y="149.59" width="48" height="11.33" fill="#a5a5a5" opacity="0.44"></rect><rect x="193.5" y="188.51" width="48" height="11.33" fill="#a5a5a5" opacity="0.13"></rect><polyline points="260.5 116.33 265.83 123.17 274.83 110.67" fill="none" stroke="#fff" stroke-miterlimit="10" stroke-width="3"></polyline><polyline points="260.5 154.67 265.83 161.51 274.83 149.01" fill="none" stroke="#fff" stroke-miterlimit="10" stroke-width="3"></polyline><polyline points="260.5 193.01 265.83 199.85 274.83 187.35" fill="none" stroke="#fff" stroke-miterlimit="10" stroke-width="3"></polyline><polygon points="127.14 91.5 130.97 102.98 121.88 108.76 118.61 88.86 127.14 91.5" fill="#f4a28c"></polygon><path d="M121.42,77.08a7.15,7.15,0,0,1,11.71,2.6c2,5.28,3.89,13.11-2.34,14.45-9.54,2-12.57-10.22-12.57-10.22A13.06,13.06,0,0,1,121.42,77.08Z" fill="#f4a28c"></path><path d="M121.39,84.8s-2.07-1.73-3,.73,2.71,3.64,3.8,2.4S121.39,84.8,121.39,84.8Z" fill="#f4a28c"></path><path d="M111.27,114.39a23.25,23.25,0,0,1,14.57-12.72c12.35-3.71,35.08.35,42,11.9,9.49,15.81-4.4,66-4.4,66L122,182.83S99.13,141.66,111.27,114.39Z" fill="#68e1fd"></path><polygon points="163.45 179.61 157.99 250.94 149.36 250.94 141.66 195.52 122.58 182.83 163.45 179.61" fill="#24285b"></polygon><polygon points="122.58 182.83 110.68 250.94 119.93 250.94 139.91 194.36 122.58 182.83" fill="#24285b"></polygon><path d="M129.43,100.59S110,163.1,166.06,167.24l-2.61,12.37L122,182.83s-16.2-28.24-14-55.2c0,0,.35-15.95,11.57-23A25.25,25.25,0,0,1,129.43,100.59Z" opacity="0.08"></path><path d="M112.85,250.8l-5.58,4.1a1.23,1.23,0,0,0,.73,2.22h9.34a1.23,1.23,0,0,0,1.22-1.23V250.8Z" fill="#68e1fd"></path><path d="M156.91,250.8l5.25,4.1a1.24,1.24,0,0,1-.77,2.22h-6.64a3.55,3.55,0,0,1-3.55-3.55V250.8Z" fill="#68e1fd"></path><path d="M146.35,101.34a20.92,20.92,0,0,0,0,22.13C150.87,131.11,164,146,173,155.81A9.49,9.49,0,0,0,188.35,154l19.34-34.08-6.56-4.21-17.72,26S171.28,101.84,146.35,101.34Z" fill="#68e1fd"></path><path d="M146.35,101.34a20.92,20.92,0,0,0,0,22.13C150.87,131.11,164,146,173,155.81A9.49,9.49,0,0,0,188.35,154l19.34-34.08-6.56-4.21-17.72,26S171.28,101.84,146.35,101.34Z" fill="#fff" opacity="0.2"></path><path d="M205.4,118.47s11-4,6.5-10.24-10.77,7.5-10.77,7.5Z" fill="#f4a28c"></path><path d="M119.33,92.14,116,83.94a6.7,6.7,0,0,1,.14-5.34c1.35-2.94,3.93-7.47,7.87-10,6.18-4.06,12.23-4.08,11.55,1.31s1.92-.28,4,3.58.83,5.11-2.22,5.47-9,.25-11.14,4.18S126.66,91.9,119.33,92.14Z" fill="#24285b"></path><path d="M61.22,165.46s-5.73-2.44-7.9,2.89,7.9,7.89,7.9,7.89Z" fill="#f4a28c"></path><rect x="58.87" y="227.56" width="26.31" height="29.56" transform="translate(-1.94 0.59) rotate(-0.46)" fill="#24285b"></rect></svg>