<svg id="Layer_1" data-name="Layer 1" xmlns="http://www.w3.org/2000/svg" xmlns:xlink="http://www.w3.org/1999/xlink" viewBox="0 0 373.87 275.7" width="406" height="306" class="illustration"><defs><linearGradient id="linear-gradient" x1="257.32" y1="184.52" x2="266.89" y2="260.54" gradientUnits="userSpaceOnUse"><stop offset="0" stop-opacity="0"></stop><stop offset="0.99"></stop></linearGradient><linearGradient id="linear-gradient-2" x1="284.18" y1="207.24" x2="299.57" y2="197.48" xlink:href="#linear-gradient"></linearGradient><linearGradient id="linear-gradient-3" x1="-3635.6" y1="602.69" x2="-3620.94" y2="602.69" gradientTransform="translate(3485.42 1917.77) rotate(37.73)" gradientUnits="userSpaceOnUse"><stop offset="0" stop-color="#e5c5d5"></stop><stop offset="0.42" stop-color="#ead4d1"></stop><stop offset="1" stop-color="#f0e9cb"></stop></linearGradient><linearGradient id="linear-gradient-4" x1="241.47" y1="169.15" x2="263.15" y2="186.98" xlink:href="#linear-gradient"></linearGradient><linearGradient id="linear-gradient-5" x1="288.09" y1="206.81" x2="296.26" y2="160.63" gradientTransform="translate(-20.19 34.13) rotate(-6.5)" xlink:href="#linear-gradient"></linearGradient><linearGradient id="linear-gradient-6" x1="157.09" y1="135.76" x2="157.84" y2="109.1" xlink:href="#linear-gradient"></linearGradient><linearGradient id="linear-gradient-7" x1="31.1" y1="68.23" x2="10.83" y2="417.37" xlink:href="#linear-gradient"></linearGradient><linearGradient id="linear-gradient-8" x1="281.56" y1="188.41" x2="307.84" y2="188.41" gradientTransform="matrix(1, 0, 0, 1, 0, 0)" xlink:href="#linear-gradient-3"></linearGradient><linearGradient id="linear-gradient-9" x1="-2020.12" y1="86.95" x2="-1983.74" y2="86.95" gradientTransform="translate(2131.14 806.75) rotate(21.35)" xlink:href="#linear-gradient-3"></linearGradient><linearGradient id="linear-gradient-10" x1="-1986.01" y1="77.33" x2="-1987.79" y2="83.62" gradientTransform="translate(2131.14 806.75) rotate(21.35)" xlink:href="#linear-gradient-3"></linearGradient><linearGradient id="linear-gradient-11" x1="-1982.97" y1="78.54" x2="-1996.39" y2="85.81" gradientTransform="translate(2131.14 806.75) rotate(21.35)" xlink:href="#linear-gradient"></linearGradient><linearGradient id="linear-gradient-12" x1="200.22" y1="198.66" x2="222.39" y2="198.66" gradientTransform="matrix(1, 0, 0, 1, 0, 0)" xlink:href="#linear-gradient-3"></linearGradient></defs><title>Process building</title><path d="M126.14,110c-11,12.6-19.54,27.93-33.71,36.82-9.5,6-21.06,8.69-29.38,16.22-16.54,15-13.42,41.82-5.29,62.6,21.88,55.9,71.59,100.1,129.67,115.28s123.06,1,169.5-37.07c16.86-13.81,31.22-30.38,45-47.28,10.65-13.08,21.43-27.44,22.91-44.25,2.15-24.36-16.49-46.5-38.43-57.29s-46.92-13.05-71-17.18c-10.06-1.72-20.34-3.92-28.84-9.57-27-18-28.51-54.61-65.4-56.86C185.69,69.23,149.66,83,126.14,110Z" transform="translate(-51.14 -71.17)" fill="#68e1fd" opacity="0.18" style="isolation: isolate;"></path><path d="M272.39,170.85c6.09,2.11,10.43,7.57,16.23,10.38a12.21,12.21,0,0,1,2.3,1.26,8,8,0,0,1,1.6,1.82c3.46,5.06,4.77,11.33,4.87,17.46.06,3.56-.53,7.62-3.48,9.63s-6.57,1.17-9.91,1.78a2.45,2.45,0,0,0-1.23.51,2.37,2.37,0,0,0-.54,1.14c-.9,3.55-.3,7.47-1.84,10.8a11.88,11.88,0,0,1-4.6,4.91c-4.58,2.87-10.18,3.43-15.57,3.75a254.21,254.21,0,0,1-26.19.21c-2.54-.11-5.33-.36-7.11-2.18a8.08,8.08,0,0,1-1.72-3c-1.49-4.33-1.2-9.06-.71-13.61,1-9-3.89-18-2.21-26.93.94-5,8.8-10.62,13.15-13.28,2.6-1.59,5.74-1.82,8.5-3s4.53-1.11,7.62-1.29C258.44,170.72,265.63,168.51,272.39,170.85Z" transform="translate(-51.14 -71.17)" fill="#68e1fd"></path><path d="M272.39,170.85c6.09,2.11,10.43,7.57,16.23,10.38a12.21,12.21,0,0,1,2.3,1.26,8,8,0,0,1,1.6,1.82c3.46,5.06,4.77,11.33,4.87,17.46.06,3.56-.53,7.62-3.48,9.63s-6.57,1.17-9.91,1.78a2.45,2.45,0,0,0-1.23.51,2.37,2.37,0,0,0-.54,1.14c-.9,3.55-.3,7.47-1.84,10.8a11.88,11.88,0,0,1-4.6,4.91c-4.58,2.87-10.18,3.43-15.57,3.75a254.21,254.21,0,0,1-26.19.21c-2.54-.11-5.33-.36-7.11-2.18a8.08,8.08,0,0,1-1.72-3c-1.49-4.33-1.2-9.06-.71-13.61,1-9-2.48-17.53-.8-26.47.94-5,3.34-5.22,7.69-7.88,2.6-1.59,9.79-7.68,12.55-8.9s4.53-1.11,7.62-1.29C258.44,170.72,265.63,168.51,272.39,170.85Z" transform="translate(-51.14 -71.17)" fill="url(#linear-gradient)"></path><path d="M297.17,204.16c.15,8.45-7.46,8.87-12.61,9.21a3.61,3.61,0,0,1-1.68-.3c-2.48-1-4.46-4.6-5.66-7.33a33.64,33.64,0,0,1-1.3-3.41S297,195.71,297.17,204.16Z" transform="translate(-51.14 -71.17)" fill="url(#linear-gradient-2)"></path><rect x="40.43" y="146.57" width="295.53" height="26.45" fill="#fff"></rect><rect x="40.43" y="173.31" width="263.74" height="24.25" fill="#fff"></rect><rect x="33.56" y="196.21" width="299.8" height="24.25" fill="#fff"></rect><rect x="32.71" y="215.74" width="327.59" height="24.25" fill="#fff"></rect><path d="M252.43,168.75c.71,3.21,1.41,6.66.15,9.7a8.31,8.31,0,0,1-9,4.8,4.84,4.84,0,0,1-3-1.69,5.22,5.22,0,0,1-.82-1.79,12.33,12.33,0,0,1,7.89-15.12c1-.34,2.65-1,3.59-.24S252.2,167.72,252.43,168.75Z" transform="translate(-51.14 -71.17)" fill="url(#linear-gradient-3)"></path><path d="M251.06,165s-.37,14.36-6.94,15.68-6.1-6-6.1-6Z" transform="translate(-51.14 -71.17)" fill="url(#linear-gradient-4)"></path><path d="M216.74,154.31a13.4,13.4,0,0,0,6.08,8.93,3.43,3.43,0,0,0,.92-2.94,22.29,22.29,0,0,0-.77-3.1c-.85-3.38-.25-6.93-.14-10.41,0-1-.07-2.16-.91-2.69C217.3,141.22,216.34,152,216.74,154.31Z" transform="translate(-51.14 -71.17)" fill="#3e3e54"></path><rect x="67.62" y="126.47" width="56.12" height="20.08" fill="#68e1fd"></rect><rect x="16.29" y="126.47" width="47.77" height="20.08" fill="#68e1fd"></rect><rect x="16.29" y="172.65" width="47.77" height="20.08" fill="#68e1fd"></rect><rect x="16.29" y="218.82" width="47.77" height="20.08" fill="#68e1fd"></rect><rect x="98.41" y="150.12" width="56.12" height="20.08" fill="#68e1fd"></rect><rect x="37.97" y="150.12" width="56.12" height="20.08" fill="#68e1fd"></rect><rect x="157.72" y="150.12" width="56.12" height="20.08" fill="#68e1fd"></rect><rect x="217.79" y="150.12" width="56.12" height="20.08" fill="#68e1fd"></rect><rect x="262.17" y="184.69" width="56.12" height="20.08" transform="translate(-27.21 -102.79) rotate(6.5)" fill="#68e1fd"></rect><rect x="262.17" y="184.69" width="56.12" height="20.08" transform="translate(-27.21 -102.79) rotate(6.5)" fill="url(#linear-gradient-5)"></rect><rect x="277.1" y="150.12" width="56.12" height="20.08" fill="#68e1fd"></rect><rect x="98.41" y="195.73" width="56.12" height="20.08" fill="#68e1fd"></rect><rect x="37.97" y="195.73" width="56.12" height="20.08" fill="#68e1fd"></rect><rect x="157.72" y="195.73" width="56.12" height="20.08" fill="#68e1fd"></rect><rect x="217.79" y="195.73" width="56.12" height="20.08" fill="#68e1fd"></rect><rect x="277.1" y="195.73" width="56.12" height="20.08" fill="#68e1fd"></rect><rect x="129" y="126.47" width="56.12" height="20.08" fill="#68e1fd"></rect><rect x="129" y="126.47" width="56.12" height="20.08" fill="url(#linear-gradient-6)"></rect><rect x="67.62" y="173.21" width="56.12" height="20.08" fill="#68e1fd"></rect><rect x="127.03" y="173.21" width="56.12" height="20.08" fill="#68e1fd"></rect><rect x="186.16" y="173.21" width="56.12" height="20.08" fill="#68e1fd"></rect><rect x="245.01" y="173.21" width="56.12" height="20.08" fill="#68e1fd"></rect><rect x="67.62" y="219.95" width="56.12" height="20.08" fill="#68e1fd"></rect><rect x="127.03" y="219.95" width="56.12" height="20.08" fill="#68e1fd"></rect><rect x="186.16" y="219.95" width="56.12" height="20.08" fill="#68e1fd"></rect><rect x="245.01" y="219.95" width="56.12" height="20.08" fill="#68e1fd"></rect><rect x="304.13" y="219.95" width="56.12" height="20.08" fill="#68e1fd"></rect><rect x="271.66" y="126.47" width="56.12" height="20.08" fill="#68e1fd"></rect><rect x="11.69" y="80.86" width="28.16" height="158.43" fill="#68e1fd"></rect><rect x="11.69" y="80.86" width="28.16" height="158.43" fill="url(#linear-gradient-7)"></rect><path d="M292.31,177.7a19.11,19.11,0,0,1,12.62,3.78,7.66,7.66,0,0,1,2.13,2.19,7.17,7.17,0,0,1,.77,3.91,12.56,12.56,0,0,1-5.29,10c-3.27,2.15-8,2.19-11-.32s-3.77-6.49-5.41-9.93a4.75,4.75,0,0,0-1.6-2.09c-2.85-1.8-4.74-1.79-.66-4.63A17,17,0,0,1,292.31,177.7Z" transform="translate(-51.14 -71.17)" fill="url(#linear-gradient-8)"></path><path d="M230.25,176.18c2.33,2.25,3.68,3.49,6.92,3.43,5.82-.09,12.6-7.19,13.61-11.47a24.25,24.25,0,0,0,.35-8.11c-.6-5.79-2.55-11.62-6.55-15.84s-10.29-6.55-15.86-4.84C211.19,144.74,221.77,168,230.25,176.18Z" transform="translate(-51.14 -71.17)" fill="url(#linear-gradient-9)"></path><path d="M229.35,131.49a14.59,14.59,0,0,0-4.78.72c-3.31,1.13-5.88,3.71-8.32,6.21-1,1.05-2.14,2.38-1.8,3.81a3.85,3.85,0,0,0,.6,1.24,8.52,8.52,0,0,0,4.6,3.86,10.21,10.21,0,0,0,3.7.06l11.33-1.16c3-.31,8.08-.53,8.87,3.29a28.12,28.12,0,0,1,.1,4.31,7,7,0,0,0,1.2,3.66,4.89,4.89,0,0,0,3.2,2,2.89,2.89,0,0,0,1.76-.25,5.36,5.36,0,0,0,2.11-2.87,11.66,11.66,0,0,0,0-4.85,32.09,32.09,0,0,0-3.23-10.8c-.86-1.58-2.08-2-3.54-2.88s-2.82-2.22-4.36-3.16A22,22,0,0,0,229.35,131.49Z" transform="translate(-51.14 -71.17)" fill="#3e3e54"></path><path d="M248.82,158a10.9,10.9,0,0,1,.88-2.77,3.08,3.08,0,0,1,1.33-1.7,2.19,2.19,0,0,1,2.35.4,3.57,3.57,0,0,1,1.07,2.23,8.55,8.55,0,0,1-1.08,4.84,4.28,4.28,0,0,1-1,1.47,1.65,1.65,0,0,1-1.69.31,2.48,2.48,0,0,1-1-1.28,5.39,5.39,0,0,1-.79-3.5" transform="translate(-51.14 -71.17)" fill="url(#linear-gradient-10)"></path><path d="M250.68,159.52a1.56,1.56,0,0,0,.63-.67c.15-.46-.17-1-.19-1.45a1.78,1.78,0,0,1,.36-1.05c.22-.34.59-.68,1-.56a1,1,0,0,1,.54.59,4.54,4.54,0,0,1-.21,3.69,2.53,2.53,0,0,1-.85,1.11.73.73,0,0,1-.4.15,1,1,0,0,1-.41-.12c-.34-.15-.9-.39-1.05-.76C249.87,159.92,250.26,159.8,250.68,159.52Z" transform="translate(-51.14 -71.17)" fill="url(#linear-gradient-11)"></path><path d="M204.27,203.14a8.59,8.59,0,0,0,3.66,1.32,12.56,12.56,0,0,0,3.41,0c4.16-.58,7.79-3.27,10.39-6.57a3,3,0,0,0,.62-1.1c.32-1.38-1.24-2.42-2.59-2.86-4.61-1.48-9.57-1.25-14.41-1a10.83,10.83,0,0,0-3.7.64c-1.61.7-1.6,1.26-1.2,2.83C201.09,198.91,202,201.59,204.27,203.14Z" transform="translate(-51.14 -71.17)" fill="url(#linear-gradient-12)"></path></svg>