<svg id="Layer_1" data-name="Layer 1" xmlns="http://www.w3.org/2000/svg" viewBox="0 0 400 300" width="406" height="306" class="illustration"><title>_</title><path d="M289.9,66.74c32.67,10.57,58,40.26,64.59,77.39,5.54,31.3-3.66,69.78-57.34,87.64-54.79,18.23-208,27-236.49-23.72S38.17,92.2,96.59,69.12C137.54,52.93,226.09,46.11,289.9,66.74Z" fill="#e6e6e6" opacity="0.3"></path><path d="M312.42,114.57a18.27,18.27,0,0,1-18.25,18.25H95.89a18.25,18.25,0,0,1,0-36.5H294.17A18.25,18.25,0,0,1,312.42,114.57Z" fill="#e6e6e6"></path><path d="M319.83,113.93a18.27,18.27,0,0,1-18.25,18.25H103.3a18.25,18.25,0,0,1,0-36.5H301.58A18.25,18.25,0,0,1,319.83,113.93Z" fill="#e6e6e6"></path><circle cx="275.82" cy="114.57" r="18.89" fill="#ffd200"></circle><path d="M164.11,80.48a7.24,7.24,0,0,1-7.23,7.23H78.33a7.23,7.23,0,0,1,0-14.46h78.55A7.23,7.23,0,0,1,164.11,80.48Z" fill="#e6e6e6"></path><path d="M164.11,80.48a7.24,7.24,0,0,1-7.23,7.23H78.33a7.23,7.23,0,0,1,0-14.46h78.55A7.23,7.23,0,0,1,164.11,80.48Z" fill="#e6e6e6"></path><path d="M135,80.48a7.24,7.24,0,0,1-7.23,7.23H78.33a7.23,7.23,0,0,1,0-14.46h49.4A7.23,7.23,0,0,1,135,80.48Z" fill="#c9c9c9"></path><path d="M341.21,157.23a7.24,7.24,0,0,1-7.23,7.23H255.44a7.23,7.23,0,0,1,0-14.46H334A7.23,7.23,0,0,1,341.21,157.23Z" fill="#e6e6e6"></path><path d="M341.21,157.23a7.24,7.24,0,0,1-7.23,7.23H255.44a7.23,7.23,0,0,1,0-14.46H334A7.23,7.23,0,0,1,341.21,157.23Z" fill="#e6e6e6"></path><path d="M291.64,157.23a7.24,7.24,0,0,1-7.23,7.23h-29a7.23,7.23,0,0,1,0-14.46h29A7.23,7.23,0,0,1,291.64,157.23Z" fill="#c9c9c9"></path><path d="M76,232.13s-4.06,1-4.75,4.48-4.24,4-4.8.77,4.43-11,4.43-11l6.44,1Z" fill="#68e1fd"></path><path d="M252.18,113.2l-15.93,16.61a34.18,34.18,0,0,1-38.49,7.59l-17.63-7.8L162.42,160l25.63,3.84a58.64,58.64,0,0,0,57.57-25.59L258,119.58Q255,116.48,252.18,113.2Z" fill="#68e1fd"></path><path d="M252.18,113.2l-15.93,16.61a34.18,34.18,0,0,1-38.49,7.59l-17.63-7.8L162.42,160l25.63,3.84a58.64,58.64,0,0,0,57.57-25.59L258,119.58Q255,116.48,252.18,113.2Z" fill="#fff" opacity="0.46"></path><path d="M129.35,228.45s-3.14,2.76-2.12,6.18-1.87,5.55-3.88,2.91-1.22-11.81-1.22-11.81l6.16-2.12Z" fill="#68e1fd"></path><path d="M165.24,195.48l-28,20a92,92,0,0,1-49.34,17L76.29,233v-6.33l18.76-6.33a48.24,48.24,0,0,0,19-11.88l18.55-18.88Z" fill="#24285b"></path><path d="M165.24,195.48l-28,20a92,92,0,0,1-49.34,17L76.29,233v-6.33l18.76-6.33a48.24,48.24,0,0,0,19-11.88l18.55-18.88Z" opacity="0.08"></path><path d="M184.44,107.54a28.16,28.16,0,0,1,2.27,7.25,2.31,2.31,0,0,1-2.06,2.53,5.06,5.06,0,0,1-5-2.22l-2.67-3.28a4.11,4.11,0,0,1,.19-4.74C178.91,104.45,183.38,105,184.44,107.54Z" fill="#f4a28c"></path><polygon points="178.87 112.36 175.57 126.99 183.76 128.23 182.87 117.09 178.87 112.36" fill="#f4a28c"></polygon><path d="M183.44,108.11a17.61,17.61,0,0,1-4.07,1.15,3.83,3.83,0,0,1,1.45,3.93,3.11,3.11,0,0,1-3.1,2.46l-2-5.54a4.68,4.68,0,0,1,.78-4.72,17.23,17.23,0,0,1,1.52-1.57c1.35-1.22,4.07-1,5.1-2.62a1.1,1.1,0,0,1,1.89.08c.86,1.58,1.53,4.34-.4,6.09A4.28,4.28,0,0,1,183.44,108.11Z" fill="#24285b"></path><path d="M181.23,112.9s-.64-1.64-1.84-1.06-.28,3,1.49,2.56Z" fill="#f4a28c"></path><path d="M185.53,110.21l1.81,1.22a.74.74,0,0,1,0,1.24l-1.53.91Z" fill="#f4a28c"></path><path d="M182.72,117.43a5.41,5.41,0,0,1-2.87-1.2s-.19,2.76,3.18,5Z" fill="#ce8172" opacity="0.31"></path><path d="M183.76,128.23,175.57,127s-41.75-11.77-47.83,13.28-5.37,41.59-5.37,41.59l28.17,13.72S228.09,164,183.76,128.23Z" fill="#68e1fd"></path><path d="M165.58,143.89s4.54,11.31-12.57,15-17.1,15.18-5.89,15.88,27.77-5.39,27.47,7.73c0,0-13,8.94-24.05,13.12l-28.17-13.72,0-1.74-1.45-24.46,14.64-14.06Z" opacity="0.08"></path><path d="M167.23,136.59A14.6,14.6,0,0,0,151,124.33c-10.75,1.22-27,6-34.57,23.25-11.79,26.92-4.56,43.72,51.69,27.15l-1.52-6.31s-38,4.54-35.73-7.42C132.79,150.91,169.7,154.66,167.23,136.59Z" fill="#68e1fd"></path><path d="M167.23,136.59A14.6,14.6,0,0,0,151,124.33c-10.75,1.22-27,6-34.57,23.25-11.79,26.92-4.56,43.72,51.69,27.15l-1.52-6.31s-38,4.54-35.73-7.42C132.79,150.91,169.7,154.66,167.23,136.59Z" fill="#fff" opacity="0.46"></path><path d="M166.59,168.42s5.24-5.15,8.85-4.39,1.53,8.26-7.33,10.7Z" fill="#f4a28c"></path><path d="M122.37,181.86s54.62,6.87,52.23,20.56-45.72,27.37-45.72,27.37L125.45,223l28.13-20.15S106,214.14,122.37,181.86Z" fill="#24285b"></path><path d="M258,119.58s4.05-6.45,3.79-8.49-2.55.46-2.55.46,2.72-4.46,1.36-7.18-5.08,5.35-8.42,8.83Z" fill="#f4a28c"></path></svg>