<svg id="Layer_1" data-name="Layer 1" xmlns="http://www.w3.org/2000/svg" xmlns:xlink="http://www.w3.org/1999/xlink" viewBox="0 0 155.14 141.72" width="406" height="306" class="illustration"><defs><linearGradient id="linear-gradient" x1="110.86" y1="88.62" x2="105.22" y2="164.69" gradientUnits="userSpaceOnUse"><stop offset="0.01"></stop><stop offset="0.08" stop-opacity="0.69"></stop><stop offset="0.21" stop-opacity="0.32"></stop><stop offset="1" stop-opacity="0"></stop></linearGradient></defs><title>7</title><path d="M44.53,31.92a124.34,124.34,0,0,0-4.72,15.41C36.75,59.72,28.25,69.38,21.48,80c-5.6,8.75-10.16,18.89-8.93,29.21,1.36,11.35,9.74,21,19.87,26.29,11.15,5.85,26.67,9.41,38.54,4.86,19.64-7.54,41.12-7.43,61.27-13.48,9.31-2.79,18.77-6.37,25.61-13.28a33.38,33.38,0,0,0,1.67-45.12C151.66,59.25,141,55,134.56,44.23c-5.68-9.49-9.28-20.29-16.54-28.8A42.07,42.07,0,0,0,56,13.35,54.44,54.44,0,0,0,44.53,31.92Z" transform="translate(-12.35 -0.68)" fill="#68e1fd" opacity="0.18" style="isolation: isolate;"></path><rect x="37.76" y="16.44" width="55.12" height="106.59" rx="7.93" fill="#68e1fd"></rect><rect x="38.85" y="17.78" width="52.95" height="103.73" rx="7.66" fill="#473f47"></rect><path d="M102.7,27v85.61a7.32,7.32,0,0,1-7.39,7.24H60.06a7.5,7.5,0,0,1-3.68-1,7.21,7.21,0,0,1-3.72-6.28V27a7.33,7.33,0,0,1,7.4-7.25h6v1.06A3.48,3.48,0,0,0,68.24,24a3.57,3.57,0,0,0,1.35.26H86a3.54,3.54,0,0,0,3.58-3.5v-1h5.77a7.44,7.44,0,0,1,5.1,2A7.16,7.16,0,0,1,102.7,27Z" transform="translate(-12.35 -0.68)" fill="#fff"></path><path d="M102.7,27v85.61a7.32,7.32,0,0,1-7.39,7.24H60.06a7.5,7.5,0,0,1-3.68-1,7.18,7.18,0,0,1-2.28-5.23V28.05a7.32,7.32,0,0,1,7.4-7.24H66A3.48,3.48,0,0,0,68.24,24,3.62,3.62,0,0,0,71,25.31H87.41A3.54,3.54,0,0,0,91,21.8v-1h5.77a7.52,7.52,0,0,1,3.66,1A7.16,7.16,0,0,1,102.7,27Z" transform="translate(-12.35 -0.68)" fill="#68e1fd"></path><path d="M69.08,96a9.78,9.78,0,0,1,.88-4l-6-3.28A16.4,16.4,0,0,0,62.22,96a16.58,16.58,0,0,0,12.51,16.07l1.21-6.78A9.73,9.73,0,0,1,69.08,96Z" transform="translate(-12.35 -0.68)" fill="#473f47"></path><path d="M93,104.51a16.63,16.63,0,0,1-18.29,7.55l1.21-6.78a9.76,9.76,0,0,0,11-4.06Z" transform="translate(-12.35 -0.68)" fill="#fff" opacity="0.73" style="isolation: isolate;"></path><path d="M95.38,96A16.54,16.54,0,0,1,93,104.51l-6-3.29a9.72,9.72,0,1,0-17-9.28l-6-3.28A16.58,16.58,0,0,1,95.38,96Z" transform="translate(-12.35 -0.68)" fill="#fff"></path><rect x="43.43" y="38.48" width="44.18" height="32.06" rx="2.07" fill="#fff" opacity="0.73" style="isolation: isolate;"></rect><polygon points="45.47 51.9 52.52 45.34 62.23 57.05 70.73 49.61 74.25 52.64 82.15 42.08 86.16 46.92 86.16 68.11 45.47 68.11 45.47 51.9" fill="#fff"></polygon><polygon points="62.21 57.35 52.5 45.65 45.62 52.05 45.33 51.74 52.54 45.03 62.26 56.74 70.73 49.33 74.22 52.33 82.14 41.74 86.32 46.78 85.99 47.06 82.16 42.43 74.29 52.95 70.73 49.9 62.21 57.35" fill="#68e1fd"></polygon><circle cx="52.45" cy="45.36" r="0.88" fill="#68e1fd"></circle><circle cx="62.38" cy="56.99" r="0.88" fill="#68e1fd"></circle><circle cx="70.73" cy="49.61" r="0.88" fill="#68e1fd"></circle><circle cx="74.25" cy="52.64" r="0.88" fill="#68e1fd"></circle><circle cx="82.15" cy="42.08" r="0.88" fill="#68e1fd"></circle><circle cx="86.16" cy="46.92" r="0.88" fill="#68e1fd"></circle><rect x="19.63" y="62.75" width="31.94" height="31.94" rx="3.47" fill="#fff"></rect><circle cx="35.05" cy="77.64" r="9.24" fill="#68e1fd"></circle><path d="M47.39,67.43V78.72l9.93-7.17S52.8,66.51,47.39,67.43Z" transform="translate(-12.35 -0.68)" fill="#473f47"></path><path d="M118,118.5l11.59.9a3.16,3.16,0,0,1,1.57.4,2.11,2.11,0,0,1,.67,2.36,4.65,4.65,0,0,1-1.59,2.06c-4.2,3.43-10.11,3.56-15.54,3.53l-25.61-.16a7,7,0,0,1-2.91-.43,2.4,2.4,0,0,1-1.52-2.31,3.05,3.05,0,0,1,1.62-2,20.68,20.68,0,0,1,7.42-2.36q5.85-1,11.72-2" transform="translate(-12.35 -0.68)" fill="url(#linear-gradient)"></path><path d="M110.58,120.8a3.94,3.94,0,0,1-.33,1.74,2.94,2.94,0,0,1-1.26,1.18,5,5,0,0,1-3.7.36.72.72,0,0,1-.43-.25.69.69,0,0,1-.08-.37,2.79,2.79,0,0,1,1-1.74,6.07,6.07,0,0,0,1.34-1.53c.56-1.15.14-4.19,2.3-3.71C111.19,116.89,110.63,119.53,110.58,120.8Z" transform="translate(-12.35 -0.68)" fill="#a0685b"></path><path d="M110.88,122.87s.3.75-.07,1.19-4.25,2.85-6.86.91,3.54-2.19,3.54-2.19Z" transform="translate(-12.35 -0.68)" fill="#68e1fd"></path><path d="M110.73,121.11a.56.56,0,0,0-.7.18A2.3,2.3,0,0,1,108,122c-.85-.21-1.19-1.19-1.61-1.19s-2.68,1.91-2.81,2.74,1,1.43,2.3,1.51,4.16-.8,4.71-1.47A2.73,2.73,0,0,0,110.73,121.11Z" transform="translate(-12.35 -0.68)" fill="#fff"></path><path d="M118,122a3.94,3.94,0,0,1-.33,1.74,2.88,2.88,0,0,1-1.26,1.18,5,5,0,0,1-3.7.36.72.72,0,0,1-.43-.25.67.67,0,0,1-.08-.37,2.79,2.79,0,0,1,1-1.74,6.07,6.07,0,0,0,1.34-1.53c.56-1.15.14-4.19,2.3-3.7C118.59,118.07,118,120.71,118,122Z" transform="translate(-12.35 -0.68)" fill="#a0685b"></path><path d="M118.28,124.05s.3.75-.07,1.19-4.25,2.85-6.86.91,3.53-2.19,3.53-2.19Z" transform="translate(-12.35 -0.68)" fill="#68e1fd"></path><path d="M118.13,122.29a.56.56,0,0,0-.7.18,2.28,2.28,0,0,1-2.08.75c-.85-.21-1.19-1.19-1.61-1.19s-2.68,1.91-2.81,2.74,1,1.43,2.3,1.51,4.16-.8,4.71-1.47A2.73,2.73,0,0,0,118.13,122.29Z" transform="translate(-12.35 -0.68)" fill="#fff"></path><path d="M119.52,90.13s.41,22.16-1.24,29.56l-4.16.51-2.89-30.35Z" transform="translate(-12.35 -0.68)" fill="#473f47"></path><path d="M106.65,87.71s-2,12,.42,31.15l4.16.52L114.12,89Z" transform="translate(-12.35 -0.68)" fill="#473f47"></path><path d="M101.77,78.17c0,.8.31,1.5,1,1.73l.18,0c1.28.26,3-.72,4.13-1.57a17,17,0,0,0,1.39-1.13V68.68l-6.22,6.37A9.91,9.91,0,0,0,101.77,78.17Z" transform="translate(-12.35 -0.68)" fill="#fff"></path><path d="M107,78.36c0,.39,0,.8,0,1.2,0,2.22.51,4.5-.15,6.67a2.46,2.46,0,0,0-.18,1.48,1.84,1.84,0,0,0,.93.89,18.61,18.61,0,0,0,6.4,1.7c1.65.23,4,.72,5.53-.17a2.79,2.79,0,0,0,1.08-1.79,33.52,33.52,0,0,0,1-7c0-.31,0-.61.06-.92q.19-3.18.13-6.36c0-1.53-.15-3.2-1.15-4.36a11,11,0,0,0-5.88-2.93,7,7,0,0,0-1.94-.1,7.92,7.92,0,0,0-2.61.89,4.35,4.35,0,0,0-2.32,1.85,13.06,13.06,0,0,0-1.09,3.5,12.79,12.79,0,0,0-.06,3.44c.06.57.2,1.12.26,1.68C107,78.15,107,78.25,107,78.36Z" transform="translate(-12.35 -0.68)" fill="#fff"></path><path d="M116.06,90.88c.64.19,2.12-.4,2.61-.48.29-.06.56-.2.85-.27,1.47-.37,1.64-4.48,1.78-5.59a76.69,76.69,0,0,0,1-8.9,9.69,9.69,0,0,0-.39-3.35,3.86,3.86,0,0,0-2.19-2.44c-1.87-.68-2.43,5.24-2.69,6.47L115.63,83a15.28,15.28,0,0,0-.39,2.5,8.88,8.88,0,0,0,.63,3c.17.58-.3,1.7-.07,2.13A.37.37,0,0,0,116.06,90.88Z" transform="translate(-12.35 -0.68)" fill="#020202" opacity="0.1"></path><path d="M111.55,65a1.44,1.44,0,0,0,.9.45,5.08,5.08,0,0,0,.87,0h.17a.14.14,0,0,1,.17.15,10.12,10.12,0,0,1,0,1.74h0l0,.32a.61.61,0,0,0,0,.33.59.59,0,0,0,.35.23,2.67,2.67,0,0,0,.79.13,3.5,3.5,0,0,0,1.6-.56,15.49,15.49,0,0,1,.16-3A15.9,15.9,0,0,0,117,61a2.56,2.56,0,0,0-.53-1.39,2.52,2.52,0,0,0-1.89-.68,4.81,4.81,0,0,0-2.59.71,1,1,0,0,0-.39.77c-.09.5-.17,1-.23,1.51s-.1,1.16-.11,1.74A2.05,2.05,0,0,0,111.55,65Z" transform="translate(-12.35 -0.68)" fill="#a0685b"></path><path d="M112.57,59.91l.14.05a1,1,0,0,0,.39.09.37.37,0,0,0,.33-.18.26.26,0,0,0,.08.26.64.64,0,0,0,.26.13,2.07,2.07,0,0,0,.49.12.69.69,0,0,0,.46-.13c.11.14.29.21.4.35a1.82,1.82,0,0,1,.33.59,2.06,2.06,0,0,1,0,1.32c.25.09.3-.35.49-.54s.62.07.65.38a1.92,1.92,0,0,1-.27.88c-.16.36-.42,2.44.51,1.71a1.26,1.26,0,0,0,.35-.59l.53-1.47a.4.4,0,0,0,.44-.21.42.42,0,0,0-.12-.48.5.5,0,0,0,.75-.6.56.56,0,0,0,.48-.55.57.57,0,0,0-.51-.52.68.68,0,0,0-.46-1.28,1.16,1.16,0,0,0-.39-1.4,1.59,1.59,0,0,0-1-.38c-.07,0-.21,0-.26,0s-.07-.17-.1-.21a.67.67,0,0,0-.41-.29.7.7,0,0,0-.67.21,1.12,1.12,0,0,0-.75-.77.81.81,0,0,0-.93.43,1.93,1.93,0,0,0-.7-.42.92.92,0,0,0-.46-.06.88.88,0,0,0-.62.72c-.07,0-.15,0-.23-.05a.35.35,0,0,0-.41.26.45.45,0,0,0,.19.47.59.59,0,0,0-.29.27c-.05.12,0,.3.16.3a.45.45,0,0,0,.36.81.3.3,0,0,0-.24.21.69.69,0,0,0,0,.32.11.11,0,0,0,0,.08.11.11,0,0,0,.09,0c.21,0,.46,0,.57-.14,0,.09.08.16.17.19Z" transform="translate(-12.35 -0.68)" fill="#473f47"></path><path d="M113.32,65.43h.17a.14.14,0,0,1,.17.15,10.12,10.12,0,0,1,0,1.74h0a2.33,2.33,0,0,0,1.61-2.47,9.71,9.71,0,0,1-2,.58Z" transform="translate(-12.35 -0.68)" fill="#7d443c"></path><path d="M96.58,76a12.24,12.24,0,0,0,3,3,6,6,0,0,0,2.81,1,1,1,0,0,0,.39,0,1.06,1.06,0,0,0,.54-.37,3.11,3.11,0,0,0,.72-1.78c.07-1.7-1.78-2.7-1.78-2.7S98,73.71,97.54,73.93c-.27.12-.53.71-.71,1.23S96.58,76,96.58,76Z" transform="translate(-12.35 -0.68)" fill="#fff"></path><path d="M96.58,76a12.24,12.24,0,0,0,3,3,6,6,0,0,0,2.81,1,1,1,0,0,0,.39,0l.18,0c1.28.26,3-.72,4.13-1.57v0l-.4-2.56a10.1,10.1,0,0,1-2.64,2,3.68,3.68,0,0,1-2.26.42,2.24,2.24,0,0,1-.61-.18,19.87,19.87,0,0,1-4.33-2.83C96.68,75.59,96.58,76,96.58,76Z" transform="translate(-12.35 -0.68)" fill="#020202" opacity="0.1"></path><path d="M124.45,78.75a9.87,9.87,0,0,1,.82,4.68c-.28,1.92-1.56,3.53-2.79,5-1,.15-2.23.13-2.58-.79a2.31,2.31,0,0,1-.06-.91l.14-2a7.36,7.36,0,0,0-.14-2.65,11.63,11.63,0,0,0-1.49-2.63,10.17,10.17,0,0,1-1.5-4.63c-.11-1.55,1.06-6.53,3.33-5,.94.61,1.78,3.17,2.28,4.2Q123.57,76.35,124.45,78.75Z" transform="translate(-12.35 -0.68)" fill="#fff"></path><path d="M119.32,89.81a.5.5,0,0,0-.08.26c0,.09.11.18.2.14.23.71-.25,1.46-.25,2.21a.62.62,0,0,0,0,.19.5.5,0,0,0,.17.21.91.91,0,0,0,.85.05,2.28,2.28,0,0,0,.71-.53,3.56,3.56,0,0,0,1-1.44,4.22,4.22,0,0,0,.14-.79l.24-2C120.79,87.68,120,88.65,119.32,89.81Z" transform="translate(-12.35 -0.68)" fill="#a0685b"></path><path d="M96.84,72.3a.75.75,0,0,0-.22-.35.26.26,0,0,0-.36,0,.67.67,0,0,0-.07.24.46.46,0,0,1-.45.28,1.34,1.34,0,0,1-.55-.13,13.52,13.52,0,0,0-1.53-.47.59.59,0,0,0-.37,0,.52.52,0,0,0-.26.32,2,2,0,0,0,.32,1.88A3.15,3.15,0,0,0,95,75.15a7.62,7.62,0,0,0,2,.29.89.89,0,0,0,.49-.06C98.26,74.9,97.05,72.82,96.84,72.3Z" transform="translate(-12.35 -0.68)" fill="#a0685b"></path></svg>