<svg id="Layer_1" data-name="Layer 1" xmlns="http://www.w3.org/2000/svg" viewBox="0 0 400 300" width="406" height="306" class="illustration"><title>_</title><ellipse cx="200" cy="237.74" rx="163.15" ry="11.49" fill="#e6e6e6" opacity="0.45"></ellipse><path d="M307.28,68.71l-17.94,72-26.45-6.59a5.74,5.74,0,0,1-.15-6.88,10.63,10.63,0,0,0,5.17-6.69A11.42,11.42,0,0,0,245.77,115a10.67,10.67,0,0,0,1.42,8.34,5.71,5.71,0,0,1-3.36,6l-26.44-6.6L224.06,96a5.77,5.77,0,0,0-5.83-3,10.63,10.63,0,0,1-8.34,1.43,11.42,11.42,0,0,1,5.52-22.14,10.63,10.63,0,0,1,6.69,5.17,5.75,5.75,0,0,0,6.56.09l6.67-26.74Z" fill="#ccc"></path><path d="M314.93,73.94s-10.38,14.12.15,18.41S326.51,81,326.51,81l-4.75-10.49Z" fill="#ffd200"></path><path d="M318.57,84.08l13.3.43S371.79,94.79,349.42,141c-3.55,7.32-3.25,15.93-3.45,24l-.05,2.1H310.84L309,159.55a62.29,62.29,0,0,0-11.23-23.05C291,127.6,286.2,109.93,318.57,84.08Z" fill="#68e1fd"></path><path d="M312.26,64.45a33,33,0,0,0,1.52,8.69,2.67,2.67,0,0,0,3.47,1.51,5.91,5.91,0,0,0,4-5l1-4.8a4.78,4.78,0,0,0-2.71-4.8C316.32,58.31,312,61.22,312.26,64.45Z" fill="#f4a28c"></path><polygon points="322.09 65.75 326.93 82.47 317.53 84.48 317.78 71.5 322.09 65.75" fill="#f4a28c"></polygon><path d="M317.61,74.34a6.34,6.34,0,0,0,2.85-2.22s.26,3.17-2.82,6.72Z" fill="#ce8172" opacity="0.31"></path><path d="M311,56.66A5.1,5.1,0,0,0,312.26,65a14.33,14.33,0,0,0,3.92,1.3c5.71,1.1,2.89,26.25,14.93,22.71s8.17-8.76,2.71-13.44S326.07,62.17,324,57.78C322.46,54.59,314.69,53.44,311,56.66Z" fill="#ffd200"></path><polygon points="341.36 178.69 343.03 233.74 339.48 234.82 327.5 182.92 341.36 178.69" fill="#f4a28c"></polygon><path d="M342.93,232.93s2.2,2.52,4.83,2.27,3.21,3.46-1.06,3.28a24.27,24.27,0,0,1-3.95-.48,6.88,6.88,0,0,0-3.59.3,1.15,1.15,0,0,1-1.23-.43c-1.28-1.36,1.53-4.77,1.53-4.77Z" fill="#68e1fd"></path><polygon points="313.71 178.77 301.02 232.37 304.27 234.14 326.43 185.7 313.71 178.77" fill="#f4a28c"></polygon><path d="M301.28,231.6s-2.66,2-5.19,1.24-3.84,2.75.38,3.43a23.5,23.5,0,0,0,4,.32,7,7,0,0,1,3.45,1,1.16,1.16,0,0,0,1.29-.17c1.53-1.08-.54-5-.54-5Z" fill="#68e1fd"></path><path d="M330.77,102.33s-4.66,18.32,2.92,30.79-6.19,30.24-6.19,30.24l18.56-.65s1.13-17.06,5.44-31.69S330.77,102.33,330.77,102.33Z" opacity="0.08"></path><polygon points="310.08 163.97 346.06 162.71 352.54 222.54 326.93 222.54 326.51 177.86 310.08 163.97" fill="#24285b"></polygon><polygon points="310.08 163.97 292.83 220.65 317.27 222.54 331.31 171.33 310.08 163.97" fill="#24285b"></polygon><path d="M335.55,86.65a10.33,10.33,0,0,1,11.88,11.69c-1,7.57-4.62,18.72-15.39,30.9-19.6,22.14-66.61,9.86-66.61,9.86s-9.56,1.24-10.83-3.88S266,132.74,266,132.74s23,4.87,40-10.51C319.77,109.74,321.62,89,335.55,86.65Z" fill="#f4a28c"></path><path d="M248.47,161a5.75,5.75,0,0,1-1.81-6.63,10.6,10.6,0,0,0,3.4-7.75,11.42,11.42,0,0,0-22.82,0,10.64,10.64,0,0,0,3.4,7.75,5.71,5.71,0,0,1-1.8,6.63H201.58v27.26a5.7,5.7,0,0,0,6.63,1.81,10.68,10.68,0,0,1,7.75-3.4,11.42,11.42,0,0,1,0,22.82,10.64,10.64,0,0,1-7.75-3.4,5.75,5.75,0,0,0-6.63,1.81v27.26h74.15V161Z" fill="#e6e6e6"></path><path d="M226.84,198.1A11.15,11.15,0,0,1,216,209.5a10.64,10.64,0,0,1-7.75-3.4,5.75,5.75,0,0,0-6.63,1.81v27.26H127.42V161h27.43a5.77,5.77,0,0,1,1.64,6.5,10.6,10.6,0,0,0-3.4,7.74,11.42,11.42,0,0,0,22.82,0,10.6,10.6,0,0,0-3.4-7.74,5.73,5.73,0,0,1,1.64-6.5h27.43v27.26a5.7,5.7,0,0,0,6.63,1.81,10.68,10.68,0,0,1,7.75-3.4A11.16,11.16,0,0,1,226.84,198.1Z" fill="#ccc"></path><path d="M111.2,230.5s3,3,6.3,1.58,5.67,1.38,3.26,3.74-11.56,2.47-11.56,2.47l-2.68-6.2Z" fill="#68e1fd"></path><path d="M60.23,229.12s-1.49,4.08,1,6.74.92,6.06-2.07,4.59-6.52-10.35-6.52-10.35l4.44-4.95Z" fill="#68e1fd"></path><path d="M52.11,152.44s-3.2,13.32,2.36,19.87,14.08,37.58,0,53.1L60,230.93s24.38-13.1,17.43-60.34l17.4-18.15Z" fill="#24285b"></path><path d="M94.87,152.44l17.88,78.49-8.94,1.38s-17.88-53.79-29.68-64.83Z" fill="#24285b"></path><path d="M99,83.43s18.64,7.95,15.79,37.06l-18.21-1.56Z" fill="#68e1fd"></path><path d="M99,83.43s18.64,7.95,15.79,37.06l-18.21-1.56Z" fill="#fff" opacity="0.36"></path><polygon points="79.63 58.5 74.47 76.71 84.71 78.84 84.36 64.73 79.63 58.5" fill="#f4a28c"></polygon><path d="M84.57,67.82a6.93,6.93,0,0,1-3.13-2.4s-.26,3.45,3.12,7.3Z" fill="#ce8172" opacity="0.31"></path><path d="M74.47,76.71,80.54,78s27.8,3,28.93,18.68-14.58,55.78-14.58,55.78H52.77S19,72.57,74.47,76.71Z" fill="#68e1fd"></path><path d="M131.26,109.07a11.15,11.15,0,0,0,12.59,9.48,10.63,10.63,0,0,0,7.09-4.61,5.75,5.75,0,0,1,6.55.46L162,141.59,134.89,146a5.76,5.76,0,0,0-.57,6.68,10.63,10.63,0,0,1,4.62,7.09,11.42,11.42,0,0,1-22.52,3.7,10.63,10.63,0,0,1,2.1-8.2,5.76,5.76,0,0,0-2.67-6.14l-27.07,4.45-12-73.16,73.18-12,4.47,27.21a5.77,5.77,0,0,1-6.06,2.51,10.63,10.63,0,0,0-8.2-2.1A11.15,11.15,0,0,0,131.26,109.07Z" fill="#e6e6e6"></path><path d="M90.24,59s-.51,5.75-2.14,9.35a2.9,2.9,0,0,1-3.85,1.44,6.4,6.4,0,0,1-4.09-5.62l-.82-5.27a5.18,5.18,0,0,1,3.22-5.06C86.18,52.13,90.73,55.54,90.24,59Z" fill="#f4a28c"></path><path d="M62,84s14.41,8.37,11.06,27.3-8.9,25.44,3,22.8,16.77-8.61,16.77-8.61,8.55,7,0,12.27-20.15,5.28-22,14.65H52.77s-1.46-4.1-3.4-9.27S62,84,62,84Z" opacity="0.09"></path><path d="M88.79,59a22.84,22.84,0,0,1-5.18-1.33,4.81,4.81,0,0,1-.92,5.2,3.92,3.92,0,0,1-4.94.72l1.39-7.3A5.89,5.89,0,0,1,83,51.66a22,22,0,0,1,2.65-.76c2.29-.48,5.53.44,6.8,2.48a4,4,0,0,1-1.26,5.44A4.08,4.08,0,0,1,88.79,59Z" fill="#ffd200"></path><path d="M83.33,62.82s.35-2.19-1.33-2.32-2.2,3,0,3.74Z" fill="#f4a28c"></path><path d="M39.8,117.49s-2.37,24.32,9.57,25.68c9,1,23.47-4.07,32.3-6.58,3.82-1.09,5.67-1.6,8.61-4.28,3.52-3.22,8.4-5.51,4.6-8.56-6.74-5.43-11.52,3.86-11.52,3.86a75,75,0,0,1-17.29,2.88,7.06,7.06,0,0,1-7-8.88l2.23-8.38S45.48,98.4,39.8,117.49Z" fill="#f4a28c"></path><path d="M89.73,62.64l1.2,2.47a.93.93,0,0,1-.83,1.33l-2.25,0Z" fill="#f4a28c"></path><path d="M52.21,82.12C46,86.89,36.67,97.42,36.85,117.3l25.51,1.63S69.73,97.1,62,84A6.65,6.65,0,0,0,52.21,82.12Z" fill="#68e1fd"></path><path d="M52.21,82.12C46,86.89,36.67,97.42,36.85,117.3l25.51,1.63S69.73,97.1,62,84A6.65,6.65,0,0,0,52.21,82.12Z" fill="#fff" opacity="0.36"></path><path d="M133.21,110a5.74,5.74,0,0,0-1.43,3.5,3.34,3.34,0,0,0,.37,2,3,3,0,0,0,.89.88c1.39,1,3.53,1.11,4.64-.17a4.3,4.3,0,0,0,.83-2.74c0-1.14.13-3.41-.79-4.3C136.49,108,134.17,108.94,133.21,110Z" fill="#f4a28c"></path></svg>