<svg id="Layer_1" data-name="Layer 1" xmlns="http://www.w3.org/2000/svg" viewBox="0 0 400 300" width="406" height="306" class="illustration styles_illustrationTablet__1DWOa"><ellipse cx="201.26" cy="243.35" rx="157.79" ry="11" fill="#e6e6e6" opacity="0.45"></ellipse><rect x="88.46" y="46.66" width="226.16" height="146.95" fill="#24285b"></rect><polygon points="184.45 176.82 175.86 231.39 233.15 231.39 219.98 176.82 184.45 176.82" fill="#c9c9c9"></polygon><rect x="88.46" y="160.04" width="226.16" height="33.57" fill="#e6e6e6"></rect><circle cx="202.8" cy="174.82" r="9.08" fill="#a5a5a5"></circle><rect x="162.79" y="221.83" width="80.58" height="17.54" fill="#e6e6e6"></rect><circle cx="106.85" cy="61.32" r="3.96" fill="#fff"></circle><circle cx="118.62" cy="61.32" r="3.96" fill="#68e1fd"></circle><circle cx="129.72" cy="61.32" r="3.96" fill="#ffd200"></circle><rect x="78.65" y="194.02" width="8.48" height="47.98" fill="#68e1fd"></rect><rect x="124.46" y="194.02" width="8.48" height="47.98" fill="#68e1fd"></rect><rect x="78.65" y="194.02" width="8.48" height="47.98" opacity="0.08"></rect><rect x="124.46" y="194.02" width="8.48" height="47.98" opacity="0.08"></rect><rect x="68.62" y="171.43" width="74.38" height="26.24" fill="#68e1fd"></rect><polygon points="72.39 171.43 81.28 197.66 93.58 197.66 83.47 171.43 72.39 171.43" fill="#24285b"></polygon><polygon points="95.16 171.43 104.05 197.66 116.34 197.66 106.24 171.43 95.16 171.43" fill="#24285b"></polygon><polygon points="117.85 171.43 126.74 197.66 139.04 197.66 128.93 171.43 117.85 171.43" fill="#24285b"></polygon><rect x="68.62" y="207.6" width="74.38" height="12.3" fill="#68e1fd"></rect><rect x="68.62" y="207.6" width="74.38" height="12.3" fill="#fff" opacity="0.46"></rect><polygon points="201.65 76.53 160 140.32 201.65 140.32 243.29 140.32 201.65 76.53" fill="#ffd200"></polygon><rect x="198.35" y="100.26" width="5.92" height="19.18" fill="#24285b"></rect><rect x="198.35" y="123.18" width="5.92" height="5.92" fill="#24285b"></rect><path d="M284.21,239.37l12.24-56a2.5,2.5,0,0,1,4.87,0l13.3,57Z" fill="#68e1fd"></path><rect x="280.14" y="233.96" width="38.22" height="9.39" rx="4.42" fill="#68e1fd"></rect><rect x="280.14" y="233.96" width="38.22" height="9.39" rx="4.42" fill="#fff" opacity="0.46"></rect><polygon points="291.91 204.11 304.96 198.88 308.77 215.2 288.25 220.87 291.91 204.11" opacity="0.08"></polygon><path d="M286.54,244.26s5.56-8-2.73-10.2,2-13-5.72-14.38-6.43,10-6.43,10-5.33-4.59-9-.73,1.47,8.09,1.47,8.09-7.42,2.56-2.79,7.25Z" fill="#e6e6e6"></path><path d="M275.4,245.32s3.53-6,8.73-5.29,4.65,5.29,4.65,5.29Z" fill="#c9c9c9"></path></svg>