<svg id="Layer_1" data-name="Layer 1" xmlns="http://www.w3.org/2000/svg" xmlns:xlink="http://www.w3.org/1999/xlink" viewBox="0 0 362.42 292.66" width="406" height="306" class="illustration"><defs><linearGradient id="linear-gradient" x1="138.24" y1="243.61" x2="285.26" y2="127.26" gradientUnits="userSpaceOnUse"><stop offset="0.01"></stop><stop offset="0.13" stop-opacity="0.69"></stop><stop offset="0.25" stop-opacity="0.32"></stop><stop offset="1" stop-opacity="0"></stop></linearGradient><linearGradient id="linear-gradient-2" x1="144.24" y1="179.27" x2="199.85" y2="230.69" xlink:href="#linear-gradient"></linearGradient><linearGradient id="linear-gradient-3" x1="138.24" y1="204.08" x2="285.26" y2="87.73" xlink:href="#linear-gradient"></linearGradient><linearGradient id="linear-gradient-4" x1="165.18" y1="185.88" x2="184.87" y2="195.65" xlink:href="#linear-gradient"></linearGradient><linearGradient id="linear-gradient-5" x1="149.16" y1="211.48" x2="160.59" y2="185.77" xlink:href="#linear-gradient"></linearGradient><linearGradient id="linear-gradient-6" x1="137.27" y1="165.05" x2="284.3" y2="48.7" xlink:href="#linear-gradient"></linearGradient><linearGradient id="linear-gradient-7" x1="167.64" y1="125.43" x2="240.1" y2="225.85" xlink:href="#linear-gradient"></linearGradient><linearGradient id="linear-gradient-8" x1="193.98" y1="94.73" x2="203.38" y2="115.25" xlink:href="#linear-gradient"></linearGradient><linearGradient id="linear-gradient-9" x1="437.92" y1="59.74" x2="-5.86" y2="319.51" xlink:href="#linear-gradient"></linearGradient></defs><title>15</title><path d="M236.16,27.53l66.21,6.67c14.66,1.48,29.64,3,43,9.3,19.54,9.15,34,29,35.45,50.49,1.25,19.09-6.75,36.91-7.71,55.73-1,20.23,10.33,36,10.31,56.34a84.09,84.09,0,0,1-24.1,58.44c-21.56,21.74-53.46,29.92-84,31.53s-61.23-2.4-91.8-.75c-28.93,1.56-57.71,8.17-86.59,6S37.39,285.45,26,258.82c-10-23.32-3.34-51.77,5.53-74.46C38.69,166,54,157.37,63.65,140c18.07-32.66,19.07-76.6,50.22-101.2,25-19.75,60.28-17.53,92-14.33Z" transform="translate(-20.97 -9.03)" fill="#68e1fd" opacity="0.18" style="isolation: isolate;"></path><polygon points="126.67 208.48 203.62 166.68 255.55 194.86 175.12 238.88 126.67 208.48" fill="#68e1fd"></polygon><polygon points="126.67 233.93 126.67 208.48 203.62 192.13 255.55 194.86 255.55 220.31 175.12 264.32 126.67 233.93" fill="#68e1fd"></polygon><polygon points="132.4 207.97 202.51 169.88 249.83 195.56 176.54 235.67 132.4 207.97" fill="url(#linear-gradient)"></polygon><polygon points="126.67 168.94 203.62 127.15 255.55 155.33 175.12 199.34 126.67 168.94" fill="#68e1fd"></polygon><polygon points="255.56 155.33 255.56 180.77 175.12 224.79 135.74 200.08 132.71 198.17 126.68 194.39 126.68 168.94 203.63 152.59 255.56 155.33" fill="#68e1fd"></polygon><path d="M177.68,193.61c0,2.19-3.59,4.25-5.34,4.76a10.54,10.54,0,0,0-2.13.67,2,2,0,0,0-1.11,1.79c.08.64.61,1.15.75,1.78a3.2,3.2,0,0,1-.2,1.61c-.66,2.12-3.32,3.44-4,5.55-3.67-.36-5.33-.06-9-.66l-3-1.91,4.58-8.43a17.58,17.58,0,0,1,2.16-3.35,16,16,0,0,1,3.37-2.63,87.88,87.88,0,0,1,9.93-5.46C173.26,187.54,177.68,193,177.68,193.61Z" transform="translate(-20.97 -9.03)" fill="url(#linear-gradient-2)"></path><polygon points="132.4 168.44 202.51 130.35 249.83 156.03 176.54 196.14 132.4 168.44" fill="url(#linear-gradient-3)"></polygon><polygon points="125.71 155.36 125.71 129.91 202.66 113.56 254.59 116.3 254.59 141.75 174.16 185.76 125.71 155.36" fill="#68e1fd"></polygon><path d="M175.54,183.69c.38,1.2.72,2.62,0,3.63a2.88,2.88,0,0,1-1.33.94,3.66,3.66,0,0,1-3.82-.39,4.87,4.87,0,0,1-1.16-2.17,51.46,51.46,0,0,1-2-9,1.2,1.2,0,0,1,.76-1.51c1.63-.86,4.17-1.56,5.09.36C174.18,178,174.72,181.06,175.54,183.69Z" transform="translate(-20.97 -9.03)" fill="#fbc6d7"></path><path d="M170.63,185.09a2.22,2.22,0,0,0-1,.09,2,2,0,0,0-.58.5l-3.52,4c-.68.77-1.41,1.82-.93,2.73a2.1,2.1,0,0,0,1.52.9,9,9,0,0,0,4.95-1c1.09-.47,2.16-1,3.21-1.54a5.08,5.08,0,0,0,2-1.57c.8-1.23,1.05-4.17-.39-5.09-.72-.46-1.36-.13-2,.19A7,7,0,0,1,170.63,185.09Z" transform="translate(-20.97 -9.03)" fill="#68e1fd"></path><path d="M156,197.17a1.38,1.38,0,0,0,.08.67,1.32,1.32,0,0,0,.51.51,4.34,4.34,0,0,0,2.27.76,2.64,2.64,0,0,0,2.14-1,4.35,4.35,0,0,0,.66-2,22.86,22.86,0,0,0,.44-4.58.82.82,0,0,0-.19-.6.84.84,0,0,0-.41-.17c-1.27-.26-3.79-.92-4.44.63A17.92,17.92,0,0,0,156,197.17Z" transform="translate(-20.97 -9.03)" fill="#fbc6d7"></path><path d="M150.61,197a11.48,11.48,0,0,0-3.19.61,4,4,0,0,0-2.34,2.13,2.24,2.24,0,0,0-.07,1.55,3.29,3.29,0,0,0,1.73,1.63,22.2,22.2,0,0,0,11.85,2.56,4.11,4.11,0,0,0,2.88-1.05,4.5,4.5,0,0,0,.76-2.88l.14-4.8c-.92-.14-1.77.45-2.64.75-1.51.51-2.11-.72-3.36-1C154.74,196.13,152.28,196.86,150.61,197Z" transform="translate(-20.97 -9.03)" fill="#68e1fd"></path><path d="M170.63,185.09a2.22,2.22,0,0,0-1,.09,2,2,0,0,0-.58.5l-3.52,4c-.68.77-1.41,1.82-.93,2.73a2.1,2.1,0,0,0,1.52.9,9,9,0,0,0,4.95-1c1.09-.47,2.16-1,3.21-1.54a5.08,5.08,0,0,0,2-1.57c.8-1.23,1.05-4.17-.39-5.09-.72-.46-1.36-.13-2,.19A7,7,0,0,1,170.63,185.09Z" transform="translate(-20.97 -9.03)" fill="url(#linear-gradient-4)"></path><path d="M150.61,197a11.48,11.48,0,0,0-3.19.61,4,4,0,0,0-2.34,2.13,2.24,2.24,0,0,0-.07,1.55,3.29,3.29,0,0,0,1.73,1.63,22.2,22.2,0,0,0,11.85,2.56,4.11,4.11,0,0,0,2.88-1.05,4.5,4.5,0,0,0,.76-2.88l.14-4.8c-.92-.14-1.77.45-2.64.75-1.51.51-2.11-.72-3.36-1C154.74,196.13,152.28,196.86,150.61,197Z" transform="translate(-20.97 -9.03)" fill="url(#linear-gradient-5)"></path><polygon points="125.71 129.91 202.66 88.11 254.59 116.3 174.16 160.31 125.71 129.91" fill="#68e1fd"></polygon><polygon points="131.43 129.41 201.55 91.32 248.87 117 175.58 157.11 131.43 129.41" fill="url(#linear-gradient-6)"></polygon><path d="M208.9,144.92a32.36,32.36,0,0,1,6.6.11,1.58,1.58,0,0,1,.81.25,1.46,1.46,0,0,1,.45,1c.31,3-2,5.54-4.58,7.11-6.86,4.25-15.52,4.11-23.11,6.87a3.58,3.58,0,0,0-1.83,1.19,4.41,4.41,0,0,0-.44,2c-.34,4-2.56,7.6-3.3,11.54s.06,8.06-.55,12c-2.49-2.65-6.72-3.07-9.24-5.69-2.33-2.41-2.79-6-3.14-9.35l-.94-9.14a3.69,3.69,0,0,1,.09-1.72,3.57,3.57,0,0,1,1.57-1.6C182.51,152.37,195.63,146.07,208.9,144.92Z" transform="translate(-20.97 -9.03)" fill="url(#linear-gradient-7)"></path><path d="M163.64,144a5.85,5.85,0,0,0-2.78,1.41,5.57,5.57,0,0,0-1,3.84,78,78,0,0,0,5.4,28.36,2,2,0,0,0,2.86,1.53c2.12-.59,4.22-1.28,6.28-2.08l-2.79-18.43a2.66,2.66,0,0,1,.09-1.56,2.53,2.53,0,0,1,.84-.85,73.09,73.09,0,0,1,10-6.16c2.78-1.42,6-3,6.75-6.06a3.34,3.34,0,0,0-.56-3,5,5,0,0,0-1.53-1c-1.85-.91-4.19-2.08-6.32-1.86-1.7.17-2.36,1.16-3.78,1.89C173.17,142,167.93,142.75,163.64,144Z" transform="translate(-20.97 -9.03)" fill="#282328"></path><path d="M182.64,114.76c-1.37,3.77-2,7.77-3.25,11.59a7.61,7.61,0,0,1-1.39,2.77,7.73,7.73,0,0,1-3,1.8q-2.4.93-4.89,1.62c-1.1.31-2.43.81-2.55,1.94a2.09,2.09,0,0,0,.23,1.09,5.09,5.09,0,0,0,4.25,2.6,13.67,13.67,0,0,0,5.12-.84,7.53,7.53,0,0,0,3.89-2.15,8,8,0,0,0,1.26-3,85.12,85.12,0,0,1,6.95-17.16,19.79,19.79,0,0,0,2.05-4.61c.68-2.81.69-9.5-2.23-7C186.68,105.37,183.67,111.91,182.64,114.76Z" transform="translate(-20.97 -9.03)" fill="#fbc6d7"></path><path d="M193.81,143.64a39.63,39.63,0,0,1-5-2.34c-6.15-3.39-1.12-5.06.94-9.14,1.45-2.9.87-6.36.1-9.51-1.34-5.52-3.12-11.23-1.83-16.76a6.44,6.44,0,0,1,1-2.5,7.51,7.51,0,0,1,1.28-1.24,14.36,14.36,0,0,1,4.4-2.57c3.11-1,6.55-.27,9.46,1.19,11.46,5.75,13.91,20.27,13.45,31.88-.13,3.22-.62,6.63-2.7,9.09-2,2.31-5,3.41-8,3.78A27.28,27.28,0,0,1,193.81,143.64Z" transform="translate(-20.97 -9.03)" fill="#fff"></path><path d="M195.52,108.62a1.19,1.19,0,0,0,.36.85,1.08,1.08,0,0,0,.71.15,5.61,5.61,0,0,0,5.25-6.64,29.76,29.76,0,0,0-.9-2.87c-.54-1.91-.44-4.1-1.66-5.67a62.52,62.52,0,0,1-3.61,7,3.83,3.83,0,0,0-.67,3.19C195.18,106,195.35,107.29,195.52,108.62Z" transform="translate(-20.97 -9.03)" fill="#fbc6d7"></path><path d="M194.92,103.62l.46,3.1s5.27-2.6,4.58-7.44S194.92,103.62,194.92,103.62Z" transform="translate(-20.97 -9.03)" fill="url(#linear-gradient-8)"></path><path d="M188.76,100.64a5,5,0,0,0,1.63,2.5,4,4,0,0,0,1.26.54,7.53,7.53,0,0,0,8-3.75,11.06,11.06,0,0,0,.43-9.23,6.43,6.43,0,0,0-3-3.79,5.26,5.26,0,0,0-4.95.59,12,12,0,0,0-4.31,5.44C187,95.19,188,98.5,188.76,100.64Z" transform="translate(-20.97 -9.03)" fill="#fbc6d7"></path><path d="M165.63,156.87a20.05,20.05,0,0,0-3.08,5.52,110.06,110.06,0,0,0-7.76,30.38,39.91,39.91,0,0,0,9.89,0,92.65,92.65,0,0,1,3.4-21.82,14.14,14.14,0,0,1,1.78-4.32c1.47-2.11,3.87-3.34,6.17-4.49A90.15,90.15,0,0,1,192.62,156c2.42-.67,4.85-1.27,7.22-2.07a17.47,17.47,0,0,0,5.62-2.86,7.91,7.91,0,0,0,3-5.37c0,.54-12,0-13.11-.16-3.75-.4-8.18-2.55-11.88-1-2.9,1.18-5.55,3.66-8.16,5.36C172.1,152,168.2,153.9,165.63,156.87Z" transform="translate(-20.97 -9.03)" fill="#473f47"></path><polygon points="161.75 147.04 182.62 136.85 158.46 128.28 139.42 136.6 161.75 147.04" fill="#68e1fd"></polygon><path d="M211.69,112.42c.06.35.1.7.14,1,.57,5.23,0,10.38-.14,15.58-.12,3.22-.55,9.36-4,11C201.31,143.14,189,142,189,142a11,11,0,0,0-4.31.17c-.76.23-1.47.64-2.22.93-2.7,1-5.72.51-8.56,0a3.73,3.73,0,0,1-1.4-.46c-1.1-.74-1.05-2.5-.23-3.54a6.55,6.55,0,0,1,3.43-1.89,20.25,20.25,0,0,1,11.12-.43,13.7,13.7,0,0,0,1.43.39,9.88,9.88,0,0,0,1.72.12l4.36,0c5,.05,9.73.07,10.49-5.8a31.8,31.8,0,0,0,.17-6.54c-.3-4-1.33-7.85-1.12-11.79a7.82,7.82,0,0,1,.91-3.58,3.67,3.67,0,0,1,3-1.91,3.8,3.8,0,0,1,3.1,2.08A7.91,7.91,0,0,1,211.69,112.42Z" transform="translate(-20.97 -9.03)" fill="#fbc6d7"></path><polygon points="131.58 117.83 158.18 131.37 161.75 147.04 139.42 136.6 131.58 117.83" fill="#68e1fd"></polygon><path d="M196.58,94.62a16.11,16.11,0,0,1,1.67,3.25c.49-1-.28-2.7.78-3.07.63-.23,1.29.51,1.23,1.19a2.56,2.56,0,0,1-1.12,1.63c.82,2.43,3.4,3.28,5.57,4.07a13.62,13.62,0,0,1,6.07,4.69,37.73,37.73,0,0,1,4.46,8.77c.57-1,1.92-1.15,3-1.47a7.26,7.26,0,0,0,4.8-8.06,8.37,8.37,0,0,0-7.08-6.5,6.5,6.5,0,0,1-3.05-.71c-1.18-.83-1.37-2.46-1.89-3.8a7.17,7.17,0,0,0-7.67-4.36,9.69,9.69,0,0,0-.32-3.8A6.27,6.27,0,0,0,199.43,83a14.66,14.66,0,0,0-5.05-.87c-1.64-.06-3.41,0-4.69,1-1.49,1.19-1.85,3.32-1.75,5.23a2.28,2.28,0,0,0-2.26,1.49,3.65,3.65,0,0,0,.18,2.82,5.18,5.18,0,0,0,1.08,1.57c.29-.89.7-1.8,1.58-1.61s1.68,1,2.53,1.29a13.24,13.24,0,0,0,2.8.56A13.85,13.85,0,0,1,196.58,94.62Z" transform="translate(-20.97 -9.03)" fill="#fc682d"></path><polygon points="174.16 160.31 174.16 264.32 255.55 220.31 177.86 238.88 177.86 220.73 255.56 180.77 178.31 198.44 178.31 181.43 254.59 141.75 174.16 160.31" fill="url(#linear-gradient-9)"></polygon><polygon points="163.47 60.82 90.16 93 90.16 32.18 163.47 0 163.47 60.82" fill="#68e1fd"></polygon><polygon points="344.37 112.01 271.06 144.19 271.06 83.37 344.37 51.19 344.37 112.01" fill="#68e1fd"></polygon><polygon points="214.82 66.42 189.58 77.5 189.58 56.55 214.82 45.48 214.82 66.42" fill="#68e1fd"></polygon><path d="M55.7,226.23v-62l.32-.14,74.06-32.51v62l-.32.14ZM56.77,165V224.6L129,192.89V133.24Z" transform="translate(-20.97 -9.03)" fill="#68e1fd"></path><path d="M176,53.18a9,9,0,0,1-1.67,4.92,9.37,9.37,0,0,1-4,3.38l-39.18,15.6c-3.15,1.26-5.71-.42-5.71-3.75A9,9,0,0,1,127,68.4a9.34,9.34,0,0,1,4-3.37l1.33-.53a10.69,10.69,0,0,1-.42-3,17.6,17.6,0,0,1,3.3-9.71,18.25,18.25,0,0,1,8-6.65l3.33-1.33c4.35-1.73,8.12-.63,10,2.42a10,10,0,0,1,3.08-2l.85-.34c3.74-1.49,6.78.5,6.78,4.44v.36a8.71,8.71,0,0,1-.27,2.07l3.25-1.29C173.4,48.17,176,49.85,176,53.18Z" transform="translate(-20.97 -9.03)" fill="#fff"></path></svg>