<svg id="Layer_1" data-name="Layer 1" xmlns="http://www.w3.org/2000/svg" viewBox="0 0 400 300" width="406" height="306" class="illustration"><rect x="49.61" y="237.53" width="298.72" height="18.05" rx="9.03" fill="#24285b"></rect><rect x="189.88" y="184.92" width="36.4" height="52.61" fill="#ffd200"></rect><rect x="140.86" y="208.41" width="36.4" height="29.12" fill="#ffd200"></rect><rect x="91.15" y="222.97" width="36.4" height="14.56" fill="#ffd200"></rect><rect x="237.88" y="150.2" width="36.4" height="87.33" fill="#ffd200"></rect><rect x="283.84" y="111.39" width="36.4" height="126.14" fill="#ffd200"></rect><path d="M105.78,181.36S190.54,171.8,235,105.85l21.12,16.6S189,193.62,105.78,181.36Z" fill="#68e1fd"></path><polygon points="223.25 100.15 262.48 132.94 270.71 86.17 223.25 100.15" fill="#68e1fd"></polygon><circle cx="112.33" cy="104.16" r="40.25" fill="#e6e6e6"></circle><path d="M112.33,63.9v40.26l36-18S139.81,64.75,112.33,63.9Z" fill="#c1c1c1"></path><circle cx="132.03" cy="82.37" r="3.45" opacity="0.09"></circle><path d="M112.33,104.16l40.06,3.93s1.74-9.87-4-21.92Z" fill="#afafaf"></path><path d="M112.33,104.16l36.75,16.42a28.92,28.92,0,0,0,3.31-12.49Z" fill="#999"></path><path d="M112.33,104.16l31.34,25.24s3.91-4.73,5.41-8.82Z" fill="#848484"></path><path d="M132.36,82.79a.52.52,0,0,1-.33-.12A.51.51,0,0,1,132,82L150.59,60a.46.46,0,0,1,.38-.18h24a.5.5,0,0,1,0,1H151.2L132.74,82.61A.49.49,0,0,1,132.36,82.79Z" fill="#24285b"></path><rect x="169.61" y="50.63" width="42.64" height="19.4" fill="#24285b"></rect><polygon points="199.64 63.95 208.19 63.95 203.91 55.91 199.64 63.95" fill="#68e1fd"></polygon><rect x="178.54" y="56.24" width="16.85" height="2.55" rx="1.28" fill="#fff"></rect><rect x="178.54" y="61.1" width="16.85" height="2.55" rx="1.28" fill="#fff" opacity="0.15"></rect></svg>