<svg id="Layer_1" data-name="Layer 1" xmlns="http://www.w3.org/2000/svg" xmlns:xlink="http://www.w3.org/1999/xlink" viewBox="0 0 373.8 314.9" width="406" height="306" class="illustration"><defs><linearGradient id="linear-gradient" x1="48.43" y1="305.38" x2="131.08" y2="305.38" gradientUnits="userSpaceOnUse"><stop offset="0" stop-opacity="0"></stop><stop offset="0.95"></stop></linearGradient><linearGradient id="linear-gradient-2" x1="133.93" y1="197.39" x2="291.21" y2="197.39" gradientUnits="userSpaceOnUse"><stop offset="0" stop-color="#e5c5d5"></stop><stop offset="0.42" stop-color="#ead4d1"></stop><stop offset="1" stop-color="#f0e9cb"></stop></linearGradient><linearGradient id="linear-gradient-3" x1="172.86" y1="188.11" x2="102.9" y2="220.92" xlink:href="#linear-gradient"></linearGradient><linearGradient id="linear-gradient-4" x1="56.82" y1="237.12" x2="192.19" y2="197.5" xlink:href="#linear-gradient"></linearGradient><linearGradient id="linear-gradient-5" x1="175.62" y1="75.84" x2="157.04" y2="81.72" xlink:href="#linear-gradient"></linearGradient><linearGradient id="linear-gradient-6" x1="100.77" y1="125.51" x2="164.23" y2="125.51" xlink:href="#linear-gradient-2"></linearGradient><linearGradient id="linear-gradient-7" x1="147.7" y1="96.88" x2="82.69" y2="99.35" xlink:href="#linear-gradient"></linearGradient><linearGradient id="linear-gradient-8" x1="184.25" y1="242.76" x2="310.27" y2="242.76" xlink:href="#linear-gradient-2"></linearGradient><linearGradient id="linear-gradient-9" x1="273.16" y1="151.28" x2="273.16" y2="151.28" xlink:href="#linear-gradient-2"></linearGradient><linearGradient id="linear-gradient-10" x1="153.53" y1="215.08" x2="95.49" y2="247.27" xlink:href="#linear-gradient"></linearGradient></defs><title>Data Quality Checking</title><path d="M252.25,303.15c21.32-10.87,38.32-29.38,60.53-38.28,15.66-6.28,33.3-7.5,47.88-16,21-12.21,31.34-37.17,34.35-61.25,2.06-16.49,1.25-33.74-5.5-48.93-13.42-30.2-46.39-45.78-69.95-69-16.62-16.35-29-37.07-47.72-51C245.24-1,207-3.6,178,12.27c-21,11.48-36.27,30.91-53.45,47.6A256.29,256.29,0,0,1,82.17,93.12c-13.46,8.44-27.91,15.78-39.05,27.11a74.07,74.07,0,0,0-20.29,60.89c2,15.2,8.8,29.34,12.25,44.28,6.16,26.73,3.06,58.63,23.24,77.2,24.87,22.89,64.57,11,94.72,12.27C186.65,316.25,221.2,319,252.25,303.15Z" transform="translate(-22.21 -1.95)" fill="#68e1fd" opacity="0.24" style="isolation: isolate;"></path><polygon points="50.04 298.32 48.43 312.44 131.08 312.44 129.21 299.12 50.04 298.32" fill="#68e1fd"></polygon><polygon points="50.04 298.32 48.43 312.44 131.08 312.44 129.21 299.12 50.04 298.32" fill="url(#linear-gradient)"></polygon><path d="M136,145.69l33.74,79.55,86.67-34.67s4.95-4.33,4.95-.92v5.26s18.89-1.86,26-5.88,2.78,5.26.31,8.05-17.65,13.31-23.53,13-17.33,1.85-17.33,1.85-67.48,36.84-75.22,37.15-18.57-4-18.57-4l-19-96.19Z" transform="translate(-22.21 -1.95)" fill="url(#linear-gradient-2)"></path><circle cx="268.82" cy="130.43" r="86.67" fill="#68e1fd" opacity="0.24" style="isolation: isolate;"></circle><path d="M135.33,142s35,77.09,40.24,76.16,18.88-6.19,18.88-6.19,2.79,1.55,3.1,3.41,3.71,19.81,3.09,22-27.54,15.47-32.19,13.92S153,245.05,153,245.05l-15.17-49.52Z" transform="translate(-22.21 -1.95)" fill="#68e1fd"></path><path d="M135.33,142s35,77.09,40.24,76.16,18.88-6.19,18.88-6.19,2.79,1.55,3.1,3.41,3.71,19.81,3.09,22-27.54,15.47-32.19,13.92S153,245.05,153,245.05l-15.17-49.52Z" transform="translate(-22.21 -1.95)" fill="url(#linear-gradient-3)"></path><path d="M159.8,205.16a63.51,63.51,0,0,1-7.41,9.28c0,20.27.24,40.5,0,60.73,0,2,0,4-.09,6-.06,5.67-.17,11.32-.35,17a5.81,5.81,0,0,1-.57,2.9,4.94,4.94,0,0,1-2.68,2c-4.31,1.69-9.13,1.27-13.74.88q-24-2.08-48.07-2.05c-4.13,0-8.24.07-12.38.16a2.5,2.5,0,0,1-1.78-.42,2.3,2.3,0,0,1-.53-1.34c-5.21-30.13,14-60.58,8.4-90.61C79.56,204,77.65,198.56,76,193c-2.66-8.73-4.75-17.76-4.62-26.89a52,52,0,0,1,.73-7.76,38.83,38.83,0,0,1,7.65-17.81c2.44-3.06,5.58-5.74,9.39-6.64,3-.73,6-.31,9.06.13,5.8.79,11.58,1.61,17.37,2.42,6,.84,14.07,3.63,19.79,5.48,4.5,10.77,9.3,21.59,16.38,30.89,2.46,3.25,5.19,6.29,7.41,9.69a22.31,22.31,0,0,1,4,11.35A21,21,0,0,1,159.8,205.16Z" transform="translate(-22.21 -1.95)" fill="#68e1fd"></path><path d="M152.34,281.17a14.57,14.57,0,0,1-.85,2.51c-10.82-.07-22.69-.53-30.7-7.81-2.7-2.46-4.81-5.61-7.83-7.7s-7.49-2.81-10.11-.26a11,11,0,0,0-2.24,3.85q-4.86,11.87-9.74,23.74c-1,2.29-1.94,4.64-3.79,6.27a.28.28,0,0,1-.15.11c-4.13,0-8.24.07-12.38.16a2.5,2.5,0,0,1-1.78-.42,2.3,2.3,0,0,1-.53-1.34c-5.21-30.13,14-60.58,8.4-90.61C79.56,204,77.65,198.56,76,193c-2.66-8.73-4.75-17.76-4.62-26.89a52,52,0,0,1,.73-7.76c3.1-.64,6.68.51,9.67,1.91,9.54,4.44,18.38,11.06,23.68,20.17,3,5.14,4.77,10.9,6.62,16.57q4.32,13.17,9.37,26.08c5.45,13.88,11.78,27.84,22.4,38.28,3.81,3.74,7.57,8.49,8.62,13.77A14,14,0,0,1,152.34,281.17Z" transform="translate(-22.21 -1.95)" fill="url(#linear-gradient-4)"></path><path d="M130,48.54c3-3.09,7.45-4.21,11.72-4.38,6.24-.24,12.72,1.36,17.53,5.35a30.06,30.06,0,0,1,6.47,8.05,51.59,51.59,0,0,1,7.22,25.94,44.84,44.84,0,0,1-7.95,25.62c-4.48,6.34-8.38,13-15,17.07a36.56,36.56,0,0,1-22.28,5.24,4.88,4.88,0,0,1-1.65-.36,4.63,4.63,0,0,1-2-2.49,29.75,29.75,0,0,1-2-14.9,92.61,92.61,0,0,1,3.12-14.86c3.59-13.52,7-27.43,5.63-41.35C130.46,54.2,129.69,51.81,130,48.54Z" transform="translate(-22.21 -1.95)" fill="#606060"></path><path d="M130,48.54c3-3.09,7.45-4.21,11.72-4.38,6.24-.24,12.72,1.36,17.53,5.35a30.06,30.06,0,0,1,6.47,8.05,51.59,51.59,0,0,1,7.22,25.94,44.84,44.84,0,0,1-7.95,25.62c-4.48,6.34-8.38,13-15,17.07a36.56,36.56,0,0,1-22.28,5.24,4.88,4.88,0,0,1-1.65-.36,4.63,4.63,0,0,1-2-2.49,29.75,29.75,0,0,1-2-14.9,92.61,92.61,0,0,1,3.12-14.86c3.59-13.52,7-27.43,5.63-41.35C130.46,54.2,129.69,51.81,130,48.54Z" transform="translate(-22.21 -1.95)" fill="url(#linear-gradient-5)"></path><path d="M149.14,60.09c2.71,3.66,3.75,8.23,5.14,12.56s3.42,8.79,7.28,11.18c1,.6,2.1,1.14,2.52,2.2.73,1.89-1.3,3.63-1.9,5.56s.3,4.06.07,6.09c-.12,1.12-.59,2.19-.79,3.31-.22,1.3-.06,2.65-.33,3.94-.71,3.5-4.24,5.66-7.61,6.85s-7.07,2-9.69,4.38c-2.79,2.57-3.79,6.5-4.65,10.2l-5.25,22.5c-.55,2.34-1,5,.35,7,7.64,10.84,12.33,23.83,11.29,37-6.46-17.73-19.41-32.28-33-45.41-3-2.9-6.07-5.8-8.21-9.37-4.33-7.19-4.34-16.27-2.31-24.42,3.83-15.35,14.07-28.19,21-42.45,1.63-3.36,3.18-7,6.16-9.21,2.77-2.1,6.34-2.7,9.77-3.24C142.58,58.21,147,57.15,149.14,60.09Z" transform="translate(-22.21 -1.95)" fill="url(#linear-gradient-6)"></path><path d="M137.12,116.62a73,73,0,0,1-3,9.72A41.31,41.31,0,0,1,102.38,151c-10,1.44-20.79-.82-30,3.45-1.31-14.75-2.26-30.95,6.42-42.95,2.84-3.94,6.64-7.26,8.6-11.7,3.52-8,.29-17.17.71-25.87.62-12.49,9.51-24,21.21-28.42,8-3.06,18.16-3.21,26.1.33,5.78,2.58,6.74,6.58,7.38,12.47C145,78,142,97.52,137.12,116.62Z" transform="translate(-22.21 -1.95)" fill="#606060"></path><path d="M137.12,116.62a73,73,0,0,1-3,9.72A41.31,41.31,0,0,1,102.38,151c-10,1.44-20.79-.82-30,3.45-1.31-14.75-2.26-30.95,6.42-42.95,2.84-3.94,6.64-7.26,8.6-11.7,3.52-8,.29-17.17.71-25.87.62-12.49,9.51-24,21.21-28.42,8-3.06,18.16-3.21,26.1.33,5.78,2.58,6.74,6.58,7.38,12.47C145,78,142,97.52,137.12,116.62Z" transform="translate(-22.21 -1.95)" fill="url(#linear-gradient-7)"></path><path d="M230.49,240.17c6.41-1.76,12.83-3.53,19.07-5.81,12.35-4.51,23.88-11,35.35-17.39,2,2.12-1.56,6,.14,8.38a4,4,0,0,0,1.52,1.15c7.12,3.55,15.68,1.23,23.57,2.31.65,1.91-1.35,3.61-3.14,4.54-12.7,6.56-27.59,7.12-41.18,11.56-3.86,1.26-7.62,2.84-11.38,4.37q-21,8.52-42.67,15.14c-7.1,2.17-14.37,4.2-21.8,4.12a3.86,3.86,0,0,1-2.07-.44,4.07,4.07,0,0,1-1.33-2c-1.32-3.26-3.68-9.05-1.3-12.4,2.23-3.13,9.08-3.58,12.5-4.52Z" transform="translate(-22.21 -1.95)" fill="url(#linear-gradient-8)"></path><polygon points="229.49 57.91 229.49 181.73 305.02 202.16 305.02 94.02 294.9 84.02 280.76 70.1 229.49 57.91" fill="#fff"></polygon><polygon points="289.75 98.56 282.94 72.36 304.6 94.02 289.75 98.56" fill="#68e1fd"></polygon><rect x="287.12" y="86.66" width="2.2" height="48.75" transform="translate(92.03 364.3) rotate(-76.79)" fill="#68e1fd"></rect><polygon points="253.86 97.21 242.55 94.58 243.05 92.44 254.37 95.07 253.86 97.21" fill="#68e1fd"></polygon><polygon points="259.02 98.34 255.96 97.67 256.46 95.53 259.52 96.2 259.02 98.34" fill="#68e1fd"></polygon><polygon points="264.49 99.63 261.43 98.96 261.93 96.82 264.99 97.49 264.49 99.63" fill="#68e1fd"></polygon><rect x="287.12" y="98.22" width="2.2" height="48.75" transform="translate(80.78 373.21) rotate(-76.79)" fill="#68e1fd"></rect><rect x="287.12" y="109.77" width="2.2" height="48.75" transform="translate(69.53 382.13) rotate(-76.79)" fill="#68e1fd"></rect><rect x="287.12" y="121.33" width="2.2" height="48.75" transform="translate(58.28 391.04) rotate(-76.79)" fill="#68e1fd"></rect><path d="M273.16,151.28" transform="translate(-22.21 -1.95)" fill="none" stroke-miterlimit="10" stroke-width="2.2" stroke="url(#linear-gradient-9)"></path><polygon points="281.55 175.11 273.38 157.83 260.05 169.61 252.6 153.15 243.8 160.29 242.41 158.59 253.43 149.64 260.83 165.99 274.12 154.24 282.05 171.01 289 162.46 290.7 163.85 281.55 175.11" fill="#68e1fd"></polygon><path d="M85.5,177.88s36.28,89.24,49.21,98.13c14.86,10.21,66.84-6.59,66.84-6.59s-4.44-20.53-7.74-21.36-41.87,1.69-41.87,1.69l-40.16-91.87S91,144.14,84,158.38C84,158.38,80.54,169,85.5,177.88Z" transform="translate(-22.21 -1.95)" fill="#68e1fd"></path><path d="M151.94,249.75S127.59,197,127.18,195.94s24.56,23.11,24.56,23.11Z" transform="translate(-22.21 -1.95)" fill="url(#linear-gradient-10)"></path></svg>