<svg id="Layer_1" data-name="Layer 1" xmlns="http://www.w3.org/2000/svg" xmlns:xlink="http://www.w3.org/1999/xlink" viewBox="0 0 273.96 231.89" width="406" height="306" class="illustration"><defs><linearGradient id="linear-gradient" x1="128.14" y1="133.63" x2="122.41" y2="152.45" gradientUnits="userSpaceOnUse"><stop offset="0.01"></stop><stop offset="0.13" stop-opacity="0.69"></stop><stop offset="0.25" stop-opacity="0.32"></stop><stop offset="1" stop-opacity="0"></stop></linearGradient><linearGradient id="linear-gradient-2" x1="139.7" y1="160.1" x2="138.29" y2="126.45" xlink:href="#linear-gradient"></linearGradient></defs><title>23</title><path d="M191.15,10.92c-18.53,6.19-32.7,21-49.6,30.85C121.31,53.51,97.28,57.89,77.8,70.84c-20.36,13.53-34,35.49-41.5,58.75-6.43,20-8.64,41.88-2.74,62s20.74,38.29,40.68,44.94c20.49,6.83,42.74,1.12,64.32.22,29.51-1.24,59.41,6.66,88.38.91A96.56,96.56,0,0,0,287,198.15a53.43,53.43,0,0,0,8.18-16.85c1.86-7.29,1.47-14.93,1.76-22.45.69-18.32,5.49-36.27,6.8-54.56,1-13.86-.2-28.71-6.62-41.27-7.39-14.48-20.7-20.26-33.09-29.53C242.31,17.21,220,1.29,191.15,10.92Z" transform="translate(-30.12 -8)" fill="#68e1fd" opacity="0.18" style="isolation: isolate;"></path><g id="Q83r0t"><path d="M276.08,127.68a4.56,4.56,0,0,1-2.82-2.18c-.45-.79-.86-1.61-1.32-2.39a4.14,4.14,0,0,0-4.31-2.22,4.21,4.21,0,0,0-3.72,3.12c-.3.93-.53,1.87-.84,2.79a4.59,4.59,0,0,1-5.77,3c-1.74-.49-3.49-1-5.23-1.53a4.65,4.65,0,0,1-3.23-5.82c.25-.93.57-1.85.81-2.79a4.15,4.15,0,0,0-1.55-4.52,4,4,0,0,0-4.65-.45c-.81.41-1.59.88-2.4,1.3a4.73,4.73,0,0,1-6.46-2c-.92-1.64-1.83-3.28-2.72-4.94a4.58,4.58,0,0,1,1.89-6.43c.76-.43,1.55-.82,2.31-1.26a4,4,0,0,0,2.19-4.14,4.12,4.12,0,0,0-2.94-3.75c-.92-.32-1.87-.54-2.79-.84a4.65,4.65,0,0,1-3.18-6.08c.48-1.65,1-3.31,1.46-5a4.57,4.57,0,0,1,5.45-3.29c1,.2,1.93.52,2.89.8A4.25,4.25,0,0,0,244,77.73a4.2,4.2,0,0,0,.28-5c-.41-.74-.83-1.47-1.21-2.23a4.53,4.53,0,0,1,1.82-6.17c1.77-1,3.57-2,5.39-2.87a4.7,4.7,0,0,1,6.18,1.91c.47.81.89,1.66,1.37,2.46A4.05,4.05,0,0,0,262,67.94a4.11,4.11,0,0,0,3.71-3c.28-.87.5-1.75.77-2.62a4.71,4.71,0,0,1,6.13-3.26l4.86,1.43a4.68,4.68,0,0,1,3.36,5.92c-.21.85-.48,1.68-.73,2.52a4.37,4.37,0,0,0,6.34,5.11c.74-.4,1.48-.82,2.23-1.21a4.72,4.72,0,0,1,6.41,1.87q1.44,2.54,2.81,5.1a4.55,4.55,0,0,1-1.86,6.3c-.82.46-1.66.87-2.48,1.34a4,4,0,0,0-2.13,3.89,4,4,0,0,0,2.6,3.8c.95.39,2,.62,3,.93a4.28,4.28,0,0,1,3.12,5.53c-.49,1.91-1.05,3.81-1.66,5.68a4.37,4.37,0,0,1-5.78,3c-.87-.24-1.74-.54-2.62-.74a4.07,4.07,0,0,0-4.4,1.6,4,4,0,0,0-.39,4.58c.43.83.92,1.63,1.36,2.46a4.59,4.59,0,0,1-1.85,6.32c-1.69,1-3.4,1.87-5.11,2.79A4.55,4.55,0,0,1,276.08,127.68ZM250.42,90.15A15,15,0,1,0,269.1,80,15,15,0,0,0,250.42,90.15Z" transform="translate(-30.12 -8)" fill="#68e1fd"></path></g><g id="Q83r0t-2" data-name="Q83r0t"><path d="M212.56,207.31a10.42,10.42,0,0,1-7.52-3c-1.48-1.42-2.88-2.94-4.38-4.34-3.14-2.94-6.76-3.82-10.77-2.09a9.53,9.53,0,0,0-6.11,9.15c-.05,2.2.05,4.4-.05,6.59a10.37,10.37,0,0,1-10.61,10.21q-6.17,0-12.34,0a10.54,10.54,0,0,1-10.73-10.59c-.05-2.2,0-4.4,0-6.59a9.32,9.32,0,0,0-6.22-8.82,9.16,9.16,0,0,0-10.41,2c-1.5,1.4-2.89,2.92-4.38,4.34a10.71,10.71,0,0,1-15.28-.12q-4.56-4.47-9-9c-4.41-4.49-4.39-10.7,0-15.19,1.39-1.42,2.85-2.76,4.22-4.2a9.2,9.2,0,0,0,2.14-10.39,9.35,9.35,0,0,0-8.79-6.28c-2.19-.1-4.39,0-6.59-.06-6.58-.24-10.75-4.6-10.76-11.18,0-3.9,0-7.8,0-11.7a10.32,10.32,0,0,1,9.75-10.61c2.26-.19,4.54-.12,6.8-.12,4.52,0,7.75-2,9.54-6.16,1.69-3.91.75-7.7-2.57-11-1.35-1.35-2.74-2.68-4-4.07a10.29,10.29,0,0,1,0-14.57q4.82-5,9.88-9.67A10.65,10.65,0,0,1,129,80c1.54,1.46,3,3,4.55,4.48a9.16,9.16,0,0,0,10.42,1.92,9.31,9.31,0,0,0,6.16-8.86c.05-2,0-4.11,0-6.16.15-6.61,4.61-11,11.23-11h11.49c6.35,0,10.81,4.33,11,10.73.08,2,0,4,0,6a9.47,9.47,0,0,0,6.1,9.35c3.86,1.7,7.77.83,10.92-2.27,1.36-1.35,2.69-2.73,4.07-4.06a10.69,10.69,0,0,1,15.12,0q4.74,4.59,9.36,9.29a10.31,10.31,0,0,1,0,14.87c-1.48,1.53-3.06,3-4.54,4.48a9,9,0,0,0-2.16,9.82,9.16,9.16,0,0,0,8.08,6.59c2.31.25,4.67.1,7,.15,6.17.11,10.1,3.85,10.3,10,.14,4.46.15,8.93,0,13.4-.22,6.37-4.25,10.15-10.64,10.23-2,0-4.11-.07-6.16,0a9.24,9.24,0,0,0-8.55,6.28,9,9,0,0,0,2.06,10.2c1.47,1.53,3,3,4.53,4.49a10.38,10.38,0,0,1,0,14.89c-3.07,3.16-6.2,6.23-9.34,9.32A10.46,10.46,0,0,1,212.56,207.31ZM122.69,142a44.3,44.3,0,1,0,44.43-44.19A44.21,44.21,0,0,0,122.69,142Z" transform="translate(-30.12 -8)" fill="#68e1fd"></path></g><g id="Q83r0t-3" data-name="Q83r0t" opacity="0.19"><path d="M212.56,207.31a10.42,10.42,0,0,1-7.52-3c-1.48-1.42-2.88-2.94-4.38-4.34-3.14-2.94-6.76-3.82-10.77-2.09a9.53,9.53,0,0,0-6.11,9.15c-.05,2.2.05,4.4-.05,6.59a10.37,10.37,0,0,1-10.61,10.21q-6.17,0-12.34,0a10.54,10.54,0,0,1-10.73-10.59c-.05-2.2,0-4.4,0-6.59a9.32,9.32,0,0,0-6.22-8.82,9.16,9.16,0,0,0-10.41,2c-1.5,1.4-2.89,2.92-4.38,4.34a10.71,10.71,0,0,1-15.28-.12q-4.56-4.47-9-9c-4.41-4.49-4.39-10.7,0-15.19,1.39-1.42,2.85-2.76,4.22-4.2a9.2,9.2,0,0,0,2.14-10.39,9.35,9.35,0,0,0-8.79-6.28c-2.19-.1-4.39,0-6.59-.06-6.58-.24-10.75-4.6-10.76-11.18,0-3.9,0-7.8,0-11.7a10.32,10.32,0,0,1,9.75-10.61c2.26-.19,4.54-.12,6.8-.12,4.52,0,7.75-2,9.54-6.16,1.69-3.91.75-7.7-2.57-11-1.35-1.35-2.74-2.68-4-4.07a10.29,10.29,0,0,1,0-14.57q4.82-5,9.88-9.67A10.65,10.65,0,0,1,129,80c1.54,1.46,3,3,4.55,4.48a9.16,9.16,0,0,0,10.42,1.92,9.31,9.31,0,0,0,6.16-8.86c.05-2,0-4.11,0-6.16.15-6.61,4.61-11,11.23-11h11.49c6.35,0,10.81,4.33,11,10.73.08,2,0,4,0,6a9.47,9.47,0,0,0,6.1,9.35c3.86,1.7,7.77.83,10.92-2.27,1.36-1.35,2.69-2.73,4.07-4.06a10.69,10.69,0,0,1,15.12,0q4.74,4.59,9.36,9.29a10.31,10.31,0,0,1,0,14.87c-1.48,1.53-3.06,3-4.54,4.48a9,9,0,0,0-2.16,9.82,9.16,9.16,0,0,0,8.08,6.59c2.31.25,4.67.1,7,.15,6.17.11,10.1,3.85,10.3,10,.14,4.46.15,8.93,0,13.4-.22,6.37-4.25,10.15-10.64,10.23-2,0-4.11-.07-6.16,0a9.24,9.24,0,0,0-8.55,6.28,9,9,0,0,0,2.06,10.2c1.47,1.53,3,3,4.53,4.49a10.38,10.38,0,0,1,0,14.89c-3.07,3.16-6.2,6.23-9.34,9.32A10.46,10.46,0,0,1,212.56,207.31ZM122.69,142a44.3,44.3,0,1,0,44.43-44.19A44.21,44.21,0,0,0,122.69,142Z" transform="translate(-30.12 -8)" fill="#020202"></path></g><path d="M135.54,123.4a4.59,4.59,0,0,1,.72,3.2,19.13,19.13,0,0,1-.46,3.2c-.5,2.09-1.35,4.27-.69,6.31a17.8,17.8,0,0,0,2.06,3.48,6.59,6.59,0,0,1,1,4A4.4,4.4,0,0,1,136,147c-1.65-3.06-4.28-5.45-6.45-8.17s-4-6.09-3.43-9.52a8.05,8.05,0,0,1,3.62-5.44C131.17,123,134.1,121.65,135.54,123.4Z" transform="translate(-30.12 -8)" fill="#ff681c"></path><path d="M135.54,123.4a4.59,4.59,0,0,1,.72,3.2,19.13,19.13,0,0,1-.46,3.2c-.5,2.09-1.35,4.27-.69,6.31a17.8,17.8,0,0,0,2.06,3.48,6.59,6.59,0,0,1,1,4A4.4,4.4,0,0,1,136,147c-1.65-3.06-4.28-5.45-6.45-8.17s-4-6.09-3.43-9.52a8.05,8.05,0,0,1,3.62-5.44C131.17,123,134.1,121.65,135.54,123.4Z" transform="translate(-30.12 -8)" fill="#020202" opacity="0.19"></path><g id="Q83r0t-4" data-name="Q83r0t"><path d="M209.64,207.34a10.36,10.36,0,0,1-7.51-3c-1.48-1.42-2.88-2.93-4.38-4.34-3.14-2.94-6.77-3.82-10.77-2.09a9.56,9.56,0,0,0-6.12,9.15c-.05,2.2,0,4.4,0,6.59a10.39,10.39,0,0,1-10.62,10.21q-6.16,0-12.33,0a10.54,10.54,0,0,1-10.73-10.59c0-2.19.05-4.4,0-6.59a9.32,9.32,0,0,0-6.21-8.82,9.17,9.17,0,0,0-10.42,2c-1.5,1.4-2.89,2.92-4.38,4.34a10.71,10.71,0,0,1-15.28-.12c-3-3-6.06-6-9-9-4.41-4.49-4.39-10.7,0-15.19,1.39-1.42,2.86-2.76,4.23-4.2a9.19,9.19,0,0,0,2.14-10.39A9.35,9.35,0,0,0,99.37,159c-2.2-.1-4.4,0-6.6-.06C86.2,158.73,82,154.36,82,147.78c0-3.9,0-7.8,0-11.7a10.33,10.33,0,0,1,9.76-10.61c2.25-.19,4.53-.12,6.8-.12a9.61,9.61,0,0,0,9.53-6.16c1.7-3.91.76-7.7-2.57-11-1.35-1.35-2.73-2.68-4-4.07a10.27,10.27,0,0,1,0-14.56q4.8-5,9.87-9.68a10.66,10.66,0,0,1,14.66.23c1.54,1.46,3,3,4.54,4.48A9.18,9.18,0,0,0,141,86.48a9.3,9.3,0,0,0,6.16-8.87c0-2,0-4.11,0-6.16.15-6.61,4.61-11,11.24-11h11.48c6.35,0,10.81,4.33,11.06,10.73.08,2,0,4,0,6a9.47,9.47,0,0,0,6.1,9.34c3.85,1.7,7.76.83,10.91-2.27,1.37-1.34,2.69-2.73,4.07-4.06a10.71,10.71,0,0,1,15.13,0c3.15,3.06,6.28,6.15,9.35,9.29a10.32,10.32,0,0,1,0,14.87c-1.49,1.53-3.07,3-4.54,4.49a9,9,0,0,0-2.17,9.81,9.16,9.16,0,0,0,8.08,6.59c2.32.25,4.67.1,7,.15,6.17.11,10.11,3.86,10.31,10,.14,4.46.14,8.94,0,13.4C245,155.19,241,159,234.57,159.05c-2.06,0-4.12-.07-6.17,0a9.25,9.25,0,0,0-8.55,6.28,9,9,0,0,0,2.06,10.2c1.47,1.53,3.06,3,4.54,4.49a10.39,10.39,0,0,1,0,14.9c-3.06,3.15-6.2,6.22-9.33,9.31A10.43,10.43,0,0,1,209.64,207.34Zm-89.87-65.28a44.3,44.3,0,1,0,44.44-44.2A44.22,44.22,0,0,0,119.77,142.06Z" transform="translate(-30.12 -8)" fill="#68e1fd"></path></g><path d="M172.08,200a11.74,11.74,0,0,0,2.25,2.31,3.89,3.89,0,0,1,1.29,1.12,4,4,0,0,1,.3,1.17c.41,2.27,2.59,4.36,4.84,3.85l1.08-7.56a3.7,3.7,0,0,0,0-1.75,3.62,3.62,0,0,0-1-1.32,44.1,44.1,0,0,1-7-8.93,5.78,5.78,0,0,0-1.91-2.29c-.81-.47,0-1.06-.92-.8-2.42.68-4.07.64-9.69.59,0,0,1.77,2.4,2.55,3.36l4.13,5.13C168.52,195.59,171.31,200,172.08,200Z" transform="translate(-30.12 -8)" fill="#020202" opacity="0.19"></path><g id="Q83r0t-5" data-name="Q83r0t" opacity="0.27"><path d="M276.08,127.68a4.56,4.56,0,0,1-2.82-2.18c-.45-.79-.86-1.61-1.32-2.39a4.14,4.14,0,0,0-4.31-2.22,4.21,4.21,0,0,0-3.72,3.12c-.3.93-.53,1.87-.84,2.79a4.59,4.59,0,0,1-5.77,3c-1.74-.49-3.49-1-5.23-1.53a4.65,4.65,0,0,1-3.23-5.82c.25-.93.57-1.85.81-2.79a4.15,4.15,0,0,0-1.55-4.52,4,4,0,0,0-4.65-.45c-.81.41-1.59.88-2.4,1.3a4.73,4.73,0,0,1-6.46-2c-.92-1.64-1.83-3.28-2.72-4.94a4.58,4.58,0,0,1,1.89-6.43c.76-.43,1.55-.82,2.31-1.26a4,4,0,0,0,2.19-4.14,4.12,4.12,0,0,0-2.94-3.75c-.92-.32-1.87-.54-2.79-.84a4.65,4.65,0,0,1-3.18-6.08c.48-1.65,1-3.31,1.46-5a4.57,4.57,0,0,1,5.45-3.29c1,.2,1.93.52,2.89.8A4.25,4.25,0,0,0,244,77.73a4.2,4.2,0,0,0,.28-5c-.41-.74-.83-1.47-1.21-2.23a4.53,4.53,0,0,1,1.82-6.17c1.77-1,3.57-2,5.39-2.87a4.7,4.7,0,0,1,6.18,1.91c.47.81.89,1.66,1.37,2.46A4.05,4.05,0,0,0,262,67.94a4.11,4.11,0,0,0,3.71-3c.28-.87.5-1.75.77-2.62a4.71,4.71,0,0,1,6.13-3.26l4.86,1.43a4.68,4.68,0,0,1,3.36,5.92c-.21.85-.48,1.68-.73,2.52a4.37,4.37,0,0,0,6.34,5.11c.74-.4,1.48-.82,2.23-1.21a4.72,4.72,0,0,1,6.41,1.87q1.44,2.54,2.81,5.1a4.55,4.55,0,0,1-1.86,6.3c-.82.46-1.66.87-2.48,1.34a4,4,0,0,0-2.13,3.89,4,4,0,0,0,2.6,3.8c.95.39,2,.62,3,.93a4.28,4.28,0,0,1,3.12,5.53c-.49,1.91-1.05,3.81-1.66,5.68a4.37,4.37,0,0,1-5.78,3c-.87-.24-1.74-.54-2.62-.74a4.07,4.07,0,0,0-4.4,1.6,4,4,0,0,0-.39,4.58c.43.83.92,1.63,1.36,2.46a4.59,4.59,0,0,1-1.85,6.32c-1.69,1-3.4,1.87-5.11,2.79A4.55,4.55,0,0,1,276.08,127.68ZM250.42,90.15A15,15,0,1,0,269.1,80,15,15,0,0,0,250.42,90.15Z" transform="translate(-30.12 -8)" fill="#020202"></path></g><g id="Q83r0t-6" data-name="Q83r0t"><path d="M274.35,128.47a4.6,4.6,0,0,1-2.82-2.19c-.45-.79-.85-1.6-1.32-2.38a4.12,4.12,0,0,0-4.3-2.23,4.22,4.22,0,0,0-3.73,3.13c-.29.92-.52,1.87-.84,2.78a4.58,4.58,0,0,1-5.76,3q-2.62-.75-5.23-1.53a4.66,4.66,0,0,1-3.24-5.82c.25-.94.57-1.86.81-2.8a4.12,4.12,0,0,0-1.54-4.51,4.06,4.06,0,0,0-4.66-.46c-.81.41-1.59.88-2.4,1.3a4.73,4.73,0,0,1-6.46-1.94q-1.38-2.46-2.72-4.94a4.59,4.59,0,0,1,1.89-6.44c.77-.43,1.56-.82,2.31-1.25a4.08,4.08,0,0,0,2.2-4.14,4.14,4.14,0,0,0-2.95-3.76c-.92-.31-1.87-.53-2.79-.84a4.64,4.64,0,0,1-3.17-6.07q.72-2.49,1.45-5a4.56,4.56,0,0,1,5.45-3.29c1,.2,1.94.51,2.9.79a4.24,4.24,0,0,0,4.8-1.43,4.16,4.16,0,0,0,.28-5c-.4-.74-.83-1.47-1.21-2.22a4.54,4.54,0,0,1,1.82-6.17q2.65-1.52,5.39-2.88a4.72,4.72,0,0,1,6.19,1.91c.47.82.88,1.66,1.37,2.46a4,4,0,0,0,4.17,2.11,4.11,4.11,0,0,0,3.71-3c.28-.86.5-1.75.78-2.61a4.7,4.7,0,0,1,6.12-3.26l4.87,1.42a4.69,4.69,0,0,1,3.36,5.92c-.22.85-.48,1.69-.73,2.53a4.37,4.37,0,0,0,6.33,5.11c.75-.4,1.48-.83,2.23-1.22a4.72,4.72,0,0,1,6.41,1.88q1.44,2.52,2.82,5.1a4.55,4.55,0,0,1-1.87,6.29c-.81.47-1.66.88-2.48,1.34a4,4,0,0,0-2.13,3.89,4,4,0,0,0,2.61,3.8c1,.39,2,.62,3,.93a4.28,4.28,0,0,1,3.12,5.54c-.49,1.91-1,3.81-1.66,5.68a4.37,4.37,0,0,1-5.78,3c-.87-.25-1.73-.54-2.62-.75a4.08,4.08,0,0,0-4.4,1.6,4,4,0,0,0-.39,4.58c.43.84.93,1.64,1.37,2.47A4.58,4.58,0,0,1,283,125.3c-1.69,1-3.4,1.87-5.11,2.79A4.63,4.63,0,0,1,274.35,128.47ZM248.69,90.94a15,15,0,1,0,18.68-10.16A15,15,0,0,0,248.69,90.94Z" transform="translate(-30.12 -8)" fill="#68e1fd"></path></g><path d="M201.6,160.54a3.76,3.76,0,0,1,1-.68,1.08,1.08,0,0,1,1.12.17,1.21,1.21,0,0,1,.2,1.12c-.1.38-.3.74-.39,1.12a6.27,6.27,0,0,1-.24,1.06,2.7,2.7,0,0,1-1.31,1.13,22.58,22.58,0,0,0-6.12,5,3.12,3.12,0,0,1-.55.54,2.33,2.33,0,0,1-2.23-.09,11.17,11.17,0,0,1-3.7-3.35,1.13,1.13,0,0,1-.26-.48.91.91,0,0,1,.08-.49c1-2.6,3.67-1.71,5.83-2.07A14,14,0,0,0,201.6,160.54Z" transform="translate(-30.12 -8)" fill="#ffbaa8"></path><path d="M132.41,174.45s5.86,7.28,13.9,3.7,17.46-15.4,17.46-15.4S176,167.14,184.24,167l5.54.19a3.92,3.92,0,0,0,1.91-4.32s-24.27-9.12-26.57-9.36a13.84,13.84,0,0,0-8,1.33c-3.25,1.54-15.79,7.43-15.79,7.43Z" transform="translate(-30.12 -8)" fill="#473f47"></path><path d="M132.41,174.45s5.86,7.28,13.9,3.7,17.46-15.4,17.46-15.4S176,167.14,184.24,167l5.54.19a3.92,3.92,0,0,0,1.91-4.32s-24.27-9.12-26.57-9.36a13.84,13.84,0,0,0-8,1.33c-3.25,1.54-15.79,7.43-15.79,7.43Z" transform="translate(-30.12 -8)" fill="#020202" opacity="0.19"></path><path d="M134,167s-1.83,9.65,6.44,12.67,24.23.75,24.23.75,5.73,11.67,11.74,17.3l3.84,4a3.91,3.91,0,0,0,4.38-1.77s-11.09-23.44-12.57-25.21a13.91,13.91,0,0,0-6.7-4.64c-3.4-1.15-22.82-8.06-22.82-8.06Z" transform="translate(-30.12 -8)" fill="#473f47"></path><path d="M193.39,205.19a3.62,3.62,0,0,1,1.18.21,1.07,1.07,0,0,1,.69.91,1.17,1.17,0,0,1-.64.93c-.33.21-.72.33-1.05.54a6.81,6.81,0,0,1-.91.6,2.72,2.72,0,0,1-1.73-.11,22.35,22.35,0,0,0-7.85-.68,2.84,2.84,0,0,1-.77,0,2.31,2.31,0,0,1-1.54-1.62,11.14,11.14,0,0,1-.33-5,1.12,1.12,0,0,1,.15-.53,1,1,0,0,1,.4-.29c2.52-1.17,3.82,1.32,5.63,2.57A14,14,0,0,0,193.39,205.19Z" transform="translate(-30.12 -8)" fill="#ffbaa8"></path><polygon points="136.99 125 133.19 145.61 117.21 149.71 116.98 148.3 131.6 144.26 135.15 124.77 136.99 125" fill="#68e1fd"></polygon><polygon points="131.96 137.94 126.04 139.04 116.98 148.3 131.6 144.26 131.96 137.94" fill="#68e1fd"></polygon><polygon points="131.96 137.94 126.04 139.04 116.98 148.3 131.6 144.26 131.96 137.94" fill="url(#linear-gradient)"></polygon><polygon points="131.92 138.6 129.53 139.04 123.8 145.61 130.43 144.23 131.92 138.6" fill="#68e1fd"></polygon><polygon points="130.74 144.74 134.39 124.42 144.74 119.54 145.45 119.86 131.6 144.26 130.74 144.74" fill="#68e1fd"></polygon><path d="M135.33,127.44c.39.46,1.06.66,1.36,1.19s0,1.41-.13,2.13c-.18,1,.1,2-.07,3.05a1.16,1.16,0,0,1-.25.59,1.4,1.4,0,0,1-.47.28,7.41,7.41,0,0,1-2.12.48.62.62,0,0,0-.41.12.56.56,0,0,0-.12.4,11.51,11.51,0,0,0,1,5.43c.25.56.54,1.25.18,1.75a1.27,1.27,0,0,1-.51.37c-1.3.55-2.78-.24-3.87-1.14a16.13,16.13,0,0,1-2.61-2.74,2.93,2.93,0,0,1-.52-.93,3.5,3.5,0,0,1,0-1.37,22.58,22.58,0,0,0,0-4.65c-.22-2-.7-4-.25-5.93a3.08,3.08,0,0,1,.94-1.73,3.92,3.92,0,0,1,2-.68c1.44-.18,3-.25,4.18.63C133.93,125,134.85,126.87,135.33,127.44Z" transform="translate(-30.12 -8)" fill="#ffbaa8"></path><path d="M126.9,138.52s6.37,2.07,8.53,4.15,5.36,3.37,5,8.06,2.14,11.34,2.14,11.34-1.22,8.44-7.13,11.5-4.32,2.13-4.32,2.13-5.79-14.3-7.77-18.22S121.07,138.81,126.9,138.52Z" transform="translate(-30.12 -8)" fill="#fff"></path><path d="M137.5,170.45a2.2,2.2,0,0,1-.11,1.39,2.79,2.79,0,0,1-.82.82,9.11,9.11,0,0,1-2.48,1.45,3,3,0,0,1-2.75-.31,4.39,4.39,0,0,1-1-1.27,59.15,59.15,0,0,1-5.8-11.58,25.65,25.65,0,0,1-1.28-12.77l3.93,4.43a33.32,33.32,0,0,0,5.4,5.22,11.12,11.12,0,0,0,7,2.27c2.89-.2,3.12,1.59,1.89,4s-2.62,1.18-4.67.83C135.82,166.51,137.21,168.78,137.5,170.45Z" transform="translate(-30.12 -8)" fill="#020202" opacity="0.19"></path><path d="M131.05,137.64a9.48,9.48,0,0,1,.29,3,3,3,0,0,1-.28,1.18,3.1,3.1,0,0,1-.84.89,13.84,13.84,0,0,1-2.75,1.63,21.6,21.6,0,0,0-2.69,1.2l-.07.05a6.21,6.21,0,0,0-2.68,3.5c-.1.34-.9-.64-.93-.69a11.26,11.26,0,0,1-.59-1.32,15.5,15.5,0,0,1-.66-3.44c-.42-2.48-3.51-6.74-2-9.16.52-.84,1.44-1.34,2.09-2.08l0,0c1.41-1.65,1.24-4.08,2-6.11a7.19,7.19,0,0,1,3.76-4.1c2.39-1.08,7-1.06,7.23,2.43.11,1.55-.86,2.55-1.66,3.73a7.88,7.88,0,0,0-1.58,4.06C129.64,134.2,130.6,135.88,131.05,137.64Z" transform="translate(-30.12 -8)" fill="#ff681c"></path><path d="M130.45,145.87s5.36,9.4,6.21,10-6.28,6.35-6.28,6.35-6.74-8.89-7.19-13.16S126.9,142.37,130.45,145.87Z" transform="translate(-30.12 -8)" fill="#fff"></path><path d="M130.16,160.87s.8,3.18,4.75,2.46l17.55-3.15c1.1-.82,2.72-1.19,3.45-2.35.35-.55.46-1.22.79-1.79a3.66,3.66,0,0,1,2-1.49,10.1,10.1,0,0,1,2.46-.47,1.06,1.06,0,0,0-.25-1.34,2.46,2.46,0,0,0-1.4-.48,8,8,0,0,0-5.82,1.83,6.91,6.91,0,0,1-1.53,1.17,5,5,0,0,1-1.33.3c-5.12.59-10.3.34-15.41.95a8.93,8.93,0,0,0-3.46,1A4.19,4.19,0,0,0,130.16,160.87Z" transform="translate(-30.12 -8)" fill="#ffbaa8"></path><path d="M124.5,130.32c-.07,1.84.65,3.66.44,5.5a24.43,24.43,0,0,1-1,3.6c-.41,1.6-.6,3.71.28,5.19a7.59,7.59,0,0,1,.5,1,6.21,6.21,0,0,0-2.68,3.5c-.1.34-.9-.64-.93-.69a11.26,11.26,0,0,1-.59-1.32,15.5,15.5,0,0,1-.66-3.44c-.42-2.48-3.51-6.74-2-9.16.52-.84,1.44-1.34,2.09-2.08l0,0a5.52,5.52,0,0,0,.63-.55,22.19,22.19,0,0,0,2.13-3.25,9.91,9.91,0,0,1,5.17-3.92A7.11,7.11,0,0,0,124.5,130.32Z" transform="translate(-30.12 -8)" fill="#020202" opacity="0.1"></path><polygon points="145.45 119.86 135.15 124.77 131.6 144.26 133.19 145.61 141.22 139.87 145.45 119.86" fill="#68e1fd"></polygon><polygon points="145.45 119.86 135.15 124.77 131.6 144.26 133.19 145.61 141.22 139.87 145.45 119.86" fill="url(#linear-gradient-2)"></polygon><polygon points="124.43 141.2 127.2 140.9 124.64 143.92 121.76 144.04 124.43 141.2" fill="#68e1fd"></polygon></svg>