<svg id="Layer_1" data-name="Layer 1" xmlns="http://www.w3.org/2000/svg" viewBox="0 0 400 300" width="406" height="306" class="illustration"><path d="M113.59,136s9.1-42.81,32-42.81,35.08,67.3-20.62,74.62Z" fill="#f4a28c"></path><path d="M113.59,136s9.1-42.81,32-42.81,35.08,67.3-20.62,74.62Z" opacity="0.1"></path><rect x="132.82" y="46.98" width="142.47" height="176.68" fill="#24285b"></rect><rect x="146.61" y="57.7" width="114.38" height="151.15" fill="#fff"></rect><rect x="173.67" y="36.36" width="62.3" height="26.45" fill="#ffd200"></rect><rect x="197.84" y="125.5" width="28.26" height="6.23" fill="#a8a8a8" opacity="0.21"></rect><rect x="197.84" y="137.88" width="44.77" height="6.23" fill="#a8a8a8" opacity="0.21"></rect><rect x="197.84" y="165.56" width="28.26" height="6.23" fill="#a8a8a8" opacity="0.21"></rect><rect x="197.84" y="177.95" width="44.77" height="6.23" fill="#a8a8a8" opacity="0.21"></rect><rect x="161.16" y="81.96" width="25.53" height="25.53" fill="#68e1fd"></rect><rect x="161.16" y="121.79" width="25.53" height="25.53" fill="#68e1fd"></rect><rect x="161.16" y="161.62" width="25.53" height="25.53" fill="#68e1fd"></rect><polyline points="169.75 94.69 172.76 99.08 179 91" fill="none" stroke="#fff" stroke-linecap="round" stroke-linejoin="round" stroke-width="4"></polyline><polyline points="169.75 134.46 172.76 138.85 179 130.76" fill="none" stroke="#fff" stroke-linecap="round" stroke-linejoin="round" stroke-width="4"></polyline><path d="M206.88,163.46,203.12,170l12.66-1.61,13.42-4.88s6.87,11,18.37,17.52A60,60,0,0,1,275,212.89l.32.89v-61L257.7,134.31Z" opacity="0.1"></path><polyline points="169.75 174.52 172.76 178.91 179 170.83" fill="none" stroke="#fff" stroke-linecap="round" stroke-linejoin="round" stroke-width="4"></polyline><path d="M273.38,131S259,118.11,237.71,127c-16.67,7-8.78,15.23.18,14.88s24-6.46,22.95,8.42c-.95,13.11-17.21-5.74-26.53-5s-8.25,11.33,3.23,17.14,27.6,18.39,40.15,8.51S286.65,143.52,273.38,131Z" fill="#f4a28c"></path><rect x="248.68" y="94.05" width="10.22" height="89.26" transform="translate(268.85 -150.14) rotate(64.33)" fill="#68e1fd"></rect><polygon points="269.62 174.63 319.97 256.6 361.05 221.53 288.8 150.51 269.62 174.63" fill="#68e1fd"></polygon><polygon points="211.35 153.41 200.61 164.49 215.78 162.62 211.35 153.41" fill="#24285b"></polygon><path d="M131.53,120.05s17.68-18.07,25.31-16.47c6.3,1.33,6.31,13.86-7.42,24.3a24.33,24.33,0,0,0-9.65,17.76c-.39,5.83-2.32,12.77-8.24,18-12.45,11-21.69,1.42-20.49-13.46S113.05,130.9,131.53,120.05Z" fill="#f4a28c"></path><polygon points="138.41 161.28 131.76 253.23 77.26 242.78 104.67 151.05 138.41 161.28" fill="#68e1fd"></polygon><rect x="197.84" y="84.77" width="28.26" height="6.23" fill="#a8a8a8" opacity="0.21"></rect><rect x="197.84" y="97.15" width="44.77" height="6.23" fill="#a8a8a8" opacity="0.21"></rect><polygon points="110.49 249.15 122.3 156.4 138.41 161.28 131.76 253.23 110.49 249.15" opacity="0.1"></polygon><polygon points="269.62 174.63 278.5 163.46 338.14 241.09 319.97 256.6 269.62 174.63" opacity="0.1"></polygon></svg>