<svg id="Layer_1" data-name="Layer 1" xmlns="http://www.w3.org/2000/svg" viewBox="0 0 400 300" width="406" height="306" class="illustration"><path d="M165.5,65.76s-11.6,23.28-40.32,18-50.33,19-50.33,19,18.71,46.64,21.08,53c0,0,10-19,43.48-16.6s44.35-9.67,47.87-17.88Z" fill="#68e1fd"></path><ellipse cx="205.83" cy="229.46" rx="95.4" ry="13.35" fill="#e6e6e6" opacity="0.3"></ellipse><rect x="196.74" y="50.86" width="4.91" height="184.43" transform="translate(438.4 197.18) rotate(157.06)" fill="#e6e6e6"></rect><path d="M234.5,65.76s11.6,23.28,40.32,18,50.33,19,50.33,19-18.71,46.64-21.08,53c0,0-10-19-43.48-16.6s-44.35-9.67-47.87-17.88Z" fill="#ffd200"></path><rect x="198.35" y="50.86" width="4.91" height="184.43" transform="translate(71.65 -66.96) rotate(22.94)" fill="#e6e6e6"></rect><path d="M265.82,214.21s-10.58-2.89-12.88-12.73c0,0,16.38-3.31,16.85,13.6Z" fill="#68e1fd" opacity="0.58"></path><path d="M267.11,213.16s-7.38-11.68-.88-22.6c0,0,12.45,7.91,6.92,22.62Z" fill="#68e1fd" opacity="0.73"></path><path d="M269,213.17s3.9-12.33,15.69-14.67c0,0,2.22,8-7.63,14.7Z" fill="#68e1fd"></path><polygon points="261.35 212.89 263.49 227.55 276.99 227.61 278.98 212.96 261.35 212.89" fill="#24285b"></polygon></svg>