<svg id="_0160_data_arranging" data-name="0160_data_arranging" xmlns="http://www.w3.org/2000/svg" viewBox="10 70 480 360" data-imageid="data-center-1-92" imagename="Data Center 1" class="illustrations_image"><g id="document_data-center-1-92"><path fill="#f7f7f7" d="M431.57,162.38V359.92a11.82,11.82,0,0,1-11.82,11.82H80.25a11.82,11.82,0,0,1-11.82-11.82v-215a16.64,16.64,0,0,1,16.65-16.65H217.8a16.62,16.62,0,0,1,11.25,4.38l19.55,17.92H419.75A11.82,11.82,0,0,1,431.57,162.38Z"></path><path fill="#093f68" d="M419.75,373.6H80.25a13.7,13.7,0,0,1-13.68-13.68v-215A18.53,18.53,0,0,1,85.08,126.4H217.8a18.41,18.41,0,0,1,12.51,4.88l19,17.42H419.75a13.7,13.7,0,0,1,13.68,13.68V359.92A13.7,13.7,0,0,1,419.75,373.6ZM85.08,130.12a14.8,14.8,0,0,0-14.79,14.79v215a10,10,0,0,0,10,10h339.5a10,10,0,0,0,10-10V162.38a10,10,0,0,0-10-10H248.6a1.88,1.88,0,0,1-1.26-.49L227.79,134a14.72,14.72,0,0,0-10-3.89Z"></path><path fill="#68e1fd" d="M431.57,162.38v7.74H68.43V144.91a16.64,16.64,0,0,1,16.65-16.65H217.8a16.62,16.62,0,0,1,11.25,4.38l19.55,17.92H419.75A11.82,11.82,0,0,1,431.57,162.38Z"></path><path fill="#093f68" d="M431.57,172H68.43a1.86,1.86,0,0,1-1.86-1.86V144.91A18.53,18.53,0,0,1,85.08,126.4H217.8a18.41,18.41,0,0,1,12.51,4.88l19,17.42H419.75a13.7,13.7,0,0,1,13.68,13.68v7.74A1.86,1.86,0,0,1,431.57,172ZM70.29,168.26H429.71v-5.88a10,10,0,0,0-10-10H248.6a1.88,1.88,0,0,1-1.26-.49L227.79,134a14.72,14.72,0,0,0-10-3.89H85.08a14.8,14.8,0,0,0-14.79,14.79Z"></path></g><g id="files-1_data-center-1-92"><path fill="#68e1fd" d="M185,319.37H114.36a3.64,3.64,0,0,1-3.65-3.65V250.56L128,232H185a3.64,3.64,0,0,1,3.64,3.64v80.09A3.64,3.64,0,0,1,185,319.37Z"></path><path fill="#093f68" d="M185,321.23H114.36a5.51,5.51,0,0,1-5.51-5.51V250.56a1.84,1.84,0,0,1,.5-1.26l17.26-18.58a1.88,1.88,0,0,1,1.37-.59H185a5.51,5.51,0,0,1,5.5,5.5v80.09A5.51,5.51,0,0,1,185,321.23Zm-72.46-69.94v64.43a1.79,1.79,0,0,0,1.79,1.79H185a1.79,1.79,0,0,0,1.78-1.79V235.63a1.78,1.78,0,0,0-1.78-1.78H128.78Z"></path><polygon fill="#f7f7f7" points="110.71 250.56 127.72 250.56 127.72 231.99 110.71 250.56"></polygon><path fill="#093f68" d="M127.71,252.42h-17a1.86,1.86,0,0,1-1.37-3.11l17-18.58a1.87,1.87,0,0,1,2-.47,1.85,1.85,0,0,1,1.18,1.73v18.57A1.86,1.86,0,0,1,127.71,252.42Zm-12.78-3.72h10.93V236.77Z"></path><path fill="#fff" d="M174.55,266.29H125.36a1.86,1.86,0,1,1,0-3.72h49.19a1.86,1.86,0,0,1,0,3.72Z"></path><path fill="#fff" d="M174.55,278.38H125.36a1.86,1.86,0,1,1,0-3.72h49.19a1.86,1.86,0,0,1,0,3.72Z"></path><path fill="#fff" d="M174.55,290.47H125.36a1.86,1.86,0,1,1,0-3.71h49.19a1.86,1.86,0,0,1,0,3.71Z"></path><path fill="#fff" d="M160.42,302.56H125.36a1.86,1.86,0,1,1,0-3.71h35.06a1.86,1.86,0,1,1,0,3.71Z"></path><path fill="#68e1fd" d="M175.61,306.7H104.94a3.65,3.65,0,0,1-3.65-3.65V237.89l17.27-18.58h57.05a3.65,3.65,0,0,1,3.64,3.65v80.09A3.65,3.65,0,0,1,175.61,306.7Z"></path><path fill="#093f68" d="M175.61,308.55H104.94a5.51,5.51,0,0,1-5.51-5.5V237.89a1.88,1.88,0,0,1,.5-1.27l17.27-18.57a1.85,1.85,0,0,1,1.36-.6h57.05a5.51,5.51,0,0,1,5.5,5.51v80.09A5.51,5.51,0,0,1,175.61,308.55Zm-72.46-69.93v64.43a1.79,1.79,0,0,0,1.79,1.79h70.67a1.8,1.8,0,0,0,1.79-1.79V223a1.79,1.79,0,0,0-1.79-1.79H119.37Z"></path><polygon fill="#f7f7f7" points="101.29 237.89 118.3 237.89 118.3 219.31 101.29 237.89"></polygon><path fill="#093f68" d="M118.3,239.75h-17a1.86,1.86,0,0,1-1.37-3.12l17-18.57a1.86,1.86,0,0,1,3.23,1.25v18.58A1.86,1.86,0,0,1,118.3,239.75ZM105.51,236h10.93V224.1Z"></path><path fill="#fff" d="M165.13,253.61H115.94a1.86,1.86,0,1,1,0-3.71h49.19a1.86,1.86,0,0,1,0,3.71Z"></path><path fill="#fff" d="M165.13,265.71H115.94a1.86,1.86,0,0,1,0-3.72h49.19a1.86,1.86,0,0,1,0,3.72Z"></path><path fill="#fff" d="M165.13,277.8H115.94a1.86,1.86,0,1,1,0-3.72h49.19a1.86,1.86,0,0,1,0,3.72Z"></path><path fill="#fff" d="M151,289.89H115.94a1.86,1.86,0,1,1,0-3.72H151a1.86,1.86,0,0,1,0,3.72Z"></path><path fill="#fff" d="M166.19,294H95.52a3.65,3.65,0,0,1-3.65-3.65V225.21l17.27-18.57h57.05a3.65,3.65,0,0,1,3.65,3.65v80.08A3.65,3.65,0,0,1,166.19,294Z"></path><path fill="#093f68" d="M166.19,295.88H95.52A5.51,5.51,0,0,1,90,290.37V225.22a1.86,1.86,0,0,1,.5-1.27l17.27-18.58a1.84,1.84,0,0,1,1.36-.59h57.05a5.51,5.51,0,0,1,5.5,5.51v80.08A5.51,5.51,0,0,1,166.19,295.88ZM93.73,225.94v64.43a1.79,1.79,0,0,0,1.79,1.79h70.67a1.79,1.79,0,0,0,1.79-1.79V210.29a1.79,1.79,0,0,0-1.79-1.79H110Z"></path><polygon fill="#68e1fd" points="91.87 225.22 108.88 225.22 108.88 206.64 91.87 225.22"></polygon><path fill="#093f68" d="M108.88,227.07h-17a1.86,1.86,0,0,1-1.7-1.11,1.88,1.88,0,0,1,.33-2l17-18.58a1.86,1.86,0,0,1,3.23,1.26v18.58A1.85,1.85,0,0,1,108.88,227.07Zm-12.79-3.71H107V211.42Z"></path><path fill="#dfeaef" d="M155.71,240.94H106.52a1.86,1.86,0,0,1,0-3.72h49.19a1.86,1.86,0,0,1,0,3.72Z"></path><path fill="#dfeaef" d="M155.71,253H106.52a1.86,1.86,0,0,1,0-3.72h49.19a1.86,1.86,0,0,1,0,3.72Z"></path><path fill="#dfeaef" d="M155.71,265.12H106.52a1.86,1.86,0,1,1,0-3.71h49.19a1.86,1.86,0,1,1,0,3.71Z"></path><path fill="#dfeaef" d="M141.58,277.22H106.52a1.86,1.86,0,1,1,0-3.72h35.06a1.86,1.86,0,0,1,0,3.72Z"></path><path fill="#dfeaef" d="M178,347.56H121.7a1.86,1.86,0,1,1,0-3.72H178a1.86,1.86,0,0,1,0,3.72Z"></path></g><g id="files-2_data-center-1-92"><path fill="#68e1fd" fill-opacity="0.7" d="M295.34,319.37H224.67a3.65,3.65,0,0,1-3.65-3.65V250.56L238.29,232h57a3.65,3.65,0,0,1,3.65,3.64v80.09A3.65,3.65,0,0,1,295.34,319.37Z"></path><path fill="#093f68" d="M295.34,321.23H224.67a5.51,5.51,0,0,1-5.51-5.51V250.56a1.84,1.84,0,0,1,.5-1.26l17.27-18.58a1.84,1.84,0,0,1,1.36-.59h57a5.51,5.51,0,0,1,5.51,5.5v80.09A5.51,5.51,0,0,1,295.34,321.23Zm-72.46-69.94v64.43a1.79,1.79,0,0,0,1.79,1.79h70.67a1.79,1.79,0,0,0,1.79-1.79V235.63a1.79,1.79,0,0,0-1.79-1.78H239.1Z"></path><polygon fill="#f7f7f7" points="221.02 250.56 238.03 250.56 238.03 231.99 221.02 250.56"></polygon><path fill="#093f68" d="M238,252.42H221a1.86,1.86,0,0,1-1.37-3.11l17-18.58a1.86,1.86,0,0,1,3.23,1.26v18.57A1.86,1.86,0,0,1,238,252.42Zm-12.79-3.72h10.93V236.77Z"></path><path fill="#fff" d="M284.86,266.29H235.67a1.86,1.86,0,0,1,0-3.72h49.19a1.86,1.86,0,0,1,0,3.72Z"></path><path fill="#fff" d="M284.86,278.38H235.67a1.86,1.86,0,0,1,0-3.72h49.19a1.86,1.86,0,1,1,0,3.72Z"></path><path fill="#fff" d="M284.86,290.47H235.67a1.86,1.86,0,0,1,0-3.71h49.19a1.86,1.86,0,1,1,0,3.71Z"></path><path fill="#fff" d="M270.73,302.56H235.67a1.86,1.86,0,0,1,0-3.71h35.06a1.86,1.86,0,1,1,0,3.71Z"></path><path fill="#68e1fd" fill-opacity="0.7" d="M285.92,306.7H215.25a3.65,3.65,0,0,1-3.64-3.65V237.89l17.26-18.58h57.05a3.65,3.65,0,0,1,3.65,3.65v80.09A3.65,3.65,0,0,1,285.92,306.7Z"></path><path fill="#093f68" d="M285.92,308.55H215.25a5.51,5.51,0,0,1-5.5-5.5V237.89a1.92,1.92,0,0,1,.49-1.27l17.27-18.57a1.85,1.85,0,0,1,1.36-.6h57.05a5.51,5.51,0,0,1,5.51,5.51v80.09A5.51,5.51,0,0,1,285.92,308.55Zm-72.46-69.93v64.43a1.8,1.8,0,0,0,1.79,1.79h70.67a1.79,1.79,0,0,0,1.79-1.79V223a1.79,1.79,0,0,0-1.79-1.79H229.68Z"></path><polygon fill="#f7f7f7" points="211.6 237.89 228.61 237.89 228.61 219.31 211.6 237.89"></polygon><path fill="#093f68" d="M228.61,239.75h-17a1.86,1.86,0,0,1-1.37-3.12l17-18.57a1.86,1.86,0,0,1,3.23,1.25v18.58A1.86,1.86,0,0,1,228.61,239.75ZM215.83,236h10.92V224.1Z"></path><path fill="#fff" d="M275.44,253.61H226.26a1.86,1.86,0,1,1,0-3.71h49.18a1.86,1.86,0,1,1,0,3.71Z"></path><path fill="#fff" d="M275.44,265.71H226.26a1.86,1.86,0,0,1,0-3.72h49.18a1.86,1.86,0,1,1,0,3.72Z"></path><path fill="#fff" d="M275.44,277.8H226.26a1.86,1.86,0,1,1,0-3.72h49.18a1.86,1.86,0,0,1,0,3.72Z"></path><path fill="#fff" d="M261.31,289.89H226.26a1.86,1.86,0,1,1,0-3.72h35.05a1.86,1.86,0,1,1,0,3.72Z"></path><path fill="#fff" d="M276.5,294H205.83a3.64,3.64,0,0,1-3.64-3.65V225.21l17.26-18.57H276.5a3.64,3.64,0,0,1,3.65,3.65v80.08A3.64,3.64,0,0,1,276.5,294Z"></path><path fill="#093f68" d="M276.5,295.88H205.83a5.51,5.51,0,0,1-5.5-5.51V225.22a1.86,1.86,0,0,1,.5-1.27l17.26-18.58a1.85,1.85,0,0,1,1.36-.59H276.5a5.51,5.51,0,0,1,5.51,5.51v80.08A5.51,5.51,0,0,1,276.5,295.88Zm-72.45-69.94v64.43a1.79,1.79,0,0,0,1.78,1.79H276.5a1.79,1.79,0,0,0,1.79-1.79V210.29a1.79,1.79,0,0,0-1.79-1.79H220.26Z"></path><polygon fill="#68e1fd" fill-opacity="0.7" points="202.19 225.22 219.19 225.22 219.19 206.64 202.19 225.22"></polygon><path fill="#093f68" d="M219.19,227.07h-17a1.86,1.86,0,0,1-1.37-3.11l17-18.58a1.86,1.86,0,0,1,3.23,1.26v18.58A1.85,1.85,0,0,1,219.19,227.07Zm-12.78-3.71h10.92V211.42Z"></path><path fill="#dfeaef" d="M266,240.94H216.84a1.86,1.86,0,0,1,0-3.72H266a1.86,1.86,0,1,1,0,3.72Z"></path><path fill="#dfeaef" d="M266,253H216.84a1.86,1.86,0,0,1,0-3.72H266a1.86,1.86,0,1,1,0,3.72Z"></path><path fill="#dfeaef" d="M266,265.12H216.84a1.86,1.86,0,1,1,0-3.71H266a1.86,1.86,0,1,1,0,3.71Z"></path><path fill="#dfeaef" d="M251.89,277.22h-35a1.86,1.86,0,0,1,0-3.72h35a1.86,1.86,0,0,1,0,3.72Z"></path><path fill="#dfeaef" d="M284.73,347.56H228.48a1.86,1.86,0,1,1,0-3.72h56.25a1.86,1.86,0,0,1,0,3.72Z"></path></g><g id="files-3_data-center-1-92"><path fill="#68e1fd" fill-opacity="0.45" d="M405.65,319.37H335a3.64,3.64,0,0,1-3.65-3.65V250.56L348.61,232h57a3.64,3.64,0,0,1,3.65,3.64v80.09A3.64,3.64,0,0,1,405.65,319.37Z"></path><path fill="#093f68" d="M405.66,321.23H335a5.51,5.51,0,0,1-5.5-5.51V250.56a1.84,1.84,0,0,1,.5-1.26l17.26-18.58a1.87,1.87,0,0,1,1.36-.59h57.06a5.51,5.51,0,0,1,5.5,5.5v80.09A5.51,5.51,0,0,1,405.66,321.23ZM333.2,251.29v64.43a1.79,1.79,0,0,0,1.78,1.79h70.68a1.79,1.79,0,0,0,1.78-1.79V235.63a1.78,1.78,0,0,0-1.78-1.78H349.41Z"></path><polygon fill="#f7f7f7" points="331.34 250.56 348.34 250.56 348.34 231.99 331.34 250.56"></polygon><path fill="#093f68" d="M348.34,252.42h-17a1.86,1.86,0,0,1-1.37-3.11l17-18.58a1.87,1.87,0,0,1,2-.47A1.85,1.85,0,0,1,350.2,232v18.57A1.86,1.86,0,0,1,348.34,252.42Zm-12.78-3.72h10.92V236.77Z"></path><path fill="#fff" d="M395.17,266.29H346a1.86,1.86,0,0,1,0-3.72h49.18a1.86,1.86,0,0,1,0,3.72Z"></path><path fill="#fff" d="M395.17,278.38H346a1.86,1.86,0,0,1,0-3.72h49.18a1.86,1.86,0,0,1,0,3.72Z"></path><path fill="#fff" d="M395.17,290.47H346a1.86,1.86,0,1,1,0-3.71h49.18a1.86,1.86,0,1,1,0,3.71Z"></path><path fill="#fff" d="M381.05,302.56H346a1.86,1.86,0,1,1,0-3.71h35.06a1.86,1.86,0,0,1,0,3.71Z"></path><path fill="#68e1fd" fill-opacity="0.45" d="M396.24,306.7H325.57a3.65,3.65,0,0,1-3.65-3.65V237.89l17.27-18.58h57.05a3.65,3.65,0,0,1,3.64,3.65v80.09A3.65,3.65,0,0,1,396.24,306.7Z"></path><path fill="#093f68" d="M396.24,308.55H325.57a5.51,5.51,0,0,1-5.51-5.5V237.89a1.88,1.88,0,0,1,.5-1.27l17.27-18.57a1.85,1.85,0,0,1,1.36-.6h57.05a5.51,5.51,0,0,1,5.5,5.51v80.09A5.51,5.51,0,0,1,396.24,308.55Zm-72.46-69.93v64.43a1.79,1.79,0,0,0,1.79,1.79h70.67a1.79,1.79,0,0,0,1.78-1.79V223a1.79,1.79,0,0,0-1.78-1.79H340Z"></path><polygon fill="#f7f7f7" points="321.92 237.89 338.93 237.89 338.93 219.31 321.92 237.89"></polygon><path fill="#093f68" d="M338.92,239.75h-17a1.86,1.86,0,0,1-1.37-3.12l17-18.57a1.86,1.86,0,0,1,3.23,1.25v18.58A1.86,1.86,0,0,1,338.92,239.75ZM326.14,236h10.93V224.1Z"></path><path fill="#fff" d="M385.76,253.61H336.57a1.86,1.86,0,1,1,0-3.71h49.19a1.86,1.86,0,0,1,0,3.71Z"></path><path fill="#fff" d="M385.76,265.71H336.57a1.86,1.86,0,0,1,0-3.72h49.19a1.86,1.86,0,0,1,0,3.72Z"></path><path fill="#fff" d="M385.76,277.8H336.57a1.86,1.86,0,0,1,0-3.72h49.19a1.86,1.86,0,0,1,0,3.72Z"></path><path fill="#fff" d="M371.63,289.89H336.57a1.86,1.86,0,0,1,0-3.72h35.06a1.86,1.86,0,1,1,0,3.72Z"></path><path fill="#fff" d="M386.82,294H316.15a3.64,3.64,0,0,1-3.65-3.65V225.21l17.27-18.57h57.05a3.64,3.64,0,0,1,3.64,3.65v80.08A3.64,3.64,0,0,1,386.82,294Z"></path><path fill="#093f68" d="M386.82,295.88H316.15a5.51,5.51,0,0,1-5.51-5.51V225.22a1.86,1.86,0,0,1,.5-1.27l17.27-18.58a1.84,1.84,0,0,1,1.36-.59h57.05a5.51,5.51,0,0,1,5.5,5.51v80.08A5.51,5.51,0,0,1,386.82,295.88Zm-72.46-69.94v64.43a1.79,1.79,0,0,0,1.79,1.79h70.67a1.79,1.79,0,0,0,1.79-1.79V210.29a1.79,1.79,0,0,0-1.79-1.79H330.58Z"></path><polygon fill="#68e1fd" fill-opacity="0.45" points="312.5 225.22 329.51 225.22 329.51 206.64 312.5 225.22"></polygon><path fill="#093f68" d="M329.51,227.07h-17a1.86,1.86,0,0,1-1.37-3.11l17-18.58a1.86,1.86,0,0,1,3.23,1.26v18.58A1.86,1.86,0,0,1,329.51,227.07Zm-12.79-3.71h10.93V211.42Z"></path><path fill="#dfeaef" d="M376.34,240.94H327.15a1.86,1.86,0,1,1,0-3.72h49.19a1.86,1.86,0,0,1,0,3.72Z"></path><path fill="#dfeaef" d="M376.34,253H327.15a1.86,1.86,0,1,1,0-3.72h49.19a1.86,1.86,0,1,1,0,3.72Z"></path><path fill="#dfeaef" d="M376.34,265.12H327.15a1.86,1.86,0,1,1,0-3.71h49.19a1.86,1.86,0,1,1,0,3.71Z"></path><path fill="#dfeaef" d="M362.21,277.22H327.15a1.86,1.86,0,1,1,0-3.72h35.06a1.86,1.86,0,0,1,0,3.72Z"></path><path fill="#dfeaef" d="M391.51,347.56H335.26a1.86,1.86,0,0,1,0-3.72h56.25a1.86,1.86,0,0,1,0,3.72Z"></path></g></svg>
