<svg id="Layer_1" data-name="Layer 1" xmlns="http://www.w3.org/2000/svg" viewBox="0 0 400 300" width="406" height="306" class="illustration"><title>_</title><ellipse cx="200" cy="253.1" rx="148.03" ry="11.56" fill="#e6e6e6" opacity="0.45"></ellipse><path d="M108.21,47.45c-33.51,10.9-63,39.61-64.63,79.17-.91,22,3.88,78.44,73.6,93.1,111.91,23.54,212.56,15.58,233.69-41.08,18.82-50.46-11-117.58-66.89-131.43C244.59,37.46,173.67,26.15,108.21,47.45Z" fill="#e6e6e6" opacity="0.3"></path><rect x="97.19" y="110.02" width="132.9" height="122.09" transform="translate(327.29 342.12) rotate(-180)" fill="#24285b"></rect><rect x="88.17" y="66.14" width="150.13" height="58.02" rx="4.4" transform="translate(326.47 190.31) rotate(-180)" fill="#24285b"></rect><rect x="88.58" y="129.46" width="150.13" height="58.02" rx="4.4" transform="translate(327.29 316.94) rotate(-180)" fill="#24285b"></rect><rect x="88.17" y="192.78" width="150.13" height="58.02" rx="4.4" transform="translate(326.47 443.58) rotate(-180)" fill="#24285b"></rect><rect x="88.17" y="66.14" width="150.13" height="58.02" rx="4.4" transform="translate(326.47 190.31) rotate(-180)" fill="#fff" opacity="0.07"></rect><rect x="88.58" y="129.46" width="150.13" height="58.02" rx="4.4" transform="translate(327.29 316.94) rotate(-180)" fill="#fff" opacity="0.07"></rect><rect x="88.17" y="192.78" width="150.13" height="58.02" rx="4.4" transform="translate(326.47 443.58) rotate(-180)" fill="#fff" opacity="0.07"></rect><circle cx="218.13" cy="102.94" r="4.6" fill="#68e1fd"></circle><circle cx="204.6" cy="102.94" r="4.6" fill="#fff" opacity="0.46"></circle><circle cx="191.06" cy="102.94" r="4.6" fill="#fff" opacity="0.46"></circle><circle cx="218.13" cy="167.54" r="4.6" fill="#68e1fd"></circle><circle cx="204.6" cy="167.54" r="4.6" fill="#fff" opacity="0.46"></circle><circle cx="191.06" cy="167.54" r="4.6" fill="#fff" opacity="0.46"></circle><circle cx="218.13" cy="232.13" r="4.6" fill="#68e1fd"></circle><circle cx="204.6" cy="232.13" r="4.6" fill="#fff" opacity="0.46"></circle><circle cx="191.06" cy="232.13" r="4.6" fill="#fff" opacity="0.46"></circle><rect x="104.98" y="59.71" width="116.91" height="6.61" transform="translate(326.88 126.02) rotate(-180)" fill="#68e1fd"></rect><path d="M292.78,79.13a30,30,0,0,0-1.89,7.79,2.42,2.42,0,0,0,2.34,2.51,5.35,5.35,0,0,0,5.15-2.67L301,83.12a4.33,4.33,0,0,0-.52-5C298.39,75.5,293.72,76.34,292.78,79.13Z" fill="#f4a28c"></path><path d="M322.18,243.1s1.28,3.57,4.5,3.84,4.07,3.42,1.17,4.24-10.37-2.9-10.37-2.9l.21-4.65Z" fill="#68e1fd"></path><path d="M277.89,243.1s-1.28,3.57-4.5,3.84-4.07,3.42-1.17,4.24,10.37-2.9,10.37-2.9l-.21-4.65Z" fill="#68e1fd"></path><path d="M273.76,100.37s-23,4.65-21.09,26.06-19,33.2-6.19,45.59,29.87,5.42,29.87,5.42Z" fill="#68e1fd"></path><path d="M273.76,100.37s-23,4.65-21.09,26.06-19,33.2-6.19,45.59,29.87,5.42,29.87,5.42Z" fill="#fff" opacity="0.39"></path><polygon points="299.8 84.04 299.6 99.84 290.89 99.11 294.53 87.91 299.8 84.04" fill="#f4a28c"></polygon><path d="M291.82,82,290,83.42a.77.77,0,0,0,.12,1.3l1.67.85Z" fill="#f4a28c"></path><path d="M294.08,89.41a7.46,7.46,0,0,0,3.5-1.13s-.53,3.11-4.6,4.41Z" fill="#ce8172" opacity="0.31"></path><path d="M283.16,98.31a111.53,111.53,0,0,1,41.72,8.92,16.1,16.1,0,0,1,8.12,22l-22.7,45.27L268.22,172s-7.66-25.44-6.12-54.23A20.67,20.67,0,0,1,283.16,98.31Z" fill="#68e1fd"></path><path d="M276.35,172.5s-1.73-64.85.66-73.37l-2.52.37a119,119,0,0,0-2,25.76c.33,12.57,1.34,48.29,1.63,48.35A11.44,11.44,0,0,0,276.35,172.5Z" fill="#24285b"></path><polygon points="298.96 173.84 306.5 101.22 302.89 99.84 294.11 176.37 298.96 173.84" fill="#24285b"></polygon><path d="M310.3,174.51l12.58,69.23h-6.29l-15.76-37.58a65.27,65.27,0,0,0-28-31.52L268.22,172Z" fill="#24285b"></path><path d="M313.78,113.25s-9.93,7.33-8,20.44,3.89,23.3-8.19,20.25S279,122.78,279,122.78l-14.1.35,2.44,31.35,8.18.56a8.87,8.87,0,0,1,8.06,7.08l2.2,10.94,24.56,1.45,3.48-5.16,15.32-16.63L331,126.26Z" opacity="0.08"></path><rect x="268.55" y="113.64" width="27.33" height="37.43" transform="translate(-8.33 19.45) rotate(-3.89)" fill="#ffd200"></rect><path d="M268.22,172l6.5,71.72h8.35s-1.95-54,13.13-65.45Z" fill="#24285b"></path><path d="M312.84,117.3a10.25,10.25,0,0,1,18.34-6c4.83,6.16,9.27,16.44,8.91,33.32-.79,36-21.94,45.69-54.58,6.26l6.42-5S304.8,156.84,316.57,157C325.33,157.12,312.24,134.5,312.84,117.3Z" fill="#68e1fd"></path><path d="M312.84,117.3a10.25,10.25,0,0,1,18.34-6c4.83,6.16,9.27,16.44,8.91,33.32-.79,36-21.94,45.69-54.58,6.26l6.42-5S304.8,156.84,316.57,157C325.33,157.12,312.24,134.5,312.84,117.3Z" fill="#fff" opacity="0.39"></path><path d="M268.47,131.67s9.36,17.26,28.23,12.39l.41,6L269.85,152Z" opacity="0.08"></path><path d="M290.76,146.84s-3.84-6.78-8.55-5,3.3,9,3.3,9Z" fill="#f4a28c"></path><path d="M298,83.87A1.76,1.76,0,0,1,296,85a6.93,6.93,0,0,0-5.22.61c-2.79,1.82-.33,5.92,2.88,5.14s7.87-6,7.87-6,3.18-4.4,2.46-7.24-7.76-7.11-11-2.31c-2.07,3.07,1,4.68,3.45,5.45a2.54,2.54,0,0,1,1.6,3.3Z" fill="#24285b"></path><path d="M296.47,83.22s.56-1.77,1.86-1.24.5,3.09-1.39,2.8Z" fill="#f4a28c"></path><path d="M304.37,81.22,290.89,74l2.43-.39a8.83,8.83,0,0,1,4.4-4.34c3-1.15,7.8,2.3,8.62,5.43S304.37,81.22,304.37,81.22Z" fill="#ffd200"></path><rect x="62.11" y="138.32" width="56.31" height="40.31" fill="#ffd200"></rect><path d="M107.06,163.18a4.65,4.65,0,0,0-4.65-4.65,4.74,4.74,0,0,0-.75.06,6.26,6.26,0,0,0-5.52-3.3h-.23a7.16,7.16,0,0,0,.23-1.8,7.45,7.45,0,1,0-14.89,0,7.65,7.65,0,0,0,.23,1.8h-.23a6.27,6.27,0,1,0,0,12.54H103v0A4.64,4.64,0,0,0,107.06,163.18Z" fill="#fff"></path><polygon points="96.22 165.19 90.81 157.51 85.41 165.19 88.12 165.19 88.12 171.15 93.44 171.15 93.44 165.19 96.22 165.19" fill="#24285b"></polygon><rect x="74.27" y="76.39" width="56.31" height="40.31" fill="#ffd200"></rect><path d="M119.23,101.25a4.65,4.65,0,0,0-4.65-4.65,4.56,4.56,0,0,0-.75.06,6.29,6.29,0,0,0-5.53-3.3h-.23a7.16,7.16,0,0,0,.23-1.8,7.45,7.45,0,1,0-14.89,0,7.65,7.65,0,0,0,.23,1.8h-.23a6.27,6.27,0,1,0,0,12.54h21.77v0A4.65,4.65,0,0,0,119.23,101.25Z" fill="#fff"></path><polygon points="97.57 103.93 102.98 111.61 108.38 103.93 105.67 103.93 105.67 97.97 100.36 97.97 100.36 103.93 97.57 103.93" fill="#24285b"></polygon></svg>