<svg id="Layer_1" data-name="Layer 1" xmlns="http://www.w3.org/2000/svg" xmlns:xlink="http://www.w3.org/1999/xlink" viewBox="0 0 172.73 122.07" width="406" height="306" class="illustration"><defs><linearGradient id="linear-gradient" x1="-487.25" y1="255.32" x2="-464.16" y2="289.37" gradientTransform="translate(635.1 72.71) rotate(26.48)" gradientUnits="userSpaceOnUse"><stop offset="0" stop-color="#eaeaea"></stop><stop offset="1" stop-color="#a3a3a3"></stop></linearGradient><linearGradient id="linear-gradient-2" x1="-478.79" y1="269.42" x2="-452.36" y2="284.2" xlink:href="#linear-gradient"></linearGradient><linearGradient id="linear-gradient-3" x1="58.87" y1="76.24" x2="105.7" y2="102.32" gradientUnits="userSpaceOnUse"><stop offset="0.01"></stop><stop offset="0.08" stop-opacity="0.69"></stop><stop offset="0.21" stop-opacity="0.32"></stop><stop offset="1" stop-opacity="0"></stop></linearGradient><linearGradient id="linear-gradient-4" x1="40.43" y1="20.66" x2="166.82" y2="107.92" xlink:href="#linear-gradient-3"></linearGradient><linearGradient id="linear-gradient-5" x1="67.4" y1="74.11" x2="160" y2="126.29" xlink:href="#linear-gradient-3"></linearGradient><linearGradient id="linear-gradient-6" x1="32.1" y1="32.73" x2="158.49" y2="119.99" xlink:href="#linear-gradient-3"></linearGradient><linearGradient id="linear-gradient-7" x1="96.05" y1="37.54" x2="100.88" y2="88.02" xlink:href="#linear-gradient-3"></linearGradient><linearGradient id="linear-gradient-8" x1="36.11" y1="26.92" x2="162.5" y2="114.18" xlink:href="#linear-gradient-3"></linearGradient><linearGradient id="linear-gradient-9" x1="39.27" y1="22.34" x2="165.66" y2="109.6" xlink:href="#linear-gradient-3"></linearGradient><linearGradient id="linear-gradient-10" x1="-657.61" y1="99.52" x2="-585.97" y2="235.13" gradientTransform="matrix(0.83, 0.19, -0.47, 0.92, 708.1, 63.25)" xlink:href="#linear-gradient-3"></linearGradient><linearGradient id="linear-gradient-11" x1="-643.32" y1="91.97" x2="-571.68" y2="227.58" gradientTransform="matrix(0.83, 0.19, -0.47, 0.92, 708.1, 63.25)" xlink:href="#linear-gradient-3"></linearGradient></defs><title>6.</title><path d="M75.67,21.1c-36.46-17.64-58.76,9-61.38,15.62C5.49,59.16,19,77.94,6.47,93.07S1.78,148.37,44,134.28s81.39.53,101.74-4.69,34.95-63.65,13.56-80.35C140.51,34.56,105.85,35.69,75.67,21.1Z" transform="translate(-1.05 -15.16)" fill="#68e1fd" opacity="0.18" style="isolation: isolate;"></path><polygon points="33.34 88.04 20.29 90.31 89.94 106.87 161.59 92.22 116.48 80.74 33.34 88.04" fill="#68e1fd" opacity="0.31" style="isolation: isolate;"></polygon><path d="M89,92.72l27.13-45.9a2,2,0,0,1,1.86-1L171.79,48a2.07,2.07,0,0,1,1.7,3.11l-30.75,52.13Z" transform="translate(-1.05 -15.16)" fill="#68e1fd"></path><path d="M33.77,101l.61,2.17A2.13,2.13,0,0,0,36,104.7l47.79,11.49a4.82,4.82,0,0,0,1.89.06l53.8-8.83a2.26,2.26,0,0,0,1.89-2.21l0-2.14Z" transform="translate(-1.05 -15.16)" fill="url(#linear-gradient)"></path><path d="M87.6,92.56l27.13-45.9a2.05,2.05,0,0,1,1.86-1l53.8,2.19a2.07,2.07,0,0,1,1.7,3.11l-30.75,52.13Z" transform="translate(-1.05 -15.16)" fill="#473f47"></path><path d="M141.34,103.07l-56.62,9.12a3.33,3.33,0,0,1-1.22,0L33.77,101,87.6,92.56Z" transform="translate(-1.05 -15.16)" fill="url(#linear-gradient-2)"></path><polygon points="60.03 82.45 105.2 90.99 129.85 87.31 86.13 78.26 60.03 82.45" fill="#473f47"></polygon><polygon points="49.73 88.61 68.73 84.83 91.4 89.01 72.47 93.29 49.73 88.61" fill="#473f47"></polygon><path d="M53.62,105.47a5.09,5.09,0,0,0,2.62,1.85c1.6.38,8.55,2,8.55,2a2.69,2.69,0,0,0,2-.86Z" transform="translate(-1.05 -15.16)" fill="#eaeaea"></path><polygon points="88.42 76.15 138.43 86.17 167.03 36.74 113.82 33.09 88.42 76.15" fill="#fff"></polygon><path d="M119.26,57.56a4.47,4.47,0,0,1,1.25.25.77.77,0,0,0,.57,0" transform="translate(-1.05 -15.16)" fill="none" stroke="#f8f8f8" stroke-linecap="round" stroke-linejoin="round" stroke-width="0.4" opacity="0.43"></path><path d="M59.68,100.19a5.33,5.33,0,0,1-.2,1.5.37.37,0,0,1-.16.22.43.43,0,0,1-.43-.07,3,3,0,0,1-1.21-3.49,4.17,4.17,0,0,1,1.24-2.14L60,95.43a2.15,2.15,0,0,1,.55-.31,1.78,1.78,0,0,1,.65-.07,3.06,3.06,0,0,1,1.13.2.41.41,0,0,1,.11.07.26.26,0,0,1,0,.24,2.55,2.55,0,0,1-.78.63A4.2,4.2,0,0,0,60,98.58,6.4,6.4,0,0,0,59.68,100.19Z" transform="translate(-1.05 -15.16)" fill="#f89659"></path><path d="M83.63,92.75a.84.84,0,0,0-.11.3.57.57,0,0,0,0,.26,2.12,2.12,0,0,0,.71.89c.36.29.73.58,1.11.84a.79.79,0,0,0,.72.2.56.56,0,0,0,.25-.66,2.18,2.18,0,0,0-.38-.66,1.1,1.1,0,0,1-.26-.7c0-.42.47-.7.49-1.12s-.4-.8-.7-1C84.7,90.74,83.92,92.2,83.63,92.75Z" transform="translate(-1.05 -15.16)" fill="#f89659"></path><path d="M94.6,82.15a27.92,27.92,0,0,1-3.9,5.45c-.81,1-1.64,1.9-2.48,2.83-.38.42-.78.82-1.14,1.25s-.73.71-1.43.34l-.17-.11a.47.47,0,0,1-.09-.06,4,4,0,0,1-.67-.63.44.44,0,0,1-.08-.15.25.25,0,0,1,0-.12c.46-1.06.93-2.11,1.39-3.17a9.78,9.78,0,0,1,1.37-2.55c.83-1,1.63-2,2.45-3a65,65,0,0,1-7.33-5.33,5.48,5.48,0,0,1-.88-1c-3.79-6.32-5.4-7.35-5.4-7.35L86.09,68s7.77,10.09,8.85,12.39C95.19,81,94.83,81.68,94.6,82.15Z" transform="translate(-1.05 -15.16)" fill="#473f47"></path><path d="M82.69,76.54c-.6,1.25-7.91,9.42-7.91,9.42-2,1.81-4,3.59-6,5.33-1.22,1-2.45,2-3.72,3a8.81,8.81,0,0,1-3,1.82,1.81,1.81,0,0,1-.52,0,2.55,2.55,0,0,1-.82-.22.13.13,0,0,1-.08,0,1.23,1.23,0,0,1-.62-.65c-.28-.78,1.25-1.88,1.76-2.4l2.39-2.47q2.34-2.4,4.67-4.82l2.19-2.25s4.36-13.64,5.34-14.69a.58.58,0,0,1,.15-.11,1.47,1.47,0,0,1,.76-.18h0a4.89,4.89,0,0,1,.75,0h0a26,26,0,0,1,4.84,1.3S83.29,75.28,82.69,76.54Z" transform="translate(-1.05 -15.16)" fill="#473f47"></path><path d="M73.19,82c-1.93,4-5.74,6.66-8.85,9.81a33.18,33.18,0,0,0-2.42,2.76,5.64,5.64,0,0,1-1.29,1.29.13.13,0,0,1-.08,0,1.23,1.23,0,0,1-.62-.65c-.28-.78,1.25-1.88,1.76-2.4l2.39-2.47q2.34-2.4,4.67-4.82l2.19-2.25s4.36-13.64,5.34-14.69a.58.58,0,0,1,.15-.11,4,4,0,0,1,.76-.18h0a2.36,2.36,0,0,1,.65,0l.1,0h0c2.12.45.23,2.18-.42,3.16a21.59,21.59,0,0,0-2.43,4.88A53.4,53.4,0,0,1,73.19,82Z" transform="translate(-1.05 -15.16)" fill="url(#linear-gradient-3)"></path><path d="M106,61.54a4.68,4.68,0,0,0-.32.41c-.11.15-.21.31-.33.51a1.22,1.22,0,0,1-.25.31,1,1,0,0,1-.35.19,1.86,1.86,0,0,1-1.22-.3,26.12,26.12,0,0,0-3.5-.81c-1.28-.4-2.53-.88-3.78-1.37l-3-1.14c-1-.4-2-.78-3-1.28l-.57-.31c-.28-.16-.63-.34-.92-.19a1,1,0,0,0-.29.31,3.5,3.5,0,0,0-.37,1.76,6.34,6.34,0,0,1-.37,1.61c-.35,1-.66,2-1.06,3a7.7,7.7,0,0,1-1.25,2.61,2.41,2.41,0,0,1-1.43.5,17,17,0,0,0-3.28.42,9.79,9.79,0,0,1-1.47.5A3.93,3.93,0,0,1,77,67.9c-.62-.34-.47-1-.34-1.58.49-2.4,1.13-3.85-.28-6,.28.42-3.64,2.72-4.16,2.8-2.2.33-3.77-1-5.59-2a26.11,26.11,0,0,0-3.42-1.4,6.67,6.67,0,0,0-1.08-.31A3.31,3.31,0,0,1,61,59.25a1.29,1.29,0,0,1-.33-.28,2.69,2.69,0,0,1-.44-.62,1.59,1.59,0,0,0-.54-.68,1.42,1.42,0,0,0-1.07,0,2.65,2.65,0,0,1-.55.1.21.21,0,0,1-.2-.06.17.17,0,0,1,0-.24.52.52,0,0,1,.22-.14c.45-.19.9-.37,1.35-.53-.46-.3-1.06-.09-1.59-.18a.4.4,0,0,1-.19-.07.24.24,0,0,1,.07-.33.64.64,0,0,1,.36-.08c.52,0,1-.06,1.56-.08-.54-.48-1.49-.16-2-.63a1.35,1.35,0,0,1,1.12-.33,5.39,5.39,0,0,1,1.79.26,5.05,5.05,0,0,1,1,.53,30.61,30.61,0,0,0,3.78,2.56,10.6,10.6,0,0,0,2.82.81c.42.08.86.11,1.28.17s1,.23,1.44.34a1.24,1.24,0,0,0,.57,0,1,1,0,0,0,.39-.23A9.29,9.29,0,0,0,73.85,57c.6-1,1.32-1.88,2-2.83a3.14,3.14,0,0,1,1-1c.73-.4,1.64-.15,2.47-.25a2.49,2.49,0,0,0,1.76-1c.39-.64.23-1.49.65-2.13a2.39,2.39,0,0,1,1-.79,9.44,9.44,0,0,0,1.28-.8c.32-.22.73-.45,1.08-.26a.37.37,0,0,1,.21.26.59.59,0,0,1,0,.29,14.11,14.11,0,0,0-.37,1.42,2.64,2.64,0,0,0,0,1.5c.26.68,1.21.94,1.85,1.09.92.23,1.89.13,2.82.34A7.23,7.23,0,0,1,92,54.09c1.15.81,2.21,1.72,3.32,2.58.56.44,1.13.87,1.73,1.26a15.9,15.9,0,0,0,2.48,1,22,22,0,0,0,2.92,1,8.93,8.93,0,0,0,4,.19A1.8,1.8,0,0,1,106,61.54Z" transform="translate(-1.05 -15.16)" fill="#f89659"></path><path d="M105.1,62.77a1,1,0,0,1-.35.19,1.86,1.86,0,0,1-1.22-.3,26.12,26.12,0,0,0-3.5-.81c-1.28-.4-2.53-.88-3.78-1.37l-3-1.14c-1-.4-2-.78-3-1.28.27.14,1-1.5,1.14-1.67.82-.94.76.79.84,1.36a.78.78,0,0,0,.09.34.88.88,0,0,0,.4.28q2.88,1.26,5.86,2.25c1,.33,2,.61,3.05.93.84.26,1.7.35,2.57.54.35.08.77.21.84.57A.41.41,0,0,1,105.1,62.77Z" transform="translate(-1.05 -15.16)" fill="#d57439"></path><path d="M81.27,50.44a1.76,1.76,0,0,1-.08,1c-.21.41,1.66.59,2.11,0a20.21,20.21,0,0,0,1.21-2.24Z" transform="translate(-1.05 -15.16)" fill="#d57439"></path><path d="M83.41,50.22a3.09,3.09,0,0,1-1.77.43,2,2,0,0,1-1.56-.89,3,3,0,0,1-.35-1.14,9.59,9.59,0,0,1,1-5.64,2.27,2.27,0,0,1,.56-.74A1.69,1.69,0,0,1,82.41,42a3.54,3.54,0,0,1,2,.9A10.22,10.22,0,0,1,86,44.56c.29.39.82,1,.71,1.51a6.23,6.23,0,0,1-.78,1.4A6.86,6.86,0,0,1,83.41,50.22Z" transform="translate(-1.05 -15.16)" fill="#f89659"></path><path d="M108.09,60.79a.22.22,0,0,0,.13-.14c0-.12-.11-.2-.23-.24a6.19,6.19,0,0,0-1.21-.25c-.28,0-.8,0-1,.27s.09.46.32.56A2.86,2.86,0,0,0,108.09,60.79Z" transform="translate(-1.05 -15.16)" fill="#f89659"></path><path d="M107.84,54.27c-1.25.78-2.53.19-3.76,1.18a7.53,7.53,0,0,1-2,1.44,3.93,3.93,0,0,1-1.53.19,8.24,8.24,0,0,1-5.65-2.6,8.7,8.7,0,0,0-1-1c-1.5-1.14-3.68-.41-5.5-.89a4.32,4.32,0,0,1-3.12-4.13,18.32,18.32,0,0,0,.13-2.09,3.22,3.22,0,0,0-.17-.68,5.49,5.49,0,0,0-.74-1.27,3.09,3.09,0,0,1,0,1.25,1.74,1.74,0,0,0,.25,1.21,2.12,2.12,0,0,1-1.07-1.36c0-.14,0-.27,0-.4a1.52,1.52,0,0,0-.55-.84c-.39-.32-.84-.56-1.24-.86A2.62,2.62,0,0,1,81,42.36a1.23,1.23,0,0,1-.1-.66,2.77,2.77,0,0,1,1.35-2,4,4,0,0,1,3.19-.24,8.2,8.2,0,0,1,2.78,1.72,3.87,3.87,0,0,0,1.88,1.15,4.08,4.08,0,0,0,1.67-.3,6.1,6.1,0,0,1,2.87-.27,8.34,8.34,0,0,1,3.82,2.5,6.87,6.87,0,0,0,4,2.22,8.74,8.74,0,0,1,3.63.53,6.47,6.47,0,0,1,2.32,2.09,4.57,4.57,0,0,1,.89,2.94A2.86,2.86,0,0,1,107.84,54.27Z" transform="translate(-1.05 -15.16)" fill="#ff681c"></path><path d="M86.77,66.81a2.54,2.54,0,0,1-2.11,1.54c-1.75.43-3.62.27-5.34.87a15.48,15.48,0,0,1-1.57.56l-.16,0a1.92,1.92,0,0,1-1.72-.36c-.68-.64-.5-1.75-.28-2.65.41-1.64,1.37-3.62.37-5.2l0,0a4.54,4.54,0,0,1-.39-.48,2.49,2.49,0,0,1-.29-.59l-.48-1.27-1-2.55a1.23,1.23,0,0,1-.12-.52,1.3,1.3,0,0,1,.37-.64l1.62-1.79a3.16,3.16,0,0,1,1.15-.94,6,6,0,0,1,1.53-.17,8.05,8.05,0,0,0,1.9-.65.4.4,0,0,1,.24,0,.38.38,0,0,1,.15.23,1.93,1.93,0,0,0,.52.72,3.92,3.92,0,0,0,.5.39l.23.16,1.29.86a3.08,3.08,0,0,0,.92.47c1.13.29,1.63-1.06,1.42-2a3.92,3.92,0,0,0-.7-1.4c.51.11,1,.23,1.52.37a9.81,9.81,0,0,0,1.46.45c.75.07,1.41-.22,2.15.1a13.5,13.5,0,0,1,2.68,1.56l-.33,1.17c-.41,1.42-.91,3-2.15,3.77-.32.2-.67.35-1,.57-.53.38-.51.85-.68,1.4-.3,1-.59,1.94-.84,2.91A20.6,20.6,0,0,1,86.77,66.81Z" transform="translate(-1.05 -15.16)" fill="#fff"></path><path d="M86.47,53.64a.94.94,0,0,1,.27-.29.78.78,0,0,1,.3-.07c1.31-.11,2.63-.19,3.94-.22-1.83-1.15-4.28-.68-6.25-1.59-.16.47.17,1,.37,1.41a3.92,3.92,0,0,1,.26,1.31A1.25,1.25,0,0,0,86.47,53.64Z" transform="translate(-1.05 -15.16)" fill="url(#linear-gradient-4)"></path><path d="M61.52,58.91a1.36,1.36,0,0,1-.87.06,2.69,2.69,0,0,1-.44-.62,1.67,1.67,0,0,0-.54-.68,1.42,1.42,0,0,0-1.07,0,1.31,1.31,0,0,1,.61-.31.73.73,0,0,0,.56-.45,1.18,1.18,0,0,1,.06-.27c.08-.13.25-.14.4-.14a4.73,4.73,0,0,1,.9.16,2,2,0,0,1,.58.22.76.76,0,0,1,.34.43c-.1,0-.24-.07-.35-.1a2.88,2.88,0,0,0-.4-.09,2,2,0,0,0-.8.07s-.08,0-.09.06,0,.09.08.12c.43.23.94.29,1.37.55a.32.32,0,0,1,.15.13.36.36,0,0,1,0,.27A.89.89,0,0,1,61.52,58.91Z" transform="translate(-1.05 -15.16)" fill="#d57439"></path><path d="M87,95.33c-.16-.32-.35-.68-.7-.78a3.55,3.55,0,0,0-.57-.06c-.47-.09-.76-.54-1-.93a8.08,8.08,0,0,0-.84-1.28s-.75.7-.66.94a2.56,2.56,0,0,0,.45.64A12.28,12.28,0,0,0,85.92,96c.26.16,1.08.73,1.4.58S87.11,95.6,87,95.33Z" transform="translate(-1.05 -15.16)" fill="#68e1fd"></path><path d="M59.81,102.34a1.41,1.41,0,0,1-.33.76.34.34,0,0,1-.25.11.36.36,0,0,1-.23-.11,5.67,5.67,0,0,1-1.43-1.46,3.1,3.1,0,0,1-.49-2c.06-.46.25-.9.34-1.36s.08-.82.19-1.22.71-.64,1.1-.77c.15.11-.19.34-.26.51a5.26,5.26,0,0,0-.38,2,2.4,2.4,0,0,0,.55,1.82.8.8,0,0,0,.65.23c.19,0,.4-.37.57-.29S59.85,102.07,59.81,102.34Z" transform="translate(-1.05 -15.16)" fill="#68e1fd"></path><path d="M89.62,84.57l-4,7.45-.17-.11a.47.47,0,0,1-.09-.06,4,4,0,0,1-.67-.63.44.44,0,0,1-.08-.15.25.25,0,0,1,0-.12c.46-1.06.93-2.11,1.39-3.17a9.78,9.78,0,0,1,1.37-2.55c.83-1,1.63-2,2.45-3a65,65,0,0,1-7.33-5.33l.13-.4.56-1.12s7.68,5.36,8,5.88S89.62,84.57,89.62,84.57Z" transform="translate(-1.05 -15.16)" fill="url(#linear-gradient-5)"></path><path d="M77.75,69.78l-.16,0a1.92,1.92,0,0,1-1.72-.36c-.68-.64-.5-1.75-.28-2.65.41-1.64,1.37-3.62.37-5.2l0,0a4.51,4.51,0,0,1,1.38-1.44,2.27,2.27,0,0,1,.77-.44c.82-.2,1.84.55,2.46,0-.28,1-1.13,1.66-1.57,2.56a6.9,6.9,0,0,0-.44,1.4c-.22,1-.45,2-.68,3A6.08,6.08,0,0,0,77.49,69C77.55,69.29,77.74,69.55,77.75,69.78Z" transform="translate(-1.05 -15.16)" fill="url(#linear-gradient-6)"></path><path d="M107.84,54.27c-1.25.78-2.53.19-3.76,1.18a7.53,7.53,0,0,1-2,1.44,3.93,3.93,0,0,1-1.53.19,8.24,8.24,0,0,1-5.65-2.6,8.7,8.7,0,0,0-1-1c-1.5-1.14-3.68-.41-5.5-.89a4.32,4.32,0,0,1-3.12-4.13,18.32,18.32,0,0,0,.13-2.09,3.22,3.22,0,0,0-.17-.68c-.08-.56-.07-.79.47-.35a7.29,7.29,0,0,1,1.48,2,5.27,5.27,0,0,0,2.48,2.39c1.67.61,3.63-.24,5.25.48A7.72,7.72,0,0,1,97.12,52a3.46,3.46,0,0,0,2.44,1.28,1.32,1.32,0,0,0,1-.46A8.5,8.5,0,0,1,97,49.48a7.4,7.4,0,0,0,6.7,2.25,3.89,3.89,0,0,1-1.38,1.1c1.6.05,3.38-.08,4.51-1.22.33-.33.67-.77,1.14-.73a1.09,1.09,0,0,1,.65.36,3.4,3.4,0,0,1,.61.85A2.86,2.86,0,0,1,107.84,54.27Z" transform="translate(-1.05 -15.16)" fill="url(#linear-gradient-7)"></path><path d="M85.94,46.49a.58.58,0,0,1,.65.37.71.71,0,0,1-.14.57,2.27,2.27,0,0,1-1,.88.55.55,0,0,1-.24.07.43.43,0,0,1-.38-.35.85.85,0,0,1,.09-.54C85.09,47.08,85.47,46.56,85.94,46.49Z" transform="translate(-1.05 -15.16)" fill="#f89659"></path><path d="M85.82,47.15A.5.5,0,0,1,86,47a.17.17,0,0,1,.19,0s0,.09,0,.14a1.11,1.11,0,0,1-.72.94.26.26,0,0,1-.15,0c-.19-.06-.21-.45-.07-.57s.18-.05.27-.08S85.75,47.27,85.82,47.15Z" transform="translate(-1.05 -15.16)" fill="#d57439"></path><path d="M83.17,54.59a4.16,4.16,0,0,1-1.89-.72,5.83,5.83,0,0,0-1.15-.75,2.25,2.25,0,0,0-1.47,0,7.27,7.27,0,0,0-3,2.37,3,3,0,0,0-.66,1c-.22.61.41,2.58-.21,2.74l-1-2.55a1.23,1.23,0,0,1-.12-.52,1.3,1.3,0,0,1,.37-.64l1.62-1.79a3.16,3.16,0,0,1,1.15-.94,6,6,0,0,1,1.53-.17,8.05,8.05,0,0,0,1.9-.65.4.4,0,0,1,.24,0,.38.38,0,0,1,.15.23,1.93,1.93,0,0,0,.52.72,3.92,3.92,0,0,0,.5.39A7.21,7.21,0,0,0,83.17,54.59Z" transform="translate(-1.05 -15.16)" fill="url(#linear-gradient-8)"></path><path d="M88.62,56.74a2,2,0,0,1,0-.9,1.25,1.25,0,0,1,.94-.72,3.69,3.69,0,0,1,1.24,0c.46,0,1,.2,1.11.65a1.12,1.12,0,0,1-.11.62A8.94,8.94,0,0,1,91,58.19c-.25.38-1.68,1.84-2.27,1.42C88.38,59.36,88.67,57.22,88.62,56.74Z" transform="translate(-1.05 -15.16)" fill="url(#linear-gradient-9)"></path><polygon points="105.65 71.05 100.04 69.79 104.45 61.09 110.07 62.35 105.65 71.05" fill="#68e1fd"></polygon><polygon points="112.58 72.61 106.96 71.34 115.96 53.63 121.57 54.89 112.58 72.61" fill="#68e1fd"></polygon><polygon points="119.5 74.17 113.89 72.9 119.36 62.11 124.98 63.38 119.5 74.17" fill="#68e1fd"></polygon><polygon points="126.43 75.72 120.81 74.46 132.66 51.13 138.27 52.39 126.43 75.72" fill="#68e1fd"></polygon><polygon points="112.58 72.61 106.96 71.34 115.96 53.63 121.57 54.89 112.58 72.61" fill="url(#linear-gradient-10)"></polygon><polygon points="126.43 75.72 120.81 74.46 132.66 51.13 138.27 52.39 126.43 75.72" fill="url(#linear-gradient-11)"></polygon><polygon points="133.35 77.28 127.74 76.02 142.89 46.17 148.5 47.43 133.35 77.28" fill="#68e1fd"></polygon><rect x="17.45" y="16.77" width="41.83" height="41.83" rx="4.54" fill="#fff"></rect><circle cx="37.64" cy="36.26" r="12.1" fill="#68e1fd"></circle><path d="M38.68,37.16V51.94l13-9.39S45.77,35.94,38.68,37.16Z" transform="translate(-1.05 -15.16)" fill="#473f47"></path></svg>