<svg id="Layer_1" data-name="Layer 1" xmlns="http://www.w3.org/2000/svg" viewBox="0 0 400 300" width="406" height="306" class="illustration"><polygon points="280.48 190.71 286.96 245.99 336.43 245.99 325.47 193.79 280.48 190.71" fill="#24285b"></polygon><path d="M309.4,246l-5-28.05a16.51,16.51,0,0,0-8.86-11.88l-3.64-1.82s7.9,27.45,3.9,41.75Z" opacity="0.09"></path><path d="M255.31,215.48s32-21.92,31.84-45S252.26,163.25,255.31,215.48Z" fill="#f4a28c"></path><path d="M317.33,102.11s36,8.9,27.59,39a339.18,339.18,0,0,1-19.45,52.66l-45-3.08S235.6,86,317.33,102.11Z" fill="#68e1fd"></path><path d="M109,171.92s-3.84,31.32,25.46,49.4l15.73-14.22-26.93-53.48Z" fill="#f4a28c"></path><path d="M79.39,173.57l-1.57,2.74A146.68,146.68,0,0,0,60,227.5L57.25,246h74l-16.38-52.2Z" fill="#24285b"></path><polygon points="311.8 71.41 317.33 102.11 299.05 113.15 303.05 80.87 311.8 71.41" fill="#f4a28c"></polygon><path d="M302.21,85.9a11.24,11.24,0,0,0,5.5-3.44s-.13,5.71-6.28,11.47Z" fill="#ce8172" opacity="0.31"></path><path d="M297.89,69.17s-1.92,9.32-1.07,15.77a4.78,4.78,0,0,0,5.39,4.1c3.25-.48,7.49-2.06,9.13-6.93l3.79-7.93s2.2-5-2.68-9.5S298.78,63.43,297.89,69.17Z" fill="#f4a28c"></path><path d="M297,75.1l-3.06,3.33a1.52,1.52,0,0,0,.67,2.49L298.12,82Z" fill="#f4a28c"></path><path d="M314.79,84l3.31-12.51s7.22-1.23,5-6-5-1.59-5.16-7-4.49-6.52-7.62-3.48-1.66-1.21-5.55-1.79-4.92,1.15-5,4.11-5.7-.21-7.15,3.53-1.66,7.36,8,8S303.41,77.49,314.79,84Z" fill="#ffd200"></path><path d="M307,78.44s.49-3.64,3.2-3,2,5.85-1.76,5.9Z" fill="#f4a28c"></path><rect x="126.64" y="98.63" width="157.85" height="125.05" rx="14.55" fill="#e6e6e6"></rect><path d="M255.5,157,210,123.4v20.07h-6.52a36.61,36.61,0,0,0-36.61,36.61v10.63l2.9-3.17a52,52,0,0,1,38.39-16.94H210v20.06Z" fill="#878787"></path><polygon points="106.87 74.41 98.91 102.5 114.7 105.79 114.16 84.03 106.87 74.41" fill="#f4a28c"></polygon><path d="M142.34,133.48s11.78,16.71,2.19,28.72-29.83,15.45-29.83,15.45Z" opacity="0.09"></path><path d="M114.48,88.79a10.59,10.59,0,0,1-4.81-3.71s-.41,5.33,4.79,11.26Z" fill="#ce8172" opacity="0.31"></path><path d="M123.23,75.23s-.79,8.88-3.3,14.43A4.47,4.47,0,0,1,114,91.88c-2.78-1.3-6.16-3.87-6.31-8.68l-1.26-8.12s-.61-5.13,5-7.81S124,69.85,123.23,75.23Z" fill="#f4a28c"></path><path d="M112.57,81.08s.54-3.38-2-3.58-3.38,4.71,0,5.78Z" fill="#f4a28c"></path><path d="M122.44,80.8l1.85,3.81a1.43,1.43,0,0,1-1.27,2l-3.47,0Z" fill="#f4a28c"></path><path d="M114.7,105.79s37.94,16.84,25.87,42.94c-8.74,18.91-18.71,14.77-22.16,30l-3.57,15-38.78-14s5.91-21.95,4.19-36.83S72.83,90.92,114.7,105.79Z" fill="#68e1fd"></path><path d="M103.83,113.75s15.25,20.38,4.44,43.31c-7.79,16.51.67,21.14-1.47,24.87l-19.75,1.8-11-4,2.08-9.24Z" opacity="0.09"></path><path d="M148.34,157.39s8.84.24,4.27,12.41S131.12,203.36,107.93,206s-30.44-15.26-23.19-28.23c0,0,1.14,13.37,17.92,5.92S148.34,157.39,148.34,157.39Z" opacity="0.09"></path><path d="M110.52,77.5s5.29,27.89-4.12,31.09-24.18-.86-23.94-12.25S94,84.4,97.23,69s32.51-8.29,31,.61S110.52,77.5,110.52,77.5Z" fill="#ffd200"></path><path d="M104.6,116.38a13.58,13.58,0,0,0-24.2-5.3c-4.07,5.49-6.81,13.38-4.34,24.33,6,26.51-2.36,59.1,16.87,61.39s50-28.21,50-28.21l-4.1-7.43S111,180,102.24,176.59C95.44,173.93,109.5,139.4,104.6,116.38Z" fill="#f4a28c"></path><path d="M138.84,161.16s4.82-10.69,9.1-8.25,2.44,11.2-5,15.68Z" fill="#f4a28c"></path><path d="M161.49,224.07s11.13,5.44,11.76-2S163.08,216.91,161.49,224.07Z" fill="#f4a28c"></path><path d="M323.56,115.48s-14.85,6.21-16.57,26,.33,34.19-6.33,32.06-39.25-16.18-39.25-16.18-11.82,7,0,13.29,44.7,21.79,44.7,21.79l19.36,1.32,4.65-10.38Z" opacity="0.09"></path><path d="M250.34,224.07s-11.13,5.44-11.76-2S248.75,216.91,250.34,224.07Z" fill="#f4a28c"></path><path d="M340.41,115.61c6.46,7.94,11.17,21.88,1.07,45l-25.85-8s.41-18.36,6-33.76A10.92,10.92,0,0,1,340.41,115.61Z" fill="#68e1fd"></path><path d="M340.41,115.61c6.46,7.94,11.17,21.88,1.07,45l-25.85-8s.41-18.36,6-33.76A10.92,10.92,0,0,1,340.41,115.61Z" fill="#fff" opacity="0.44"></path><path d="M341.48,160.57s-8.77,29.39-20.2,26.9-54.91-22.7-54.91-22.7-15.74-8.68-5.49-14.65c3.77-2.2,11.78,8.36,11.78,8.36l43,10.11,3.46-15Z" fill="#f4a28c"></path></svg>