<svg id="Layer_1" data-name="Layer 1" xmlns="http://www.w3.org/2000/svg" viewBox="0 0 400 300" width="406" height="306" class="illustration"><title>#84_data process_twocolour</title><rect x="74.27" y="45.14" width="251.46" height="163.38" fill="#c9c9c9" opacity="0.86"></rect><polygon points="181 189.87 171.45 250.54 235.15 250.54 220.5 189.87 181 189.87" fill="#c9c9c9"></polygon><ellipse cx="192" cy="263.81" rx="161.5" ry="16.69" fill="#e6e6e6" opacity="0.45"></ellipse><rect x="74.27" y="171.2" width="251.46" height="37.32" fill="#e6e6e6"></rect><path d="M78.82,113.9s8.23-2.9,9.71,6.85,4,20,14.88,19.75,31.09-5.5,43.34,11.25,12.5,47.05-11,56.78H110.09L93,180.25,107.19,156l-20.44-8.25-10-11.25Z" opacity="0.08"></path><circle cx="201.4" cy="187.64" r="10.1" fill="#a5a5a5"></circle><rect x="156.91" y="239.91" width="89.59" height="19.5" fill="#e6e6e6"></rect><polygon points="78.47 129.93 81.27 138.33 74.62 142.56 72.22 127.99 78.47 129.93" fill="#f4a28c"></polygon><path d="M69.94,119.86a5.24,5.24,0,0,1,8.66-1.45c2.83,3,6.24,7.83,2.38,10.45-5.91,4-11.33-3.48-11.33-3.48A9.61,9.61,0,0,1,69.94,119.86Z" fill="#f4a28c"></path><path d="M74.26,125s-1.51-1.27-2.2.53,2,2.67,2.79,1.76S74.26,125,74.26,125Z" fill="#f4a28c"></path><path d="M69.91,142.49S46.1,156.91,43,190.75a11.75,11.75,0,0,0,8.9,12.54L79.77,210Z" fill="#68e1fd"></path><path d="M69.91,142.49S46.1,156.91,43,190.75a11.75,11.75,0,0,0,8.9,12.54L79.77,210Z" fill="#fff" opacity="0.2"></path><rect x="55.65" y="190.75" width="22.25" height="30.5" transform="translate(188.56 26.94) rotate(52.18)" fill="#ffd200"></rect><path d="M64.4,149.57a19.18,19.18,0,0,1,12-10.49c10.18-3.06,29.51-9.48,35.23,0,7.82,13-4.22,64.22-4.22,64.22L73.22,206S54.4,172.06,64.4,149.57Z" fill="#68e1fd"></path><polygon points="107.43 203.35 102.93 262.17 97.87 262.17 89.46 216.47 73.73 206 107.43 203.35" fill="#24285b"></polygon><polygon points="73.73 206 65.3 262.17 70.15 262.17 88.02 215.51 73.73 206" fill="#24285b"></polygon><path d="M79.37,138.19s-16,51.54,30.21,55l-2.15,10.2L73.22,206a88.76,88.76,0,0,1-11.55-45.51s.29-13.15,9.55-19A20.85,20.85,0,0,1,79.37,138.19Z" opacity="0.08"></path><path d="M65.3,262.17l-4.73,3.49a1,1,0,0,0,.61,1.87h7.93a1,1,0,0,0,1-1v-4.32Z" fill="#68e1fd"></path><path d="M102.73,262.17l4.45,3.48a1.05,1.05,0,0,1-.65,1.88h-5.64a3,3,0,0,1-3-3v-2.35Z" fill="#68e1fd"></path><path d="M69.37,128.52s1.43,5.25,4.81,4.25-1.63-8.75,0-10,7.79-3.25,4.64-8.87-8.64-1.63-10,2.25S62.56,121.15,69.37,128.52Z" fill="#24285b"></path><circle cx="94.72" cy="61.44" r="4.4" fill="#24285b"></circle><circle cx="107.81" cy="61.44" r="4.4" fill="#68e1fd"></circle><circle cx="120.14" cy="61.44" r="4.4" fill="#ffd200"></circle><rect x="267.85" y="31.81" width="64.48" height="47.44" fill="#24285b"></rect><rect x="267.85" y="148.41" width="64.48" height="47.44" fill="#ffd200"></rect><path d="M312.4,54.91a7,7,0,0,0-.92.08,5.1,5.1,0,0,0,.34-1.84,5.28,5.28,0,0,0-8.3-4.32,7.32,7.32,0,1,0-13.76,4.42,6.62,6.62,0,0,0-1.1-.1,6.74,6.74,0,0,0-.28,13.47v0h24a5.87,5.87,0,1,0,0-11.73Z" fill="#fff"></path><path d="M88.53,148.15a14.21,14.21,0,0,1,17.9-13.34c12.95,3.5,30.61,12.17,35.51,33.58,8,34.94-32.36,35-32.36,35l-2.15-5.61s31.32-10.25,17.11-27.68C112.81,155.67,88.08,166.17,88.53,148.15Z" fill="#68e1fd"></path><path d="M88.53,148.15a14.21,14.21,0,0,1,17.9-13.34c12.95,3.5,30.61,12.17,35.51,33.58,8,34.94-32.36,35-32.36,35l-2.15-5.61s31.32-10.25,17.11-27.68C112.81,155.67,88.08,166.17,88.53,148.15Z" fill="#fff" opacity="0.2"></path><path d="M107.91,199s-4.28,2.27-3.66,7,1.25,7,4.25,5.25,1.08-7.9,1.08-7.9Z" fill="#f4a28c"></path><rect x="139.58" y="115.51" width="26.33" height="33.33" fill="#a5a5a5"></rect><rect x="178.92" y="83.17" width="26.33" height="65.67" fill="#a5a5a5"></rect><rect x="219.73" y="65.84" width="26.33" height="83" fill="#a5a5a5"></rect><rect x="100.37" y="79.25" width="10.02" height="7.75" fill="#a5a5a5"></rect><rect x="117.02" y="79.25" width="27.98" height="7.75" fill="#a5a5a5" opacity="0.4"></rect><rect x="100.37" y="91.75" width="10.02" height="7.75" fill="#a5a5a5"></rect><rect x="117.02" y="91.75" width="27.98" height="7.75" fill="#a5a5a5" opacity="0.4"></rect><line x1="300.09" y1="86" x2="300.09" y2="141.25" fill="none" opacity="0.74" stroke-linecap="round" stroke-linejoin="round" stroke-width="2" stroke-dasharray="2 8" stroke="#a5a5a5"></line><path d="M316.34,175.76l-3.08-2.4a10,10,0,0,0,0-2.53l3.08-2.4a1.5,1.5,0,0,0,.36-1.92L313.51,161a1.48,1.48,0,0,0-1.85-.67L308,161.77a12.63,12.63,0,0,0-2.18-1.27l-.55-3.84a1.48,1.48,0,0,0-1.48-1.28h-6.41a1.47,1.47,0,0,0-1.47,1.27l-.55,3.86a12.87,12.87,0,0,0-2.18,1.26l-3.63-1.46a1.52,1.52,0,0,0-1.84.65l-3.2,5.54a1.5,1.5,0,0,0,.36,1.93l3.08,2.41a11.83,11.83,0,0,0-.08,1.26,12,12,0,0,0,.08,1.26l-3.08,2.4a1.5,1.5,0,0,0-.36,1.92l3.19,5.54a1.48,1.48,0,0,0,1.85.66l3.63-1.46a12.26,12.26,0,0,0,2.18,1.27l.55,3.84a1.47,1.47,0,0,0,1.47,1.29h6.41a1.47,1.47,0,0,0,1.48-1.27l.55-3.86a12.94,12.94,0,0,0,2.18-1.27l3.63,1.46a1.5,1.5,0,0,0,.55.11,1.48,1.48,0,0,0,1.29-.76l3.21-5.56A1.51,1.51,0,0,0,316.34,175.76Zm-15.72,1.91a5.58,5.58,0,1,1,5.57-5.57A5.58,5.58,0,0,1,300.62,177.67Z" fill="#fff"></path></svg>