<svg id="Layer_1" data-name="Layer 1" xmlns="http://www.w3.org/2000/svg" viewBox="0 0 400 300" width="406" height="306" class="illustration styles_illustrationTablet__1DWOa"><title>#63_user interface_twocolour</title><rect x="103.49" y="51.39" width="219.16" height="172.74" fill="#e6e6e6"></rect><rect x="134.18" y="162.01" width="41.88" height="40.06" fill="#c9c9c9"></rect><rect x="261.7" y="88.18" width="60.95" height="126.75" opacity="0.08"></rect><path d="M107.18,97.65s4.89-1.4,6.64,6.07.92,9.1-2.73,11-1.77,14,4.86,13.75,12-5.62,15.25,0,6.52,46.81,20.07,37.91,16.59-43,16.59-43l24.21-.35v26.74l-18.83-.37s-2.43,32.84-28.92,40.18a10.05,10.05,0,0,0-7,12.78l7.12,21.84h-41l0-28.8S101.54,105.85,107.18,97.65Z" opacity="0.08"></path><ellipse cx="108.86" cy="257.06" rx="74.66" ry="10.59" fill="#e6e6e6" opacity="0.45"></ellipse><path d="M53.3,246.48s-7.24-1.94-8.85-8.67c0,0,11.21-2.31,11.58,9.26Z" fill="#68e1fd" opacity="0.58"></path><path d="M54.19,245.76s-5.09-8-.68-15.46c0,0,8.55,5.38,4.81,15.46Z" fill="#68e1fd" opacity="0.73"></path><path d="M55.49,245.76s2.64-8.45,10.71-10.08c0,0,1.53,5.47-5.19,10.08Z" fill="#68e1fd"></path><polygon points="50.24 245.59 51.75 255.63 60.99 255.63 62.31 245.59 50.24 245.59" fill="#24285b"></polygon><circle cx="120.59" cy="63.55" r="3.42" fill="#24285b"></circle><circle cx="130.76" cy="63.55" r="3.42" fill="#68e1fd"></circle><circle cx="140.34" cy="63.55" r="3.42" fill="#ffd200"></circle><path d="M108.38,123.3s15.39-2,18.49,10.81,3.53,30.7,15.9,34.26S162,147.2,162,147.2s2.87-6.94,6-7.89,5.3,5.9,0,10.1c0,0-4.46,31.59-28.19,30.48S108.38,146.22,108.38,123.3Z" fill="#f4a28c"></path><path d="M108.38,123.3s15.39-2,18.49,10.81,3.53,30.7,15.9,34.26S162,147.2,162,147.2s2.87-6.94,6-7.89,5.3,5.9,0,10.1c0,0-4.46,31.59-28.19,30.48S108.38,146.22,108.38,123.3Z" opacity="0.08"></path><path d="M108.38,123.3s16.53-3.26,18.85,10.1a100.24,100.24,0,0,0,6.4,22.31L121,159.8Z" fill="#68e1fd"></path><path d="M108.38,123.3s16.53-3.26,18.85,10.1a100.24,100.24,0,0,0,6.4,22.31L121,159.8Z" fill="#fff" opacity="0.46"></path><path d="M107.59,101.59a30.83,30.83,0,0,1,2.48,7.86,2.5,2.5,0,0,1-2.23,2.75,5.52,5.52,0,0,1-5.48-2.4l-2.9-3.55a4.45,4.45,0,0,1,.19-5.15C101.58,98.24,106.43,98.78,107.59,101.59Z" fill="#f4a28c"></path><polygon points="100.55 107.06 99.38 123.3 108.38 123.3 105.68 111.79 100.55 107.06" fill="#f4a28c"></polygon><path d="M108.78,104.49l2,1.31a.79.79,0,0,1,0,1.34l-1.66,1Z" fill="#f4a28c"></path><path d="M105.76,112.11a6.06,6.06,0,0,1-2.93-1.4s-.58,3.52,3.7,4.7Z" fill="#ce8172" opacity="0.31"></path><path d="M103.48,106.86s-.69-1.78-2-1.14-.3,3.21,1.62,2.78Z" fill="#f4a28c"></path><polygon points="124.62 215.76 132.23 250.33 127.81 250.33 113.01 215.76 124.62 215.76" fill="#f4a28c"></polygon><polygon points="99.87 211.56 91.76 250.33 87.32 250.33 87.99 211.29 99.87 211.56" fill="#f4a28c"></polygon><path d="M132.23,250.33s2.46,3.12,5.6,3,3.6,4.29-1.45,3.83a26.83,26.83,0,0,1-4.66-.8,8.32,8.32,0,0,0-4.26.15,1.37,1.37,0,0,1-1.44-.57c-1.44-1.69,2.09-5.57,2.09-5.57Z" fill="#68e1fd"></path><path d="M87.64,250.33s-2.46,3.12-5.6,3-3.6,4.29,1.46,3.83a26.87,26.87,0,0,0,4.65-.8,8.32,8.32,0,0,1,4.26.15,1.37,1.37,0,0,0,1.44-.57c1.44-1.69-2.09-5.57-2.09-5.57Z" fill="#68e1fd"></path><path d="M108.38,123.3h-9s-.61,0-1.67,0c-19.62.63-31,22.42-20.59,39.05,5.79,9.25,12.7,21.72,13.16,29.17l35-1.76s-2.65-22.68,3.83-35.64C129.08,154.12,141,133.72,108.38,123.3Z" fill="#68e1fd"></path><path d="M92.76,135.18s4.34,9,5.38,25.15,25.57-2.93,25.57-2.93l1.12,26.71L89.13,186l-3-10.82S76.8,158.42,92.76,135.18Z" opacity="0.08"></path><rect x="104.22" y="143.68" width="23.46" height="36.25" transform="translate(19.62 -12.4) rotate(6.68)" fill="#ffd200"></rect><rect x="112.49" y="141.51" width="10.92" height="5.31" transform="translate(17.58 -12.75) rotate(6.68)" fill="#24285b"></rect><polygon points="124.83 184.11 89.13 185.99 79.6 222.15 131.2 220.31 124.83 184.11" fill="#24285b"></polygon><polygon points="128.27 157.45 103.49 167.34 102.19 178.45 125.49 181.18 128.27 157.45" opacity="0.08"></polygon><path d="M92.46,136.91A7.61,7.61,0,0,0,79,131.77a32.64,32.64,0,0,0-7.53,21.72c.29,21.17,3.14,44.07,48.79,19l-2.46-6.71s-20.26,9.74-28.72,6.58C82.84,170.07,91.82,151.44,92.46,136.91Z" fill="#f4a28c"></path><path d="M117.78,165.82s7.61-3.62,10.85,0-1.91,6.86-8.39,6.71Z" fill="#f4a28c"></path><path d="M108.38,99.2l1.56,3.91-6.46,2.47s-.36,4.34,1.92,5.13a3.91,3.91,0,0,1-2.77-1.34,1.56,1.56,0,0,0-2.16-.14l-.08.08a13.91,13.91,0,0,1-3.76-6.65c-.73-3.82,3.54-4.41,3.54-4.41S105.84,94.27,108.38,99.2Z" fill="#24285b"></path><path d="M100.17,98.25s-.3-3.68-6.92-3.1,0,9.54-5.45,17.88c0,0,10-2.12,10.31-11.1Z" fill="#24285b"></path><path d="M100.59,98a3,3,0,0,0-3.21.28c-1.88,1.18-2.71,5.52.25,7C97.63,105.27,95.18,99.4,100.59,98Z" fill="#ffd200"></path><path d="M89.57,159.8H70.13s-2.13-28.38,14-32S89.57,159.8,89.57,159.8Z" fill="#68e1fd"></path><path d="M89.57,159.8H70.13s-2.13-28.38,14-32S89.57,159.8,89.57,159.8Z" fill="#fff" opacity="0.46"></path><rect x="133.63" y="79.88" width="89.03" height="30.41" fill="#c9c9c9"></rect><circle cx="154.19" cy="95.09" r="10.15" fill="#fff"></circle><rect x="173.3" y="88.34" width="33.91" height="5.05" fill="#fff"></rect><rect x="173.3" y="96.78" width="33.91" height="5.05" fill="#fff" opacity="0.45"></rect><rect x="153.28" y="120.82" width="29.17" height="24.33" fill="#68e1fd"></rect><polygon points="156.32 141.38 163.27 128.98 168.13 138.16 174.04 130.37 179.95 141.38 156.32 141.38" fill="#fff" opacity="0.62"></polygon><circle cx="169.22" cy="127.59" r="2.31" fill="#fff"></circle><rect x="247.45" y="75.32" width="95.5" height="126.75" fill="#f2f2f2"></rect><rect x="256.53" y="84.94" width="36" height="28.13" fill="#c9c9c9"></rect><rect x="297.86" y="84.94" width="36" height="28.13" fill="#c9c9c9" opacity="0.74"></rect><rect x="256.53" y="118.92" width="36" height="28.13" fill="#c9c9c9" opacity="0.47"></rect><rect x="297.86" y="118.92" width="36" height="28.13" fill="#c9c9c9" opacity="0.21"></rect><rect x="278.2" y="159.6" width="34" height="14.96" fill="#ffd200"></rect><rect x="293.09" y="161.69" width="14.75" height="3.85" fill="#fff" opacity="0.46"></rect><rect x="285.2" y="181.24" width="22.25" height="4.46" fill="#fff"></rect><rect x="186.73" y="162.01" width="41.88" height="40.06" fill="#c9c9c9"></rect></svg>