<svg id="Layer_1" data-name="Layer 1" xmlns="http://www.w3.org/2000/svg" viewBox="0 0 400 300" width="406" height="306" class="illustration"><title>_</title><path d="M282.65,64.7C313,75.34,336.53,105,342.76,142c5.24,31.2-3.14,69.49-52.81,87.1C239.26,247.09,121,251.06,77.49,205,42.26,167.62,49.55,89.17,103.58,66.38,141.46,50.41,223.47,43.92,282.65,64.7Z" fill="#e6e6e6" opacity="0.3"></path><path d="M284.15,147.42a84.23,84.23,0,0,0-10.65-41l.11-.09-2.48-3.93a84.1,84.1,0,0,0-71.47-39.42A85.32,85.32,0,0,0,181,65c-1.54.35-3.07.74-4.58,1.18-1,.29-2.06.6-3.08.93a82.3,82.3,0,0,0-12.15,5.05l-.14.07a84.18,84.18,0,0,0-13.15,8.39l0,0a86.06,86.06,0,0,0-7.14,6.25c-.65.64-1.3,1.3-1.94,2-.31.32-.63.65-.93,1a85.61,85.61,0,0,0-8.58,10.9c-.35.53-.7,1.07-1,1.61l-2.49,3.93.12.08a84.47,84.47,0,0,0,0,82.11l-.12.08,2.49,3.93a84.1,84.1,0,0,0,71.47,39.42,85.32,85.32,0,0,0,18.7-2.06c2.59-.58,5.15-1.29,7.66-2.11a82.64,82.64,0,0,0,12.14-5l.15-.07c.59-.3,1.17-.61,1.76-.93a85.15,85.15,0,0,0,11.39-7.46l0,0c1.77-1.38,3.49-2.85,5.16-4.38q2-1.84,3.92-3.83l.93-1c.48-.52,1-1.05,1.43-1.59a85.21,85.21,0,0,0,8.19-10.92l2.48-3.93-.11-.08A84.29,84.29,0,0,0,284.15,147.42ZM140.79,101.86l.24-.31.65-.81c.18-.23.36-.46.55-.68l.48-.58c.33-.39.66-.79,1-1.17.19-.22.39-.44.59-.65s.62-.71.94-1,.43-.45.64-.67.63-.65.94-1l.68-.68.95-.92.71-.66c.32-.3.63-.59,1-.87l.74-.66,1-.83.75-.63,1-.8c.25-.21.51-.41.77-.6s.68-.53,1-.78.51-.39.78-.57.71-.51,1.07-.76l.77-.53,1.12-.74.76-.5,1.2-.73.72-.44,1.35-.77.6-.34c.61-.34,1.23-.66,1.85-1l.13-.07c.68-.35,1.35-.68,2-1l.48-.21c.52-.25,1-.48,1.56-.71l.74-.31.57-.24A80.09,80.09,0,0,0,159,100.74q-1.85,4.88-3.28,10.22a79.61,79.61,0,0,1-16.25-7.28C139.87,103.06,140.33,102.46,140.79,101.86Zm-14.3,59.25a74.67,74.67,0,0,1,7.59-48.92,89.43,89.43,0,0,0,19.38,8.63,147.54,147.54,0,0,0-2.37,26.6q0,7,.61,13.69c.4,4.43,1,8.74,1.76,12.9a89.43,89.43,0,0,0-19.38,8.63A73.89,73.89,0,0,1,126.49,161.11ZM170.55,216l-.73-.31-1.57-.71-.47-.21-2-1-.13-.08c-.62-.32-1.24-.64-1.85-1l-.59-.33-1.36-.78-.71-.43c-.4-.25-.81-.49-1.21-.75l-.75-.48c-.38-.25-.76-.49-1.13-.75l-.77-.53-1.08-.76-.77-.56-1-.79-.76-.59-1-.81-.75-.63c-.33-.27-.65-.55-1-.84l-.73-.64c-.33-.29-.65-.58-1-.88l-.71-.66-.95-.92-.68-.68-.93-1c-.22-.23-.44-.45-.65-.68s-.63-.69-.94-1l-.59-.66-1-1.15-.51-.6c-.39-.47-.77-1-1.15-1.45l-.28-.35c-.46-.6-.92-1.21-1.36-1.82a79.61,79.61,0,0,1,16.25-7.28c3.49,13,8.83,24.09,15.45,32.33Zm24.08,5.2c-12.55-3.33-23.41-18.87-29.14-40a148.51,148.51,0,0,1,29.14-3.69Zm0-53.77a158.76,158.76,0,0,0-31.35,3.93c-.61-3.31-1.09-6.72-1.44-10.21a134.49,134.49,0,0,1,1.44-37.6c4.29,1,8.75,1.82,13.33,2.45a167.1,167.1,0,0,0,18,1.49Zm0-50a156.17,156.17,0,0,1-18-1.58q-5.73-.84-11.12-2.11a100.94,100.94,0,0,1,4.44-13c6.1-14.39,14.88-24.47,24.7-27.07Zm34.14-38.52.72.31,1.58.71.47.21c.68.33,1.36.66,2,1l.14.07c.62.32,1.24.64,1.85,1l.59.33,1.36.78.71.43c.4.25.81.49,1.21.75l.75.48,1.13.75.77.53c.36.25.72.5,1.07.76l.78.57c.34.25.69.51,1,.78l.77.59,1,.81.75.63c.33.27.65.55,1,.84l.73.64,1,.88.71.66.94.92.69.68.93,1,.65.67.93,1,.6.66,1,1.15.5.6c.4.48.78,1,1.16,1.45l.28.35c.46.6.92,1.21,1.36,1.82A79.61,79.61,0,0,1,243.64,111c-3.5-13-8.83-24.09-15.46-32.33Zm-24.08-5.2c12.55,3.33,23.41,18.87,29.14,40a148.61,148.61,0,0,1-29.14,3.69Zm0,53.78A159.69,159.69,0,0,0,236,123.51a134.8,134.8,0,0,1,.62,44.11c-.19,1.25-.4,2.48-.62,3.7q-5.86-1.37-12.1-2.27a164.61,164.61,0,0,0-19.25-1.66Zm0,93.71V177.44a154.21,154.21,0,0,1,20.67,2c2.89.48,5.72,1.05,8.47,1.69A94,94,0,0,1,227.12,199C221.2,210.75,213.35,218.86,204.69,221.16Zm52.4-26.39c-.16.2-.32.39-.49.58l-1,1.17-.59.66-.94,1-.65.67-.93,1-.69.68c-.31.31-.62.62-.94.92l-.71.66-1,.88-.74.65c-.32.28-.64.56-1,.83l-.76.63-1,.81-.77.59c-.34.27-.68.53-1,.78l-.78.57c-.35.26-.71.51-1.07.76l-.77.53-1.13.74-.76.5c-.39.25-.79.49-1.2.73l-.71.44-1.35.77-.49.28-.11.06c-.61.34-1.23.67-1.85,1l-.14.08-2,1-.48.21c-.52.25-1,.49-1.56.71l-.74.31c-.19.09-.38.16-.58.24a68.67,68.67,0,0,0,6-8.93,98.74,98.74,0,0,0,9.41-23.4,87.89,87.89,0,0,1,8.42,3.24,66.55,66.55,0,0,1,7.83,4c-.45.62-.9,1.22-1.36,1.82l-.24.31-1,1.3C257.19,194.64,257.14,194.71,257.09,194.77Zm8.15-12.13A89.79,89.79,0,0,0,245.85,174a149.78,149.78,0,0,0,0-53.19,89.31,89.31,0,0,0,19.39-8.63,74.53,74.53,0,0,1,0,70.45Z" fill="#68e1fd"></path><path d="M262.94,203.4c-.47.54-.95,1.07-1.43,1.59l-.93,1q-1.9,2-3.92,3.83c-1.67,1.53-3.39,3-5.16,4.38l0,0a85.15,85.15,0,0,1-11.39,7.46c-1.4-2.9-2.82-5.81-4.23-8.71-.06-.12-.12-.24-.17-.36a10.93,10.93,0,0,1-1.45-5.26.22.22,0,0,1,0-.08,4.32,4.32,0,0,0,0-1.48,3.33,3.33,0,0,0-1.27-1.52,50.24,50.24,0,0,1-5.82-5.28,94,94,0,0,0,6.71-17.86c-2.75-.64-5.58-1.21-8.47-1.69a3.57,3.57,0,0,1,.57-.23c2.33-.75,5.39.55,7-1.27l-7.31-7.14c-.58-.57-1.16-1.15-1.71-1.75q6.23.9,12.1,2.27c.22-1.22.43-2.45.62-3.7,5.44,6.24,10.58,12.76,15.4,19.49q2.67,3.69,5.19,7.47Q260.19,198.93,262.94,203.4Z" opacity="0.08"></path><g opacity="0.08"><path d="M176.61,115.81V126c-4.58-.63-9-1.45-13.33-2.45a134.49,134.49,0,0,0-1.44,37.6H151.7q-.6-6.68-.61-13.69a147.54,147.54,0,0,1,2.37-26.6,89.43,89.43,0,0,1-19.38-8.63,74.67,74.67,0,0,0-7.59,48.92h-10.2a84.42,84.42,0,0,1,9.53-54.75l-.12-.08,2.49-3.93c.34-.54.69-1.08,1-1.61h12.45l-.65.81-.24.31c-.46.6-.92,1.2-1.36,1.82A79.61,79.61,0,0,0,155.68,111q1.44-5.34,3.28-10.22h11a100.94,100.94,0,0,0-4.44,13Q170.88,115,176.61,115.81Z"></path></g><rect x="101.02" y="100.3" width="71.56" height="56.85" fill="#e6e6e6"></rect><rect x="101.02" y="96.77" width="71.56" height="11.93" fill="#24285b"></rect><path d="M118,136l-3.19-10.08h2.59l1.89,6.6,1.74-6.6h2.57l1.68,6.6,1.92-6.6h2.63L126.61,136h-2.56l-1.74-6.48L120.6,136Z" fill="#ccc"></path><path d="M133.12,136l-3.18-10.08h2.59l1.88,6.6,1.74-6.6h2.57l1.68,6.6,1.93-6.6H145L141.72,136h-2.56l-1.74-6.48L135.71,136Z" fill="#ccc"></path><path d="M148.24,136l-3.19-10.08h2.59l1.89,6.6,1.73-6.6h2.57l1.68,6.6,1.93-6.6h2.63L156.83,136h-2.56l-1.74-6.48-1.7,6.48Z" fill="#ccc"></path><path d="M258.57,191.3s-9.89-18.56-13.43-21.2c-5.35-4-15.35-14.5-17.75-14.36s-4.4.54-3.27,5,9.94,12.53,9.94,12.53-10.84,3.16-9.24,14.24S243.32,205,243.32,205Z" fill="#f4a28c"></path><polygon points="288.04 231.94 273.75 240.41 260.25 248.41 236.85 204.38 246.86 197.68 259.72 189.07 288.04 231.94" fill="#ffd200"></polygon><polygon points="273.75 240.41 260.25 248.41 236.85 204.38 246.86 197.68 273.75 240.41" opacity="0.08"></polygon><circle cx="106.87" cy="102.74" r="1.83" fill="#68e1fd"></circle><circle cx="112.55" cy="102.74" r="1.83" fill="#ffd200"></circle><circle cx="118.22" cy="102.74" r="1.83" fill="#fff"></circle></svg>