<svg id="Layer_1" data-name="Layer 1" xmlns="http://www.w3.org/2000/svg" viewBox="0 0 400 300" width="406" height="306" class="illustration"><ellipse cx="207.55" cy="256.09" rx="164.68" ry="11.38" fill="#e6e6e6" opacity="0.45"></ellipse><path d="M111.88,179.92,103,208.24A29.06,29.06,0,0,1,87.75,225.8l-13,6.19.52,3.84,19.46-4.2a34.26,34.26,0,0,0,21.09-17.88l13.74-28.29Z" fill="#f4a28c"></path><path d="M300.22,244.67s-8.93-2.44-10.87-10.75c0,0,13.83-2.79,14.23,11.49Z" fill="#68e1fd" opacity="0.19"></path><path d="M301.32,243.79s-6.24-9.86-.75-19.08c0,0,10.52,6.68,5.84,19.1Z" fill="#68e1fd" opacity="0.51"></path><path d="M302.92,243.79s3.3-10.41,13.26-12.38c0,0,1.87,6.76-6.45,12.41Z" fill="#68e1fd"></path><polygon points="296.45 243.56 298.26 255.94 309.66 255.99 311.34 243.62 296.45 243.56" fill="#24285b"></polygon><rect x="182.93" y="93.02" width="98.07" height="163.13" fill="#24285b"></rect><rect x="178.2" y="36.86" width="98.07" height="37.7" transform="translate(-6.03 37.6) rotate(-9.34)" fill="#24285b"></rect><rect x="194.12" y="26.29" width="58.34" height="10.89" transform="matrix(0.99, -0.16, 0.16, 0.99, -2.19, 36.65)" fill="#68e1fd"></rect><rect x="191.02" y="141.61" width="81.71" height="26.09" rx="9.29" fill="#fff" opacity="0.07"></rect><circle cx="257.83" cy="154.69" r="6.98" fill="#68e1fd"></circle><rect x="199.39" y="151.37" width="41.13" height="6.63" fill="#fff"></rect><rect x="191.02" y="103.61" width="81.71" height="26.09" rx="9.29" fill="#fff" opacity="0.07"></rect><circle cx="257.83" cy="116.69" r="6.98" fill="#68e1fd"></circle><rect x="199.39" y="113.37" width="41.13" height="6.63" fill="#fff"></rect><rect x="186.28" y="42.68" width="81.71" height="26.09" rx="9.29" transform="matrix(0.99, -0.16, 0.16, 0.99, -6.03, 37.59)" fill="#fff" opacity="0.07"></rect><circle cx="252.76" cy="51.54" r="6.98" fill="#68e1fd"></circle><rect x="194.82" y="54.37" width="41.13" height="6.63" transform="translate(-6.51 35.71) rotate(-9.34)" fill="#fff"></rect><rect x="191.02" y="181.26" width="81.71" height="26.09" rx="9.29" fill="#fff" opacity="0.07"></rect><circle cx="257.83" cy="194.34" r="6.98" fill="#68e1fd"></circle><rect x="199.39" y="191.02" width="41.13" height="6.63" fill="#fff"></rect><rect x="191.02" y="220.91" width="81.71" height="26.09" rx="9.29" fill="#fff" opacity="0.07"></rect><circle cx="257.83" cy="233.99" r="6.98" fill="#68e1fd"></circle><rect x="199.39" y="230.67" width="41.13" height="6.63" fill="#fff"></rect><polygon points="141.22 187.91 145.38 248.56 141.51 249.9 126.11 193.16 141.22 187.91" fill="#f4a28c"></polygon><path d="M146.17,249.6s.84,3.59,3.55,4.71,1.34,5-2.74,2.65a26.25,26.25,0,0,1-3.6-2.52,7.71,7.71,0,0,0-3.65-1.56,1.24,1.24,0,0,1-1-1c-.55-2,3.95-3.86,3.95-3.86Z" fill="#68e1fd"></path><path d="M75.26,235.83s-2.74,2.1-2.66,4.84-3.78,3.07-3.31-1.32a24.35,24.35,0,0,1,.76-4,7.08,7.08,0,0,0-.07-3.71,1.2,1.2,0,0,1,.52-1.25c1.49-1.22,4.82,1.9,4.82,1.9Z" fill="#68e1fd"></path><polygon points="118.01 100 119.45 105.83 114.72 108.33 113.89 98.35 118.01 100" fill="#f4a28c"></polygon><path d="M112.78,92.73a3.56,3.56,0,0,1,5.94-.52c1.75,2.2,3.8,5.64,1,7.2-4.21,2.39-7.48-3-7.48-3A6.54,6.54,0,0,1,112.78,92.73Z" fill="#f4a28c"></path><rect x="67.37" y="123.51" width="34.3" height="24.23" transform="translate(29.61 285.7) rotate(-127.97)" fill="#ffd200"></rect><path d="M93.36,118.29S73,150.13,77.07,154.82c12.94,14.88,41.67-18.64,41.67-18.64Z" fill="#f4a28c"></path><path d="M139.42,113.54A35.15,35.15,0,0,0,99,112.81c-5.33,3.63-9.44,9-7.56,16.9,4.41,18.4,18.51,30.53,19,46.72l33.38-2.24V153.35a14.27,14.27,0,0,1,4.55-10.51c2.91-2.68,5.8-7.05,3.82-13.06C150.39,124.45,145.84,118.25,139.42,113.54Z" fill="#68e1fd"></path><path d="M115.43,96.45s-1-.94-1.52.24,1.2,1.91,1.79,1.34S115.43,96.45,115.43,96.45Z" fill="#f4a28c"></path><path d="M122.9,122.21s-7.21,13.79,1.16,27.23-7.5,26.58-7.5,26.58l27.22-1.83V162.31s-1.68-15,3.51-18.41c0,0,8.88-6.4,4.1-16.09s-28.49-5.6-28.49-5.6" opacity="0.08"></path><path d="M109,114c.64-2.49,3.61-7-.58-15.19-.88-1.73-1.58-5.78.09-8.58,4-6.71,10.38-4.42,9.62-.66s-1.29,5.55-1.29,5.55,12.12,8.69,10.35,15.1C125.62,115.87,106.3,124.34,109,114Z" fill="#24285b"></path><polygon points="108.93 167.91 143.78 167.91 149.33 216.13 97.63 213.8 108.93 167.91" fill="#24285b"></polygon><path d="M124.28,132a9.79,9.79,0,0,1,1.44-13.86,50.17,50.17,0,0,1,6.38-4.24c13.29-7.61,35.38-24.43,44.68-47.63,0,0,2.18-8.48,8.65-8.18s4.24,8.34-2.2,8.26c0,0-5.27,50.34-43.94,69.07a12.46,12.46,0,0,1-15-3.42Z" fill="#f4a28c"></path><polygon points="100 47.99 100 66.36 111.87 66.36 114.47 73.67 117.54 66.36 129.41 66.36 129.41 47.99 100 47.99" fill="#e6e6e6"></polygon><path d="M113.22,61.28h0a.91.91,0,0,1-.68-.36l-3.11-4a.92.92,0,0,1,1.45-1.13l2.44,3.14,6-6.5a.92.92,0,1,1,1.35,1.25L113.9,61A.93.93,0,0,1,113.22,61.28Z" opacity="0.12"></path></svg>