<svg id="Layer_1" data-name="Layer 1" xmlns="http://www.w3.org/2000/svg" xmlns:xlink="http://www.w3.org/1999/xlink" viewBox="0 0 1100.95 925.07" width="406" height="306" class="illustration"><defs><linearGradient id="linear-gradient" x1="180.63" y1="545.4" x2="1026.48" y2="545.4" gradientUnits="userSpaceOnUse"><stop offset="0.01" stop-color="#fff"></stop><stop offset="1" stop-color="#fff" stop-opacity="0"></stop></linearGradient><linearGradient id="linear-gradient-2" x1="600.23" y1="529.55" x2="607.77" y2="874.79" xlink:href="#linear-gradient"></linearGradient><linearGradient id="linear-gradient-3" x1="1219.29" y1="2697.04" x2="73.97" y2="2865.05" gradientTransform="translate(2917.51 -143.79) rotate(90)" gradientUnits="userSpaceOnUse"><stop offset="0.01"></stop><stop offset="0.08" stop-opacity="0.69"></stop><stop offset="0.21" stop-opacity="0.32"></stop><stop offset="1" stop-opacity="0"></stop></linearGradient><linearGradient id="linear-gradient-4" x1="1209.96" y1="2633.44" x2="64.63" y2="2801.44" xlink:href="#linear-gradient-3"></linearGradient><linearGradient id="linear-gradient-6" x1="1040.48" y1="2713.14" x2="391.94" y2="2809.78" xlink:href="#linear-gradient-3"></linearGradient></defs><title>3. </title><path d="M407.51,67.06c-60.29,32.36-104.2,91.54-123.75,157.11-11.57,38.81-15.18,79.76-28.37,118C217.86,451.12,109.68,522,63.54,627.53,37.85,686.31,21.7,737.2,37.27,818.12c12.12,63,70,111.46,130.51,132.78,37.05,13.06,94.74,12.12,134,13.38,73.55,2.34,147.68,2.61,220.1-10.46,34.49-6.22,68.46-15.45,103.28-19.48,67.34-7.79,136.1,4,203-6.81,46.6-7.56,90.77-25.92,133-47.08,31.68-15.89,62.84-33.66,88.95-57.62,69.13-63.4,94.73-166.21,76.16-258.15s-76.93-172.7-150.4-231c-32.3-25.63-67.49-47.35-101.35-70.88a1132.75,1132.75,0,0,1-124-99.75C657.29,76.58,537.07-2.48,407.51,67.06Z" transform="translate(-31.16 -40.45)" fill="#68e1fd" opacity="0.18" style="isolation: isolate;"></path><path d="M315.56,847.05h703.8s47.82-33.35,66.43-65.83V601.64s-109.74-110.82-109.74-91-56.22,203-56.22,203L742.9,684.47l-562.27,41V939.76S280.63,949.44,315.56,847.05Z" transform="translate(-31.16 -40.45)" fill="#68e1fd" opacity="0.29" style="isolation: isolate;"></path><path d="M1026.48,292.32h-1.22v-1.53H180.78v1.53h-.15V798.48h.15V800h844.48v-1.52h1.22ZM534.5,518.8h67.83V572H534.5ZM532.05,572H464.22V518.8h67.83Zm72.73-53.19h67.83V572H604.78Zm70.29,0H742.9V572H675.07Zm0-3V462.56H742.9v53.19Zm-2.46,0H604.78V462.56h67.83Zm-70.28,0H534.5V462.56h67.83Zm-70.28,0H464.22V462.56h67.83Zm-70.29,0H393.93V462.56h67.83Zm0,3V572H393.93V518.8Zm0,56.24v53.19H393.93V575Zm2.46,0h67.83v53.19H464.22Zm70.28,0h67.83v53.19H534.5Zm70.28,0h67.83v53.19H604.78Zm70.29,0H742.9v53.19H675.07Zm70.28,0h67.83v53.19H745.35Zm0-3V518.8h67.83V572Zm0-56.24V462.56h67.83v53.19Zm0-56.24V406.32h67.83v53.19Zm-2.45,0H675.07V406.32H742.9Zm-70.29,0H604.78V406.32h67.83Zm-70.28,0H534.5V406.32h67.83Zm-70.28,0H464.22V406.32h67.83Zm-70.29,0H393.93V406.32h67.83Zm-70.28,0H323.65V406.32h67.83Zm0,3.05v53.19H323.65V462.56Zm0,56.24V572H323.65V518.8Zm0,56.24v53.19H323.65V575Zm0,56.24v53.19H323.65V631.28Zm2.45,0h67.83v53.19H393.93Zm70.29,0h67.83v53.19H464.22Zm70.28,0h67.83v53.19H534.5Zm70.28,0h67.83v53.19H604.78Zm70.29,0H742.9v53.19H675.07Zm70.28,0h67.83v53.19H745.35Zm70.28,0h67.84v53.19H815.63Zm0-3V575h67.84v53.19Zm0-56.24V518.8h67.84V572Zm0-56.24V462.56h67.84v53.19Zm0-56.24V406.32h67.84v53.19Zm0-56.24V350.08h67.84v53.19Zm-2.45,0H745.35V350.08h67.83Zm-70.28,0H675.07V350.08H742.9Zm-70.29,0H604.78V350.08h67.83Zm-70.28,0H534.5V350.08h67.83Zm-70.28,0H464.22V350.08h67.83Zm-70.29,0H393.93V350.08h67.83Zm-70.28,0H323.65V350.08h67.83Zm-70.29,0H253.36V350.08h67.83Zm0,3.05v53.19H253.36V406.32Zm0,56.24v53.19H253.36V462.56Zm0,56.24V572H253.36V518.8Zm0,56.24v53.19H253.36V575Zm0,56.24v53.19H253.36V631.28Zm0,56.24v53.19H253.36V687.52Zm2.46,0h67.83v53.19H323.65Zm70.28,0h67.83v53.19H393.93Zm70.29,0h67.83v53.19H464.22Zm70.28,0h67.83v53.19H534.5Zm70.28,0h67.83v53.19H604.78Zm70.29,0H742.9v53.19H675.07Zm70.28,0h67.83v53.19H745.35Zm70.28,0h67.84v53.19H815.63Zm70.29,0h67.83v53.19H885.92Zm0-3V631.28h67.83v53.19Zm0-56.24V575h67.83v53.19Zm0-56.24V518.8h67.83V572Zm0-56.24V462.56h67.83v53.19Zm0-56.24V406.32h67.83v53.19Zm0-56.24V350.08h67.83v53.19Zm0-56.24V293.84h67.83V347Zm-2.45,0H815.63V293.84h67.84Zm-70.29,0H745.35V293.84h67.83Zm-70.28,0H675.07V293.84H742.9Zm-70.29,0H604.78V293.84h67.83Zm-70.28,0H534.5V293.84h67.83Zm-70.28,0H464.22V293.84h67.83Zm-70.29,0H393.93V293.84h67.83Zm-70.28,0H323.65V293.84h67.83Zm-70.29,0H253.36V293.84h67.83Zm-70.28,0H183.08V293.84h67.83Zm0,3.05v53.19H183.08V350.08Zm0,56.24v53.19H183.08V406.32Zm0,56.24v53.19H183.08V462.56Zm0,56.24V572H183.08V518.8Zm0,56.24v53.19H183.08V575Zm0,56.24v53.19H183.08V631.28Zm0,56.24v53.19H183.08V687.52Zm0,56.24V797H183.08V743.76Zm2.45,0h67.83V797H253.36Zm70.29,0h67.83V797H323.65Zm70.28,0h67.83V797H393.93Zm70.29,0h67.83V797H464.22Zm70.28,0h67.83V797H534.5Zm70.28,0h67.83V797H604.78Zm70.29,0H742.9V797H675.07Zm70.28,0h67.83V797H745.35Zm70.28,0h67.84V797H815.63Zm70.29,0h67.83V797H885.92Zm70.28,0H1024V797H956.2Zm0-3V687.52H1024v53.19Zm0-56.24V631.28H1024v53.19Zm0-56.24V575H1024v53.19Zm0-56.24V518.8H1024V572Zm0-56.24V462.56H1024v53.19Zm0-56.24V406.32H1024v53.19Zm0-56.24V350.08H1024v53.19Zm0-56.24V293.84H1024V347Z" transform="translate(-31.16 -40.45)" fill="url(#linear-gradient)"></path><path d="M1026.48,565.23V798.57H180.63V565.86c2.75-2.64,68.09-65.23,120.19-43.18,23.57,10,35.46,25,45,37.12,11.29,14.32,18.73,23.77,39.8,20.78,19.36-2.76,33.3-22.3,48.05-43,15.84-22.2,32.21-45.13,56.94-46.71,29-1.77,46.42,29.63,61.77,57.43,10.3,18.7,20,36.37,31.4,42,11.61,5.82,18.06-1.48,30-19.51,8.53-12.91,18.24-27.55,33.87-27.55,18.27,0,29.7,29.25,42.89,63.15,10.17,26.07,21.7,55.64,33.77,59.45,1.66.53,4.3.91,8.22-1.73,15.31-10.16,23.18-24,30.13-36.09,9.73-17,18.91-33,44.45-28.3,23.25,4.31,34.54,25.3,43.64,42.16,6.88,12.77,12.84,23.78,21.24,24.24l.31,0c1.24-.17,16.83-3.52,31-58.88,12.38-48.58,37.5-88,62.44-98.14,8.51-3.46,16.51-3.14,23.18,1C1012.16,524.41,1025.92,563.57,1026.48,565.23Z" transform="translate(-31.16 -40.45)" fill="#68e1fd"></path><path d="M1026.48,565.23V798.57H180.63V565.86c2.75-2.64,68.09-65.23,120.19-43.18,23.57,10,35.46,25,45,37.12,11.29,14.32,18.73,23.77,39.8,20.78,19.36-2.76,33.3-22.3,48.05-43,15.84-22.2,32.21-45.13,56.94-46.71,29-1.77,46.42,29.63,61.77,57.43,10.3,18.7,20,36.37,31.4,42,11.61,5.82,18.06-1.48,30-19.51,8.53-12.91,18.24-27.55,33.87-27.55,18.27,0,29.7,29.25,42.89,63.15,10.17,26.07,21.7,55.64,33.77,59.45,1.66.53,4.3.91,8.22-1.73,15.31-10.16,23.18-24,30.13-36.09,9.73-17,18.91-33,44.45-28.3,23.25,4.31,34.54,25.3,43.64,42.16,6.88,12.77,12.84,23.78,21.24,24.24l.31,0c1.24-.17,16.83-3.52,31-58.88,12.38-48.58,37.5-88,62.44-98.14,8.51-3.46,16.51-3.14,23.18,1C1012.16,524.41,1025.92,563.57,1026.48,565.23Z" transform="translate(-31.16 -40.45)" fill="url(#linear-gradient-2)"></path><path d="M1026.48,565.23l-10,3.46c-.11-.39-13.06-37.26-33.1-49.5-3.7-2.29-8.32-2.36-13.65-.18-18.27,7.41-43.43,41-56.16,91-16.83,65.8-37.47,67.49-42.41,66.79-14.15-.92-21.73-15-29.71-29.78-8.85-16.4-18-33.37-36.26-36.76-17.32-3.21-23.08,5.26-33.31,23.14-7.16,12.53-16.08,28.09-33.44,39.66a21.22,21.22,0,0,1-11.75,3.88,18.74,18.74,0,0,1-5.54-.85c-16.9-5.36-28.33-34.68-40.43-65.72-9.81-25.12-22-56.42-33.05-56.42-9.95,0-17.29,11.08-25,22.79-10,15.07-22.33,33.77-43.54,23.15-14.32-7.16-24.83-26.21-36-46.39-14.5-26.29-29.6-53.45-51.79-52-19.75,1.27-34,21.17-49,42.26-15.42,21.59-31.36,43.93-55.18,47.31-27.06,3.85-38-10-49.63-24.73-9.25-11.71-19.73-25-40.82-33.9C251.08,513.09,188.6,572.88,188,573.48l-7.34-7.62c2.75-2.64,68.09-65.23,120.19-43.18,23.57,10,35.46,25,45,37.12,11.29,14.32,18.73,23.77,39.8,20.78,19.36-2.76,33.3-22.3,48.05-43,15.84-22.2,32.21-45.13,56.94-46.71,29-1.77,46.42,29.63,61.77,57.43,10.3,18.7,20,36.37,31.4,42,11.61,5.82,18.06-1.48,30-19.51,8.53-12.91,18.24-27.55,33.87-27.55,18.27,0,29.7,29.25,42.89,63.15,10.17,26.07,21.7,55.64,33.77,59.45,1.66.53,4.3.91,8.22-1.73,15.31-10.16,23.18-24,30.13-36.09,9.73-17,18.91-33,44.45-28.3,23.25,4.31,34.54,25.3,43.64,42.16,6.88,12.77,12.84,23.78,21.24,24.24l.31,0c1.24-.17,16.83-3.52,31-58.88,12.38-48.58,37.5-88,62.44-98.14,8.51-3.46,16.51-3.14,23.18,1C1012.16,524.41,1025.92,563.57,1026.48,565.23Z" transform="translate(-31.16 -40.45)" fill="#68e1fd"></path><path d="M1024.72,807.06H180.63a3.53,3.53,0,0,1-3.53-3.53V292.18a3.53,3.53,0,1,1,7.06,0V800h840.56a3.53,3.53,0,0,1,0,7.06Z" transform="translate(-31.16 -40.45)" fill="#68e1fd"></path><circle cx="462.23" cy="455.49" r="19.85" fill="#68e1fd"></circle><circle cx="944.89" cy="470.23" r="19.85" fill="#68e1fd"></circle><path d="M197.89,868.31a66.72,66.72,0,0,0,49.43-64.41H235.55a54.67,54.67,0,0,1-1.88,14.21,54.12,54.12,0,0,1-5.5,13.23,54.91,54.91,0,0,1-20.09,20.1,54.75,54.75,0,0,1-54.9,0,54.91,54.91,0,0,1-20.09-20.1l-10.19,5.89a66.71,66.71,0,0,0,24.4,24.4,66.47,66.47,0,0,0,50.59,6.68Z" transform="translate(-31.16 -40.45)" fill="#68e1fd"></path><path d="M210.08,913.8A113.75,113.75,0,0,0,294.4,803.9H282.63a102,102,0,0,1-190.29,51c-1.29-2.22-2.52-4.47-3.64-6.79A102.15,102.15,0,0,1,78.63,803.9h0a102.19,102.19,0,0,1,29.91-72.09,103,103,0,0,1,21.11-16.21,101.53,101.53,0,0,1,51-13.7h0V690.13h0A113.74,113.74,0,0,0,66.86,803.9h0A113.74,113.74,0,0,0,180.63,917.67h0A114,114,0,0,0,210.08,913.8Z" transform="translate(-31.16 -40.45)" fill="#68e1fd"></path><path d="M204,891.05a90.85,90.85,0,0,0,40.42-23.38A90.92,90.92,0,0,0,258.73,849a89.7,89.7,0,0,0,12.13-45.07H259.09a78.06,78.06,0,0,1-10.55,39.19,78.36,78.36,0,0,1-88.22,36.57,79.1,79.1,0,0,1-35.15-20.33,79.21,79.21,0,0,1-12.46-16.24,78.18,78.18,0,0,1-10.54-39.21h0a78.18,78.18,0,0,1,10.54-39.22l-10.19-5.88A89.82,89.82,0,0,0,90.4,803.9h0A89.82,89.82,0,0,0,102.52,849a90.1,90.1,0,0,0,33,33,90,90,0,0,0,68.45,9Z" transform="translate(-31.16 -40.45)" fill="#68e1fd"></path><path d="M191.78,845.53a42.48,42.48,0,0,0,10.4-4.3A42.28,42.28,0,0,0,218,825.45a43.7,43.7,0,0,0,5.82-21.55H212a31.84,31.84,0,0,1-4.23,15.67,30.8,30.8,0,0,1-11.48,11.48,31.07,31.07,0,0,1-7.56,3.13,31.43,31.43,0,0,1-8.11,1.1v11.77A42.74,42.74,0,0,0,191.78,845.53Z" transform="translate(-31.16 -40.45)" fill="#68e1fd"></path><path d="M133.09,831.34a54.49,54.49,0,0,1-7.38-27.44h0a55.06,55.06,0,0,1,16.1-38.82,55.63,55.63,0,0,1,11.37-8.73,54.77,54.77,0,0,1,54.9,0,55.9,55.9,0,0,1,11.37,8.73,55.23,55.23,0,0,1,8.72,11.37,54.76,54.76,0,0,1,7.38,27.45h11.77a66.69,66.69,0,0,0-113.83-47.14,67.29,67.29,0,0,0-10.59,13.81,66.2,66.2,0,0,0-9,33.33h0a66.2,66.2,0,0,0,9,33.33Z" transform="translate(-31.16 -40.45)" fill="#68e1fd"></path><path d="M294.4,803.9A113.74,113.74,0,0,0,180.63,690.13V701.9a101.53,101.53,0,0,1,51,13.7,102,102,0,0,1,37.32,37.32c1.28,2.22,2.51,4.47,3.63,6.79a102.33,102.33,0,0,1,10.08,44.19Z" transform="translate(-31.16 -40.45)" fill="#68e1fd"></path><path d="M180.63,835.28a31.26,31.26,0,0,1-27.15-15.71,32,32,0,0,1-4.24-15.67h0a32,32,0,0,1,4.24-15.68,31.44,31.44,0,0,1,49.33-6.51,31.89,31.89,0,0,1,5,6.51A31.84,31.84,0,0,1,212,803.9h11.77a43.2,43.2,0,0,0-32-41.64,43.28,43.28,0,0,0-54.31,41.64h0a43.85,43.85,0,0,0,5.83,21.55,42.28,42.28,0,0,0,15.78,15.78,43.91,43.91,0,0,0,21.55,5.82Z" transform="translate(-31.16 -40.45)" fill="#68e1fd"></path><path d="M267.78,780.54a90,90,0,0,0-9-21.74,90.1,90.1,0,0,0-33-33,89.94,89.94,0,0,0-90.19,0,90.3,90.3,0,0,0-33,33l10.19,5.88A78.31,78.31,0,0,1,141.42,736a78.11,78.11,0,0,1,78.42,0,78.42,78.42,0,0,1,39.25,67.92h11.77A90,90,0,0,0,267.78,780.54Z" transform="translate(-31.16 -40.45)" fill="#68e1fd"></path><path d="M133.09,831.34a54.49,54.49,0,0,1-7.38-27.44h0a55.06,55.06,0,0,1,16.1-38.82,55.63,55.63,0,0,1,11.37-8.73,54.77,54.77,0,0,1,54.9,0,55.9,55.9,0,0,1,11.37,8.73,55.23,55.23,0,0,1,8.72,11.37,54.76,54.76,0,0,1,7.38,27.45h11.77a66.69,66.69,0,0,0-113.83-47.14,67.29,67.29,0,0,0-10.59,13.81,66.2,66.2,0,0,0-9,33.33h0a66.2,66.2,0,0,0,9,33.33Z" transform="translate(-31.16 -40.45)" fill="url(#linear-gradient-3)"></path><path d="M294.4,803.9A113.74,113.74,0,0,0,180.63,690.13V701.9a101.53,101.53,0,0,1,51,13.7,102,102,0,0,1,37.32,37.32c1.28,2.22,2.51,4.47,3.63,6.79a102.33,102.33,0,0,1,10.08,44.19Z" transform="translate(-31.16 -40.45)" fill="url(#linear-gradient-4)"></path><path d="M180.63,835.28a31.26,31.26,0,0,1-27.15-15.71,32,32,0,0,1-4.24-15.67h0a32,32,0,0,1,4.24-15.68,31.44,31.44,0,0,1,49.33-6.51,31.89,31.89,0,0,1,5,6.51A31.84,31.84,0,0,1,212,803.9h11.77a43.2,43.2,0,0,0-32-41.64,43.28,43.28,0,0,0-54.31,41.64h0a43.85,43.85,0,0,0,5.83,21.55,42.28,42.28,0,0,0,15.78,15.78,43.91,43.91,0,0,0,21.55,5.82Z" transform="translate(-31.16 -40.45)" fill="url(#linear-gradient-3)"></path><path d="M267.78,780.54a90,90,0,0,0-9-21.74,90.1,90.1,0,0,0-33-33,89.94,89.94,0,0,0-90.19,0,90.3,90.3,0,0,0-33,33l10.19,5.88A78.31,78.31,0,0,1,141.42,736a78.11,78.11,0,0,1,78.42,0,78.42,78.42,0,0,1,39.25,67.92h11.77A90,90,0,0,0,267.78,780.54Z" transform="translate(-31.16 -40.45)" fill="url(#linear-gradient-6)"></path></svg>